G04 #@! TF.FileFunction,Legend,Top*
%FSLAX46Y46*%
G04 Gerber Fmt 4.6, Leading zero omitted, Abs format (unit mm)*
G04 Created by KiCad (PCBNEW 4.0.6) date 09/27/17 00:39:41*
%MOMM*%
%LPD*%
G01*
G04 APERTURE LIST*
%ADD10C,0.100000*%
%ADD11C,0.120000*%
%ADD12C,0.150000*%
G04 APERTURE END LIST*
D10*
D11*
X88904000Y-67548000D02*
X88904000Y-65548000D01*
X86864000Y-65548000D02*
X86864000Y-67548000D01*
X101711000Y-70989000D02*
X99711000Y-70989000D01*
X99711000Y-73029000D02*
X101711000Y-73029000D01*
X96028000Y-60456000D02*
X98028000Y-60456000D01*
X98028000Y-58416000D02*
X96028000Y-58416000D01*
X108066080Y-84567840D02*
X106066080Y-84567840D01*
X106066080Y-86607840D02*
X108066080Y-86607840D01*
X118405400Y-85348000D02*
X120405400Y-85348000D01*
X120405400Y-83308000D02*
X118405400Y-83308000D01*
X147812000Y-70608000D02*
X145812000Y-70608000D01*
X145812000Y-72648000D02*
X147812000Y-72648000D01*
X147812000Y-63496000D02*
X145812000Y-63496000D01*
X145812000Y-65536000D02*
X147812000Y-65536000D01*
X147812000Y-67052000D02*
X145812000Y-67052000D01*
X145812000Y-69092000D02*
X147812000Y-69092000D01*
X204708000Y-80768000D02*
X202708000Y-80768000D01*
X202708000Y-82808000D02*
X204708000Y-82808000D01*
X207522000Y-76946000D02*
X207522000Y-74946000D01*
X205482000Y-74946000D02*
X205482000Y-76946000D01*
X205482000Y-67707000D02*
X205482000Y-69707000D01*
X207522000Y-69707000D02*
X207522000Y-67707000D01*
X178800000Y-73148000D02*
X176800000Y-73148000D01*
X176800000Y-75188000D02*
X178800000Y-75188000D01*
X201680000Y-92948000D02*
X201680000Y-90948000D01*
X199640000Y-90948000D02*
X199640000Y-92948000D01*
X86364000Y-82280000D02*
X86364000Y-80280000D01*
X84324000Y-80280000D02*
X84324000Y-82280000D01*
X88388000Y-73168000D02*
X88388000Y-75168000D01*
X90428000Y-75168000D02*
X90428000Y-73168000D01*
X180864000Y-78744000D02*
X182864000Y-78744000D01*
X182864000Y-76704000D02*
X180864000Y-76704000D01*
X96815000Y-73009000D02*
X96815000Y-71009000D01*
X96815000Y-71009000D02*
X92965000Y-71009000D01*
X96815000Y-73009000D02*
X92965000Y-73009000D01*
X105252440Y-81049760D02*
X105252440Y-82749760D01*
X105252440Y-82749760D02*
X108402440Y-82749760D01*
X105252440Y-81049760D02*
X108402440Y-81049760D01*
X114309400Y-84160000D02*
X112309400Y-84160000D01*
X112309400Y-84160000D02*
X112309400Y-88010000D01*
X114309400Y-84160000D02*
X114309400Y-88010000D01*
X124236400Y-89002500D02*
X124236400Y-90702500D01*
X124236400Y-90702500D02*
X127386400Y-90702500D01*
X124236400Y-89002500D02*
X127386400Y-89002500D01*
X128617900Y-89002500D02*
X128617900Y-90702500D01*
X128617900Y-90702500D02*
X131767900Y-90702500D01*
X128617900Y-89002500D02*
X131767900Y-89002500D01*
X100557400Y-115890000D02*
X100557400Y-117790000D01*
X100557400Y-117790000D02*
X105257400Y-117790000D01*
X100557400Y-115890000D02*
X105257400Y-115890000D01*
X109193400Y-115890000D02*
X109193400Y-117790000D01*
X109193400Y-117790000D02*
X113893400Y-117790000D01*
X109193400Y-115890000D02*
X113893400Y-115890000D01*
X132999400Y-89002500D02*
X132999400Y-90702500D01*
X132999400Y-90702500D02*
X136149400Y-90702500D01*
X132999400Y-89002500D02*
X136149400Y-89002500D01*
X137317400Y-89066000D02*
X137317400Y-90766000D01*
X137317400Y-90766000D02*
X140467400Y-90766000D01*
X137317400Y-89066000D02*
X140467400Y-89066000D01*
X141571900Y-89066000D02*
X141571900Y-90766000D01*
X141571900Y-90766000D02*
X144721900Y-90766000D01*
X141571900Y-89066000D02*
X144721900Y-89066000D01*
X145826400Y-89066000D02*
X145826400Y-90766000D01*
X145826400Y-90766000D02*
X148976400Y-90766000D01*
X145826400Y-89066000D02*
X148976400Y-89066000D01*
X150144400Y-89066000D02*
X150144400Y-90766000D01*
X150144400Y-90766000D02*
X153294400Y-90766000D01*
X150144400Y-89066000D02*
X153294400Y-89066000D01*
X117321400Y-115890000D02*
X117321400Y-117790000D01*
X117321400Y-117790000D02*
X122021400Y-117790000D01*
X117321400Y-115890000D02*
X122021400Y-115890000D01*
X125449400Y-115890000D02*
X125449400Y-117790000D01*
X125449400Y-117790000D02*
X130149400Y-117790000D01*
X125449400Y-115890000D02*
X130149400Y-115890000D01*
X133577400Y-115890000D02*
X133577400Y-117790000D01*
X133577400Y-117790000D02*
X138277400Y-117790000D01*
X133577400Y-115890000D02*
X138277400Y-115890000D01*
X141705400Y-115890000D02*
X141705400Y-117790000D01*
X141705400Y-117790000D02*
X146405400Y-117790000D01*
X141705400Y-115890000D02*
X146405400Y-115890000D01*
X149833400Y-115890000D02*
X149833400Y-117790000D01*
X149833400Y-117790000D02*
X154533400Y-117790000D01*
X149833400Y-115890000D02*
X154533400Y-115890000D01*
X154398900Y-89066000D02*
X154398900Y-90766000D01*
X154398900Y-90766000D02*
X157548900Y-90766000D01*
X154398900Y-89066000D02*
X157548900Y-89066000D01*
X158589900Y-89066000D02*
X158589900Y-90766000D01*
X158589900Y-90766000D02*
X161739900Y-90766000D01*
X158589900Y-89066000D02*
X161739900Y-89066000D01*
X162844400Y-89066000D02*
X162844400Y-90766000D01*
X162844400Y-90766000D02*
X165994400Y-90766000D01*
X162844400Y-89066000D02*
X165994400Y-89066000D01*
X167098900Y-89066000D02*
X167098900Y-90766000D01*
X167098900Y-90766000D02*
X170248900Y-90766000D01*
X167098900Y-89066000D02*
X170248900Y-89066000D01*
X171353400Y-89066000D02*
X171353400Y-90766000D01*
X171353400Y-90766000D02*
X174503400Y-90766000D01*
X171353400Y-89066000D02*
X174503400Y-89066000D01*
X157961400Y-115890000D02*
X157961400Y-117790000D01*
X157961400Y-117790000D02*
X162661400Y-117790000D01*
X157961400Y-115890000D02*
X162661400Y-115890000D01*
X166089400Y-115890000D02*
X166089400Y-117790000D01*
X166089400Y-117790000D02*
X170789400Y-117790000D01*
X166089400Y-115890000D02*
X170789400Y-115890000D01*
X174217400Y-115890000D02*
X174217400Y-117790000D01*
X174217400Y-117790000D02*
X178917400Y-117790000D01*
X174217400Y-115890000D02*
X178917400Y-115890000D01*
X182345400Y-115890000D02*
X182345400Y-117790000D01*
X182345400Y-117790000D02*
X187045400Y-117790000D01*
X182345400Y-115890000D02*
X187045400Y-115890000D01*
X190473400Y-115890000D02*
X190473400Y-117790000D01*
X190473400Y-117790000D02*
X195173400Y-117790000D01*
X190473400Y-115890000D02*
X195173400Y-115890000D01*
X210378000Y-68124000D02*
X212278000Y-68124000D01*
X212278000Y-68124000D02*
X212278000Y-63424000D01*
X210378000Y-68124000D02*
X210378000Y-63424000D01*
X214442000Y-68124000D02*
X216342000Y-68124000D01*
X216342000Y-68124000D02*
X216342000Y-63424000D01*
X214442000Y-68124000D02*
X214442000Y-63424000D01*
X218506000Y-68124000D02*
X220406000Y-68124000D01*
X220406000Y-68124000D02*
X220406000Y-63424000D01*
X218506000Y-68124000D02*
X218506000Y-63424000D01*
X154806000Y-63458000D02*
X154806000Y-65658000D01*
X154806000Y-65658000D02*
X153306000Y-65658000D01*
X153306000Y-65658000D02*
X153306000Y-57158000D01*
X153306000Y-57158000D02*
X161106000Y-57158000D01*
X161106000Y-57158000D02*
X161106000Y-65658000D01*
X161106000Y-65658000D02*
X159606000Y-65658000D01*
X159606000Y-65658000D02*
X159606000Y-63458000D01*
X153306000Y-58658000D02*
X154806000Y-58658000D01*
X154806000Y-58658000D02*
X154806000Y-63458000D01*
X154806000Y-63458000D02*
X153306000Y-63458000D01*
X161106000Y-58658000D02*
X159606000Y-58658000D01*
X159606000Y-58658000D02*
X159606000Y-63458000D01*
X159606000Y-63458000D02*
X161106000Y-63458000D01*
X154806000Y-61508000D02*
X159606000Y-61508000D01*
X154806000Y-62508000D02*
X159606000Y-62508000D01*
X155956000Y-61508000D02*
X155636000Y-61508000D01*
X155636000Y-61508000D02*
X155636000Y-58088000D01*
X155636000Y-58088000D02*
X155956000Y-58008000D01*
X155956000Y-58008000D02*
X156276000Y-58088000D01*
X156276000Y-58088000D02*
X156276000Y-61508000D01*
X156276000Y-61508000D02*
X155956000Y-61508000D01*
X158456000Y-61508000D02*
X158136000Y-61508000D01*
X158136000Y-61508000D02*
X158136000Y-58088000D01*
X158136000Y-58088000D02*
X158456000Y-58008000D01*
X158456000Y-58008000D02*
X158776000Y-58088000D01*
X158776000Y-58088000D02*
X158776000Y-61508000D01*
X158776000Y-61508000D02*
X158456000Y-61508000D01*
X155956000Y-65508000D02*
X155656000Y-66108000D01*
X155656000Y-66108000D02*
X156256000Y-66108000D01*
X156256000Y-66108000D02*
X155956000Y-65508000D01*
X98300000Y-63016000D02*
X98300000Y-61316000D01*
X98300000Y-61316000D02*
X104900000Y-61316000D01*
X104900000Y-61316000D02*
X104900000Y-63016000D01*
X104900000Y-66016000D02*
X104900000Y-67716000D01*
X104900000Y-67716000D02*
X98300000Y-67716000D01*
X98300000Y-67716000D02*
X98300000Y-66016000D01*
X98195000Y-80897000D02*
X96495000Y-80897000D01*
X96495000Y-80897000D02*
X96495000Y-74297000D01*
X96495000Y-74297000D02*
X98195000Y-74297000D01*
X101195000Y-74297000D02*
X102895000Y-74297000D01*
X102895000Y-74297000D02*
X102895000Y-80897000D01*
X102895000Y-80897000D02*
X101195000Y-80897000D01*
X111809400Y-82040000D02*
X110109400Y-82040000D01*
X110109400Y-82040000D02*
X110109400Y-75440000D01*
X110109400Y-75440000D02*
X111809400Y-75440000D01*
X114809400Y-75440000D02*
X116509400Y-75440000D01*
X116509400Y-75440000D02*
X116509400Y-82040000D01*
X116509400Y-82040000D02*
X114809400Y-82040000D01*
X118645000Y-103640000D02*
X118645000Y-102980000D01*
X118645000Y-105310000D02*
X118645000Y-104640000D01*
X118645000Y-105300000D02*
X121380000Y-105300000D01*
X120055000Y-102980000D02*
X118645000Y-102980000D01*
X124233000Y-103640000D02*
X124233000Y-102980000D01*
X124233000Y-105310000D02*
X124233000Y-104640000D01*
X124233000Y-105300000D02*
X126968000Y-105300000D01*
X125643000Y-102980000D02*
X124233000Y-102980000D01*
X129821000Y-103640000D02*
X129821000Y-102980000D01*
X129821000Y-105310000D02*
X129821000Y-104640000D01*
X129821000Y-105300000D02*
X132556000Y-105300000D01*
X131231000Y-102980000D02*
X129821000Y-102980000D01*
X135409000Y-103640000D02*
X135409000Y-102980000D01*
X135409000Y-105310000D02*
X135409000Y-104640000D01*
X135409000Y-105300000D02*
X138144000Y-105300000D01*
X136819000Y-102980000D02*
X135409000Y-102980000D01*
X140997000Y-103640000D02*
X140997000Y-102980000D01*
X140997000Y-105310000D02*
X140997000Y-104640000D01*
X140997000Y-105300000D02*
X143732000Y-105300000D01*
X142407000Y-102980000D02*
X140997000Y-102980000D01*
X146585000Y-103640000D02*
X146585000Y-102980000D01*
X146585000Y-105310000D02*
X146585000Y-104640000D01*
X146585000Y-105300000D02*
X149320000Y-105300000D01*
X147995000Y-102980000D02*
X146585000Y-102980000D01*
X152173000Y-103640000D02*
X152173000Y-102980000D01*
X152173000Y-105310000D02*
X152173000Y-104640000D01*
X152173000Y-105300000D02*
X154908000Y-105300000D01*
X153583000Y-102980000D02*
X152173000Y-102980000D01*
X157796560Y-103632380D02*
X157796560Y-102972380D01*
X157796560Y-105302380D02*
X157796560Y-104632380D01*
X157796560Y-105292380D02*
X160531560Y-105292380D01*
X159206560Y-102972380D02*
X157796560Y-102972380D01*
X163349000Y-103640000D02*
X163349000Y-102980000D01*
X163349000Y-105310000D02*
X163349000Y-104640000D01*
X163349000Y-105300000D02*
X166084000Y-105300000D01*
X164759000Y-102980000D02*
X163349000Y-102980000D01*
X168937000Y-103640000D02*
X168937000Y-102980000D01*
X168937000Y-105310000D02*
X168937000Y-104640000D01*
X168937000Y-105300000D02*
X171672000Y-105300000D01*
X170347000Y-102980000D02*
X168937000Y-102980000D01*
X174525000Y-103640000D02*
X174525000Y-102980000D01*
X174525000Y-105310000D02*
X174525000Y-104640000D01*
X174525000Y-105300000D02*
X177260000Y-105300000D01*
X175935000Y-102980000D02*
X174525000Y-102980000D01*
X180113000Y-103640000D02*
X180113000Y-102980000D01*
X180113000Y-105310000D02*
X180113000Y-104640000D01*
X180113000Y-105300000D02*
X182848000Y-105300000D01*
X181523000Y-102980000D02*
X180113000Y-102980000D01*
X77906200Y-114863600D02*
X77906200Y-116363600D01*
X77906200Y-116363600D02*
X78176200Y-116363600D01*
X78176200Y-116363600D02*
X78176200Y-119193600D01*
X84806200Y-114863600D02*
X84806200Y-116363600D01*
X84806200Y-116363600D02*
X84536200Y-116363600D01*
X84536200Y-116363600D02*
X84536200Y-117463600D01*
X131118000Y-67072000D02*
X131118000Y-69072000D01*
X128978000Y-69072000D02*
X128978000Y-67072000D01*
X142916300Y-68646800D02*
X142916300Y-70646800D01*
X140776300Y-70646800D02*
X140776300Y-68646800D01*
X127054000Y-67072000D02*
X127054000Y-69072000D01*
X124914000Y-69072000D02*
X124914000Y-67072000D01*
X122990000Y-67072000D02*
X122990000Y-69072000D01*
X120850000Y-69072000D02*
X120850000Y-67072000D01*
X118926000Y-67072000D02*
X118926000Y-69072000D01*
X116786000Y-69072000D02*
X116786000Y-67072000D01*
X121421400Y-82350000D02*
X119421400Y-82350000D01*
X119421400Y-80210000D02*
X121421400Y-80210000D01*
X134128000Y-62938000D02*
X136128000Y-62938000D01*
X136128000Y-65078000D02*
X134128000Y-65078000D01*
X134128000Y-66494000D02*
X136128000Y-66494000D01*
X136128000Y-68634000D02*
X134128000Y-68634000D01*
X134128000Y-59382000D02*
X136128000Y-59382000D01*
X136128000Y-61522000D02*
X134128000Y-61522000D01*
X177371400Y-95012000D02*
X177371400Y-97012000D01*
X175231400Y-97012000D02*
X175231400Y-95012000D01*
X125047400Y-95012000D02*
X125047400Y-97012000D01*
X122907400Y-97012000D02*
X122907400Y-95012000D01*
X129111400Y-95012000D02*
X129111400Y-97012000D01*
X126971400Y-97012000D02*
X126971400Y-95012000D01*
X100653400Y-112760000D02*
X100653400Y-110760000D01*
X103613400Y-110760000D02*
X103613400Y-112760000D01*
X108781400Y-112760000D02*
X108781400Y-110760000D01*
X111741400Y-110760000D02*
X111741400Y-112760000D01*
X105127400Y-112760000D02*
X105127400Y-110760000D01*
X107267400Y-110760000D02*
X107267400Y-112760000D01*
X113255400Y-112760000D02*
X113255400Y-110760000D01*
X115395400Y-110760000D02*
X115395400Y-112760000D01*
X133683400Y-95012000D02*
X133683400Y-97012000D01*
X131543400Y-97012000D02*
X131543400Y-95012000D01*
X138255400Y-95012000D02*
X138255400Y-97012000D01*
X136115400Y-97012000D02*
X136115400Y-95012000D01*
X142319400Y-95012000D02*
X142319400Y-97012000D01*
X140179400Y-97012000D02*
X140179400Y-95012000D01*
X146891400Y-95012000D02*
X146891400Y-97012000D01*
X144751400Y-97012000D02*
X144751400Y-95012000D01*
X150955400Y-95012000D02*
X150955400Y-97012000D01*
X148815400Y-97012000D02*
X148815400Y-95012000D01*
X116909400Y-112760000D02*
X116909400Y-110760000D01*
X119869400Y-110760000D02*
X119869400Y-112760000D01*
X125037400Y-112760000D02*
X125037400Y-110760000D01*
X127997400Y-110760000D02*
X127997400Y-112760000D01*
X133165400Y-112760000D02*
X133165400Y-110760000D01*
X136125400Y-110760000D02*
X136125400Y-112760000D01*
X141293400Y-112760000D02*
X141293400Y-110760000D01*
X144253400Y-110760000D02*
X144253400Y-112760000D01*
X149421400Y-112760000D02*
X149421400Y-110760000D01*
X152381400Y-110760000D02*
X152381400Y-112760000D01*
X121383400Y-112760000D02*
X121383400Y-110760000D01*
X123523400Y-110760000D02*
X123523400Y-112760000D01*
X129511400Y-112760000D02*
X129511400Y-110760000D01*
X131651400Y-110760000D02*
X131651400Y-112760000D01*
X137639400Y-112760000D02*
X137639400Y-110760000D01*
X139779400Y-110760000D02*
X139779400Y-112760000D01*
X145767400Y-112760000D02*
X145767400Y-110760000D01*
X147907400Y-110760000D02*
X147907400Y-112760000D01*
X153895400Y-112760000D02*
X153895400Y-110760000D01*
X156035400Y-110760000D02*
X156035400Y-112760000D01*
X155527400Y-95012000D02*
X155527400Y-97012000D01*
X153387400Y-97012000D02*
X153387400Y-95012000D01*
X159591400Y-95012000D02*
X159591400Y-97012000D01*
X157451400Y-97012000D02*
X157451400Y-95012000D01*
X163655400Y-95012000D02*
X163655400Y-97012000D01*
X161515400Y-97012000D02*
X161515400Y-95012000D01*
X167719400Y-95012000D02*
X167719400Y-97012000D01*
X165579400Y-97012000D02*
X165579400Y-95012000D01*
X172799400Y-95012000D02*
X172799400Y-97012000D01*
X170659400Y-97012000D02*
X170659400Y-95012000D01*
X157549400Y-112760000D02*
X157549400Y-110760000D01*
X160509400Y-110760000D02*
X160509400Y-112760000D01*
X165677400Y-112760000D02*
X165677400Y-110760000D01*
X168637400Y-110760000D02*
X168637400Y-112760000D01*
X173805400Y-112760000D02*
X173805400Y-110760000D01*
X176765400Y-110760000D02*
X176765400Y-112760000D01*
X181933400Y-112760000D02*
X181933400Y-110760000D01*
X184893400Y-110760000D02*
X184893400Y-112760000D01*
X190061400Y-112760000D02*
X190061400Y-110760000D01*
X193021400Y-110760000D02*
X193021400Y-112760000D01*
X162023400Y-112760000D02*
X162023400Y-110760000D01*
X164163400Y-110760000D02*
X164163400Y-112760000D01*
X170151400Y-112760000D02*
X170151400Y-110760000D01*
X172291400Y-110760000D02*
X172291400Y-112760000D01*
X178279400Y-112760000D02*
X178279400Y-110760000D01*
X180419400Y-110760000D02*
X180419400Y-112760000D01*
X186407400Y-112760000D02*
X186407400Y-110760000D01*
X188547400Y-110760000D02*
X188547400Y-112760000D01*
X194535400Y-112760000D02*
X194535400Y-110760000D01*
X196675400Y-110760000D02*
X196675400Y-112760000D01*
X176292000Y-62938000D02*
X178292000Y-62938000D01*
X178292000Y-65078000D02*
X176292000Y-65078000D01*
X209242000Y-92948000D02*
X209242000Y-90948000D01*
X211382000Y-90948000D02*
X211382000Y-92948000D01*
X204740000Y-61922000D02*
X206740000Y-61922000D01*
X206740000Y-64062000D02*
X204740000Y-64062000D01*
X204740000Y-57858000D02*
X206740000Y-57858000D01*
X206740000Y-59998000D02*
X204740000Y-59998000D01*
X204740000Y-53794000D02*
X206740000Y-53794000D01*
X206740000Y-55934000D02*
X204740000Y-55934000D01*
D12*
X106613000Y-78849000D02*
X107763000Y-78849000D01*
X105838000Y-76599000D02*
X107763000Y-76599000D01*
X92755000Y-66166000D02*
X95205000Y-66166000D01*
X92030000Y-62866000D02*
X95205000Y-62866000D01*
X129809400Y-83541500D02*
X129834400Y-83541500D01*
X129809400Y-78891500D02*
X129916900Y-78891500D01*
X141259400Y-78891500D02*
X141151900Y-78891500D01*
X141259400Y-83541500D02*
X141151900Y-83541500D01*
X129809400Y-83541500D02*
X129809400Y-78891500D01*
X141259400Y-83541500D02*
X141259400Y-78891500D01*
X129834400Y-83541500D02*
X129834400Y-84616500D01*
D11*
X192770000Y-96767000D02*
X194140000Y-96767000D01*
X194140000Y-96767000D02*
X194140000Y-60967000D01*
X194140000Y-60967000D02*
X189400000Y-60967000D01*
X189400000Y-60967000D02*
X189400000Y-96767000D01*
X189400000Y-96767000D02*
X190770000Y-96767000D01*
X190770000Y-96767000D02*
G75*
G02X192770000Y-96767000I1000000J0D01*
G01*
X204575840Y-93171920D02*
X206375840Y-93171920D01*
X206375840Y-89951920D02*
X203425840Y-89951920D01*
X203820000Y-70054000D02*
X203820000Y-76304000D01*
X198770000Y-70054000D02*
X198770000Y-76304000D01*
X198770000Y-70054000D02*
G75*
G02X203820000Y-70054000I2525000J0D01*
G01*
X198770000Y-76304000D02*
G75*
G03X203820000Y-76304000I2525000J0D01*
G01*
X84933200Y-100223600D02*
X84933200Y-98723600D01*
X84933200Y-98723600D02*
X84663200Y-98723600D01*
X84663200Y-98723600D02*
X84663200Y-95893600D01*
X78033200Y-100223600D02*
X78033200Y-98723600D01*
X78033200Y-98723600D02*
X78303200Y-98723600D01*
X78303200Y-98723600D02*
X78303200Y-97623600D01*
D12*
X77173000Y-71085000D02*
X77173000Y-71135000D01*
X81323000Y-71085000D02*
X81323000Y-71230000D01*
X81323000Y-76235000D02*
X81323000Y-76090000D01*
X77173000Y-76235000D02*
X77173000Y-76090000D01*
X77173000Y-71085000D02*
X81323000Y-71085000D01*
X77173000Y-76235000D02*
X81323000Y-76235000D01*
X77173000Y-71135000D02*
X75773000Y-71135000D01*
D11*
X160725500Y-125810100D02*
X160725500Y-123610100D01*
X160725500Y-123610100D02*
X162225500Y-123610100D01*
X162225500Y-123610100D02*
X162225500Y-132110100D01*
X162225500Y-132110100D02*
X126925500Y-132110100D01*
X126925500Y-132110100D02*
X126925500Y-123610100D01*
X126925500Y-123610100D02*
X128425500Y-123610100D01*
X128425500Y-123610100D02*
X128425500Y-125810100D01*
X162225500Y-130610100D02*
X160725500Y-130610100D01*
X160725500Y-130610100D02*
X160725500Y-125810100D01*
X160725500Y-125810100D02*
X162225500Y-125810100D01*
X126925500Y-130610100D02*
X128425500Y-130610100D01*
X128425500Y-130610100D02*
X128425500Y-125810100D01*
X128425500Y-125810100D02*
X126925500Y-125810100D01*
X160725500Y-127760100D02*
X128425500Y-127760100D01*
X160725500Y-126760100D02*
X128425500Y-126760100D01*
X159575500Y-127760100D02*
X159895500Y-127760100D01*
X159895500Y-127760100D02*
X159895500Y-131180100D01*
X159895500Y-131180100D02*
X159575500Y-131260100D01*
X159575500Y-131260100D02*
X159255500Y-131180100D01*
X159255500Y-131180100D02*
X159255500Y-127760100D01*
X159255500Y-127760100D02*
X159575500Y-127760100D01*
X157075500Y-127760100D02*
X157395500Y-127760100D01*
X157395500Y-127760100D02*
X157395500Y-131180100D01*
X157395500Y-131180100D02*
X157075500Y-131260100D01*
X157075500Y-131260100D02*
X156755500Y-131180100D01*
X156755500Y-131180100D02*
X156755500Y-127760100D01*
X156755500Y-127760100D02*
X157075500Y-127760100D01*
X154575500Y-127760100D02*
X154895500Y-127760100D01*
X154895500Y-127760100D02*
X154895500Y-131180100D01*
X154895500Y-131180100D02*
X154575500Y-131260100D01*
X154575500Y-131260100D02*
X154255500Y-131180100D01*
X154255500Y-131180100D02*
X154255500Y-127760100D01*
X154255500Y-127760100D02*
X154575500Y-127760100D01*
X152075500Y-127760100D02*
X152395500Y-127760100D01*
X152395500Y-127760100D02*
X152395500Y-131180100D01*
X152395500Y-131180100D02*
X152075500Y-131260100D01*
X152075500Y-131260100D02*
X151755500Y-131180100D01*
X151755500Y-131180100D02*
X151755500Y-127760100D01*
X151755500Y-127760100D02*
X152075500Y-127760100D01*
X149575500Y-127760100D02*
X149895500Y-127760100D01*
X149895500Y-127760100D02*
X149895500Y-131180100D01*
X149895500Y-131180100D02*
X149575500Y-131260100D01*
X149575500Y-131260100D02*
X149255500Y-131180100D01*
X149255500Y-131180100D02*
X149255500Y-127760100D01*
X149255500Y-127760100D02*
X149575500Y-127760100D01*
X147075500Y-127760100D02*
X147395500Y-127760100D01*
X147395500Y-127760100D02*
X147395500Y-131180100D01*
X147395500Y-131180100D02*
X147075500Y-131260100D01*
X147075500Y-131260100D02*
X146755500Y-131180100D01*
X146755500Y-131180100D02*
X146755500Y-127760100D01*
X146755500Y-127760100D02*
X147075500Y-127760100D01*
X144575500Y-127760100D02*
X144895500Y-127760100D01*
X144895500Y-127760100D02*
X144895500Y-131180100D01*
X144895500Y-131180100D02*
X144575500Y-131260100D01*
X144575500Y-131260100D02*
X144255500Y-131180100D01*
X144255500Y-131180100D02*
X144255500Y-127760100D01*
X144255500Y-127760100D02*
X144575500Y-127760100D01*
X142075500Y-127760100D02*
X142395500Y-127760100D01*
X142395500Y-127760100D02*
X142395500Y-131180100D01*
X142395500Y-131180100D02*
X142075500Y-131260100D01*
X142075500Y-131260100D02*
X141755500Y-131180100D01*
X141755500Y-131180100D02*
X141755500Y-127760100D01*
X141755500Y-127760100D02*
X142075500Y-127760100D01*
X139575500Y-127760100D02*
X139895500Y-127760100D01*
X139895500Y-127760100D02*
X139895500Y-131180100D01*
X139895500Y-131180100D02*
X139575500Y-131260100D01*
X139575500Y-131260100D02*
X139255500Y-131180100D01*
X139255500Y-131180100D02*
X139255500Y-127760100D01*
X139255500Y-127760100D02*
X139575500Y-127760100D01*
X137075500Y-127760100D02*
X137395500Y-127760100D01*
X137395500Y-127760100D02*
X137395500Y-131180100D01*
X137395500Y-131180100D02*
X137075500Y-131260100D01*
X137075500Y-131260100D02*
X136755500Y-131180100D01*
X136755500Y-131180100D02*
X136755500Y-127760100D01*
X136755500Y-127760100D02*
X137075500Y-127760100D01*
X134575500Y-127760100D02*
X134895500Y-127760100D01*
X134895500Y-127760100D02*
X134895500Y-131180100D01*
X134895500Y-131180100D02*
X134575500Y-131260100D01*
X134575500Y-131260100D02*
X134255500Y-131180100D01*
X134255500Y-131180100D02*
X134255500Y-127760100D01*
X134255500Y-127760100D02*
X134575500Y-127760100D01*
X132075500Y-127760100D02*
X132395500Y-127760100D01*
X132395500Y-127760100D02*
X132395500Y-131180100D01*
X132395500Y-131180100D02*
X132075500Y-131260100D01*
X132075500Y-131260100D02*
X131755500Y-131180100D01*
X131755500Y-131180100D02*
X131755500Y-127760100D01*
X131755500Y-127760100D02*
X132075500Y-127760100D01*
X129575500Y-127760100D02*
X129895500Y-127760100D01*
X129895500Y-127760100D02*
X129895500Y-131180100D01*
X129895500Y-131180100D02*
X129575500Y-131260100D01*
X129575500Y-131260100D02*
X129255500Y-131180100D01*
X129255500Y-131180100D02*
X129255500Y-127760100D01*
X129255500Y-127760100D02*
X129575500Y-127760100D01*
X159575500Y-123760100D02*
X159875500Y-123160100D01*
X159875500Y-123160100D02*
X159275500Y-123160100D01*
X159275500Y-123160100D02*
X159575500Y-123760100D01*
X215942000Y-89274000D02*
X213742000Y-89274000D01*
X213742000Y-89274000D02*
X213742000Y-87774000D01*
X213742000Y-87774000D02*
X222242000Y-87774000D01*
X222242000Y-87774000D02*
X222242000Y-95574000D01*
X222242000Y-95574000D02*
X213742000Y-95574000D01*
X213742000Y-95574000D02*
X213742000Y-94074000D01*
X213742000Y-94074000D02*
X215942000Y-94074000D01*
X220742000Y-87774000D02*
X220742000Y-89274000D01*
X220742000Y-89274000D02*
X215942000Y-89274000D01*
X215942000Y-89274000D02*
X215942000Y-87774000D01*
X220742000Y-95574000D02*
X220742000Y-94074000D01*
X220742000Y-94074000D02*
X215942000Y-94074000D01*
X215942000Y-94074000D02*
X215942000Y-95574000D01*
X217892000Y-89274000D02*
X217892000Y-94074000D01*
X216892000Y-89274000D02*
X216892000Y-94074000D01*
X217892000Y-90424000D02*
X217892000Y-90104000D01*
X217892000Y-90104000D02*
X221312000Y-90104000D01*
X221312000Y-90104000D02*
X221392000Y-90424000D01*
X221392000Y-90424000D02*
X221312000Y-90744000D01*
X221312000Y-90744000D02*
X217892000Y-90744000D01*
X217892000Y-90744000D02*
X217892000Y-90424000D01*
X217892000Y-92924000D02*
X217892000Y-92604000D01*
X217892000Y-92604000D02*
X221312000Y-92604000D01*
X221312000Y-92604000D02*
X221392000Y-92924000D01*
X221392000Y-92924000D02*
X221312000Y-93244000D01*
X221312000Y-93244000D02*
X217892000Y-93244000D01*
X217892000Y-93244000D02*
X217892000Y-92924000D01*
X213892000Y-90424000D02*
X213292000Y-90124000D01*
X213292000Y-90124000D02*
X213292000Y-90724000D01*
X213292000Y-90724000D02*
X213892000Y-90424000D01*
X79088600Y-126805600D02*
X79088600Y-129005600D01*
X79088600Y-129005600D02*
X77588600Y-129005600D01*
X77588600Y-129005600D02*
X77588600Y-120505600D01*
X77588600Y-120505600D02*
X85388600Y-120505600D01*
X85388600Y-120505600D02*
X85388600Y-129005600D01*
X85388600Y-129005600D02*
X83888600Y-129005600D01*
X83888600Y-129005600D02*
X83888600Y-126805600D01*
X77588600Y-122005600D02*
X79088600Y-122005600D01*
X79088600Y-122005600D02*
X79088600Y-126805600D01*
X79088600Y-126805600D02*
X77588600Y-126805600D01*
X85388600Y-122005600D02*
X83888600Y-122005600D01*
X83888600Y-122005600D02*
X83888600Y-126805600D01*
X83888600Y-126805600D02*
X85388600Y-126805600D01*
X79088600Y-124855600D02*
X83888600Y-124855600D01*
X79088600Y-125855600D02*
X83888600Y-125855600D01*
X80238600Y-124855600D02*
X79918600Y-124855600D01*
X79918600Y-124855600D02*
X79918600Y-121435600D01*
X79918600Y-121435600D02*
X80238600Y-121355600D01*
X80238600Y-121355600D02*
X80558600Y-121435600D01*
X80558600Y-121435600D02*
X80558600Y-124855600D01*
X80558600Y-124855600D02*
X80238600Y-124855600D01*
X82738600Y-124855600D02*
X82418600Y-124855600D01*
X82418600Y-124855600D02*
X82418600Y-121435600D01*
X82418600Y-121435600D02*
X82738600Y-121355600D01*
X82738600Y-121355600D02*
X83058600Y-121435600D01*
X83058600Y-121435600D02*
X83058600Y-124855600D01*
X83058600Y-124855600D02*
X82738600Y-124855600D01*
X80238600Y-128855600D02*
X79938600Y-129455600D01*
X79938600Y-129455600D02*
X80538600Y-129455600D01*
X80538600Y-129455600D02*
X80238600Y-128855600D01*
X76574000Y-63458000D02*
X76574000Y-65658000D01*
X76574000Y-65658000D02*
X75074000Y-65658000D01*
X75074000Y-65658000D02*
X75074000Y-57158000D01*
X75074000Y-57158000D02*
X82874000Y-57158000D01*
X82874000Y-57158000D02*
X82874000Y-65658000D01*
X82874000Y-65658000D02*
X81374000Y-65658000D01*
X81374000Y-65658000D02*
X81374000Y-63458000D01*
X75074000Y-58658000D02*
X76574000Y-58658000D01*
X76574000Y-58658000D02*
X76574000Y-63458000D01*
X76574000Y-63458000D02*
X75074000Y-63458000D01*
X82874000Y-58658000D02*
X81374000Y-58658000D01*
X81374000Y-58658000D02*
X81374000Y-63458000D01*
X81374000Y-63458000D02*
X82874000Y-63458000D01*
X76574000Y-61508000D02*
X81374000Y-61508000D01*
X76574000Y-62508000D02*
X81374000Y-62508000D01*
X77724000Y-61508000D02*
X77404000Y-61508000D01*
X77404000Y-61508000D02*
X77404000Y-58088000D01*
X77404000Y-58088000D02*
X77724000Y-58008000D01*
X77724000Y-58008000D02*
X78044000Y-58088000D01*
X78044000Y-58088000D02*
X78044000Y-61508000D01*
X78044000Y-61508000D02*
X77724000Y-61508000D01*
X80224000Y-61508000D02*
X79904000Y-61508000D01*
X79904000Y-61508000D02*
X79904000Y-58088000D01*
X79904000Y-58088000D02*
X80224000Y-58008000D01*
X80224000Y-58008000D02*
X80544000Y-58088000D01*
X80544000Y-58088000D02*
X80544000Y-61508000D01*
X80544000Y-61508000D02*
X80224000Y-61508000D01*
X77724000Y-65508000D02*
X77424000Y-66108000D01*
X77424000Y-66108000D02*
X78024000Y-66108000D01*
X78024000Y-66108000D02*
X77724000Y-65508000D01*
D12*
X172819240Y-65959280D02*
X172819240Y-66009280D01*
X176969240Y-65959280D02*
X176969240Y-66104280D01*
X176969240Y-71109280D02*
X176969240Y-70964280D01*
X172819240Y-71109280D02*
X172819240Y-70964280D01*
X172819240Y-65959280D02*
X176969240Y-65959280D01*
X172819240Y-71109280D02*
X176969240Y-71109280D01*
X172819240Y-66009280D02*
X171419240Y-66009280D01*
D11*
X98713800Y-101102600D02*
X96713800Y-101102600D01*
X96713800Y-101102600D02*
X96713800Y-105002600D01*
X98713800Y-101102600D02*
X98713800Y-105002600D01*
D12*
X89923800Y-98237600D02*
X89923800Y-98287600D01*
X94073800Y-98237600D02*
X94073800Y-98382600D01*
X94073800Y-103387600D02*
X94073800Y-103242600D01*
X89923800Y-103387600D02*
X89923800Y-103242600D01*
X89923800Y-98237600D02*
X94073800Y-98237600D01*
X89923800Y-103387600D02*
X94073800Y-103387600D01*
X89923800Y-98287600D02*
X88523800Y-98287600D01*
D11*
X204708000Y-87255800D02*
X202708000Y-87255800D01*
X202708000Y-84295800D02*
X204708000Y-84295800D01*
D12*
X89991143Y-66714666D02*
X90038762Y-66762285D01*
X90086381Y-66905142D01*
X90086381Y-67000380D01*
X90038762Y-67143238D01*
X89943524Y-67238476D01*
X89848286Y-67286095D01*
X89657810Y-67333714D01*
X89514952Y-67333714D01*
X89324476Y-67286095D01*
X89229238Y-67238476D01*
X89134000Y-67143238D01*
X89086381Y-67000380D01*
X89086381Y-66905142D01*
X89134000Y-66762285D01*
X89181619Y-66714666D01*
X90086381Y-65762285D02*
X90086381Y-66333714D01*
X90086381Y-66048000D02*
X89086381Y-66048000D01*
X89229238Y-66143238D01*
X89324476Y-66238476D01*
X89372095Y-66333714D01*
X100544334Y-70616143D02*
X100496715Y-70663762D01*
X100353858Y-70711381D01*
X100258620Y-70711381D01*
X100115762Y-70663762D01*
X100020524Y-70568524D01*
X99972905Y-70473286D01*
X99925286Y-70282810D01*
X99925286Y-70139952D01*
X99972905Y-69949476D01*
X100020524Y-69854238D01*
X100115762Y-69759000D01*
X100258620Y-69711381D01*
X100353858Y-69711381D01*
X100496715Y-69759000D01*
X100544334Y-69806619D01*
X100925286Y-69806619D02*
X100972905Y-69759000D01*
X101068143Y-69711381D01*
X101306239Y-69711381D01*
X101401477Y-69759000D01*
X101449096Y-69806619D01*
X101496715Y-69901857D01*
X101496715Y-69997095D01*
X101449096Y-70139952D01*
X100877667Y-70711381D01*
X101496715Y-70711381D01*
X96861334Y-61543143D02*
X96813715Y-61590762D01*
X96670858Y-61638381D01*
X96575620Y-61638381D01*
X96432762Y-61590762D01*
X96337524Y-61495524D01*
X96289905Y-61400286D01*
X96242286Y-61209810D01*
X96242286Y-61066952D01*
X96289905Y-60876476D01*
X96337524Y-60781238D01*
X96432762Y-60686000D01*
X96575620Y-60638381D01*
X96670858Y-60638381D01*
X96813715Y-60686000D01*
X96861334Y-60733619D01*
X97194667Y-60638381D02*
X97813715Y-60638381D01*
X97480381Y-61019333D01*
X97623239Y-61019333D01*
X97718477Y-61066952D01*
X97766096Y-61114571D01*
X97813715Y-61209810D01*
X97813715Y-61447905D01*
X97766096Y-61543143D01*
X97718477Y-61590762D01*
X97623239Y-61638381D01*
X97337524Y-61638381D01*
X97242286Y-61590762D01*
X97194667Y-61543143D01*
X106899414Y-84194983D02*
X106851795Y-84242602D01*
X106708938Y-84290221D01*
X106613700Y-84290221D01*
X106470842Y-84242602D01*
X106375604Y-84147364D01*
X106327985Y-84052126D01*
X106280366Y-83861650D01*
X106280366Y-83718792D01*
X106327985Y-83528316D01*
X106375604Y-83433078D01*
X106470842Y-83337840D01*
X106613700Y-83290221D01*
X106708938Y-83290221D01*
X106851795Y-83337840D01*
X106899414Y-83385459D01*
X107756557Y-83623554D02*
X107756557Y-84290221D01*
X107518461Y-83242602D02*
X107280366Y-83956888D01*
X107899414Y-83956888D01*
X119238734Y-86435143D02*
X119191115Y-86482762D01*
X119048258Y-86530381D01*
X118953020Y-86530381D01*
X118810162Y-86482762D01*
X118714924Y-86387524D01*
X118667305Y-86292286D01*
X118619686Y-86101810D01*
X118619686Y-85958952D01*
X118667305Y-85768476D01*
X118714924Y-85673238D01*
X118810162Y-85578000D01*
X118953020Y-85530381D01*
X119048258Y-85530381D01*
X119191115Y-85578000D01*
X119238734Y-85625619D01*
X120143496Y-85530381D02*
X119667305Y-85530381D01*
X119619686Y-86006571D01*
X119667305Y-85958952D01*
X119762543Y-85911333D01*
X120000639Y-85911333D01*
X120095877Y-85958952D01*
X120143496Y-86006571D01*
X120191115Y-86101810D01*
X120191115Y-86339905D01*
X120143496Y-86435143D01*
X120095877Y-86482762D01*
X120000639Y-86530381D01*
X119762543Y-86530381D01*
X119667305Y-86482762D01*
X119619686Y-86435143D01*
X146645334Y-70235143D02*
X146597715Y-70282762D01*
X146454858Y-70330381D01*
X146359620Y-70330381D01*
X146216762Y-70282762D01*
X146121524Y-70187524D01*
X146073905Y-70092286D01*
X146026286Y-69901810D01*
X146026286Y-69758952D01*
X146073905Y-69568476D01*
X146121524Y-69473238D01*
X146216762Y-69378000D01*
X146359620Y-69330381D01*
X146454858Y-69330381D01*
X146597715Y-69378000D01*
X146645334Y-69425619D01*
X147502477Y-69330381D02*
X147312000Y-69330381D01*
X147216762Y-69378000D01*
X147169143Y-69425619D01*
X147073905Y-69568476D01*
X147026286Y-69758952D01*
X147026286Y-70139905D01*
X147073905Y-70235143D01*
X147121524Y-70282762D01*
X147216762Y-70330381D01*
X147407239Y-70330381D01*
X147502477Y-70282762D01*
X147550096Y-70235143D01*
X147597715Y-70139905D01*
X147597715Y-69901810D01*
X147550096Y-69806571D01*
X147502477Y-69758952D01*
X147407239Y-69711333D01*
X147216762Y-69711333D01*
X147121524Y-69758952D01*
X147073905Y-69806571D01*
X147026286Y-69901810D01*
X146645334Y-63123143D02*
X146597715Y-63170762D01*
X146454858Y-63218381D01*
X146359620Y-63218381D01*
X146216762Y-63170762D01*
X146121524Y-63075524D01*
X146073905Y-62980286D01*
X146026286Y-62789810D01*
X146026286Y-62646952D01*
X146073905Y-62456476D01*
X146121524Y-62361238D01*
X146216762Y-62266000D01*
X146359620Y-62218381D01*
X146454858Y-62218381D01*
X146597715Y-62266000D01*
X146645334Y-62313619D01*
X146978667Y-62218381D02*
X147645334Y-62218381D01*
X147216762Y-63218381D01*
X146645334Y-66679143D02*
X146597715Y-66726762D01*
X146454858Y-66774381D01*
X146359620Y-66774381D01*
X146216762Y-66726762D01*
X146121524Y-66631524D01*
X146073905Y-66536286D01*
X146026286Y-66345810D01*
X146026286Y-66202952D01*
X146073905Y-66012476D01*
X146121524Y-65917238D01*
X146216762Y-65822000D01*
X146359620Y-65774381D01*
X146454858Y-65774381D01*
X146597715Y-65822000D01*
X146645334Y-65869619D01*
X147216762Y-66202952D02*
X147121524Y-66155333D01*
X147073905Y-66107714D01*
X147026286Y-66012476D01*
X147026286Y-65964857D01*
X147073905Y-65869619D01*
X147121524Y-65822000D01*
X147216762Y-65774381D01*
X147407239Y-65774381D01*
X147502477Y-65822000D01*
X147550096Y-65869619D01*
X147597715Y-65964857D01*
X147597715Y-66012476D01*
X147550096Y-66107714D01*
X147502477Y-66155333D01*
X147407239Y-66202952D01*
X147216762Y-66202952D01*
X147121524Y-66250571D01*
X147073905Y-66298190D01*
X147026286Y-66393429D01*
X147026286Y-66583905D01*
X147073905Y-66679143D01*
X147121524Y-66726762D01*
X147216762Y-66774381D01*
X147407239Y-66774381D01*
X147502477Y-66726762D01*
X147550096Y-66679143D01*
X147597715Y-66583905D01*
X147597715Y-66393429D01*
X147550096Y-66298190D01*
X147502477Y-66250571D01*
X147407239Y-66202952D01*
X203065143Y-80395143D02*
X203017524Y-80442762D01*
X202874667Y-80490381D01*
X202779429Y-80490381D01*
X202636571Y-80442762D01*
X202541333Y-80347524D01*
X202493714Y-80252286D01*
X202446095Y-80061810D01*
X202446095Y-79918952D01*
X202493714Y-79728476D01*
X202541333Y-79633238D01*
X202636571Y-79538000D01*
X202779429Y-79490381D01*
X202874667Y-79490381D01*
X203017524Y-79538000D01*
X203065143Y-79585619D01*
X203446095Y-79585619D02*
X203493714Y-79538000D01*
X203588952Y-79490381D01*
X203827048Y-79490381D01*
X203922286Y-79538000D01*
X203969905Y-79585619D01*
X204017524Y-79680857D01*
X204017524Y-79776095D01*
X203969905Y-79918952D01*
X203398476Y-80490381D01*
X204017524Y-80490381D01*
X204398476Y-79585619D02*
X204446095Y-79538000D01*
X204541333Y-79490381D01*
X204779429Y-79490381D01*
X204874667Y-79538000D01*
X204922286Y-79585619D01*
X204969905Y-79680857D01*
X204969905Y-79776095D01*
X204922286Y-79918952D01*
X204350857Y-80490381D01*
X204969905Y-80490381D01*
X208609143Y-76588857D02*
X208656762Y-76636476D01*
X208704381Y-76779333D01*
X208704381Y-76874571D01*
X208656762Y-77017429D01*
X208561524Y-77112667D01*
X208466286Y-77160286D01*
X208275810Y-77207905D01*
X208132952Y-77207905D01*
X207942476Y-77160286D01*
X207847238Y-77112667D01*
X207752000Y-77017429D01*
X207704381Y-76874571D01*
X207704381Y-76779333D01*
X207752000Y-76636476D01*
X207799619Y-76588857D01*
X207799619Y-76207905D02*
X207752000Y-76160286D01*
X207704381Y-76065048D01*
X207704381Y-75826952D01*
X207752000Y-75731714D01*
X207799619Y-75684095D01*
X207894857Y-75636476D01*
X207990095Y-75636476D01*
X208132952Y-75684095D01*
X208704381Y-76255524D01*
X208704381Y-75636476D01*
X207704381Y-75303143D02*
X207704381Y-74684095D01*
X208085333Y-75017429D01*
X208085333Y-74874571D01*
X208132952Y-74779333D01*
X208180571Y-74731714D01*
X208275810Y-74684095D01*
X208513905Y-74684095D01*
X208609143Y-74731714D01*
X208656762Y-74779333D01*
X208704381Y-74874571D01*
X208704381Y-75160286D01*
X208656762Y-75255524D01*
X208609143Y-75303143D01*
X205109143Y-69349857D02*
X205156762Y-69397476D01*
X205204381Y-69540333D01*
X205204381Y-69635571D01*
X205156762Y-69778429D01*
X205061524Y-69873667D01*
X204966286Y-69921286D01*
X204775810Y-69968905D01*
X204632952Y-69968905D01*
X204442476Y-69921286D01*
X204347238Y-69873667D01*
X204252000Y-69778429D01*
X204204381Y-69635571D01*
X204204381Y-69540333D01*
X204252000Y-69397476D01*
X204299619Y-69349857D01*
X204299619Y-68968905D02*
X204252000Y-68921286D01*
X204204381Y-68826048D01*
X204204381Y-68587952D01*
X204252000Y-68492714D01*
X204299619Y-68445095D01*
X204394857Y-68397476D01*
X204490095Y-68397476D01*
X204632952Y-68445095D01*
X205204381Y-69016524D01*
X205204381Y-68397476D01*
X204537714Y-67540333D02*
X205204381Y-67540333D01*
X204156762Y-67778429D02*
X204871048Y-68016524D01*
X204871048Y-67397476D01*
X177157143Y-72775143D02*
X177109524Y-72822762D01*
X176966667Y-72870381D01*
X176871429Y-72870381D01*
X176728571Y-72822762D01*
X176633333Y-72727524D01*
X176585714Y-72632286D01*
X176538095Y-72441810D01*
X176538095Y-72298952D01*
X176585714Y-72108476D01*
X176633333Y-72013238D01*
X176728571Y-71918000D01*
X176871429Y-71870381D01*
X176966667Y-71870381D01*
X177109524Y-71918000D01*
X177157143Y-71965619D01*
X177538095Y-71965619D02*
X177585714Y-71918000D01*
X177680952Y-71870381D01*
X177919048Y-71870381D01*
X178014286Y-71918000D01*
X178061905Y-71965619D01*
X178109524Y-72060857D01*
X178109524Y-72156095D01*
X178061905Y-72298952D01*
X177490476Y-72870381D01*
X178109524Y-72870381D01*
X179014286Y-71870381D02*
X178538095Y-71870381D01*
X178490476Y-72346571D01*
X178538095Y-72298952D01*
X178633333Y-72251333D01*
X178871429Y-72251333D01*
X178966667Y-72298952D01*
X179014286Y-72346571D01*
X179061905Y-72441810D01*
X179061905Y-72679905D01*
X179014286Y-72775143D01*
X178966667Y-72822762D01*
X178871429Y-72870381D01*
X178633333Y-72870381D01*
X178538095Y-72822762D01*
X178490476Y-72775143D01*
X202767143Y-92590857D02*
X202814762Y-92638476D01*
X202862381Y-92781333D01*
X202862381Y-92876571D01*
X202814762Y-93019429D01*
X202719524Y-93114667D01*
X202624286Y-93162286D01*
X202433810Y-93209905D01*
X202290952Y-93209905D01*
X202100476Y-93162286D01*
X202005238Y-93114667D01*
X201910000Y-93019429D01*
X201862381Y-92876571D01*
X201862381Y-92781333D01*
X201910000Y-92638476D01*
X201957619Y-92590857D01*
X201957619Y-92209905D02*
X201910000Y-92162286D01*
X201862381Y-92067048D01*
X201862381Y-91828952D01*
X201910000Y-91733714D01*
X201957619Y-91686095D01*
X202052857Y-91638476D01*
X202148095Y-91638476D01*
X202290952Y-91686095D01*
X202862381Y-92257524D01*
X202862381Y-91638476D01*
X201862381Y-90781333D02*
X201862381Y-90971810D01*
X201910000Y-91067048D01*
X201957619Y-91114667D01*
X202100476Y-91209905D01*
X202290952Y-91257524D01*
X202671905Y-91257524D01*
X202767143Y-91209905D01*
X202814762Y-91162286D01*
X202862381Y-91067048D01*
X202862381Y-90876571D01*
X202814762Y-90781333D01*
X202767143Y-90733714D01*
X202671905Y-90686095D01*
X202433810Y-90686095D01*
X202338571Y-90733714D01*
X202290952Y-90781333D01*
X202243333Y-90876571D01*
X202243333Y-91067048D01*
X202290952Y-91162286D01*
X202338571Y-91209905D01*
X202433810Y-91257524D01*
X87451143Y-81922857D02*
X87498762Y-81970476D01*
X87546381Y-82113333D01*
X87546381Y-82208571D01*
X87498762Y-82351429D01*
X87403524Y-82446667D01*
X87308286Y-82494286D01*
X87117810Y-82541905D01*
X86974952Y-82541905D01*
X86784476Y-82494286D01*
X86689238Y-82446667D01*
X86594000Y-82351429D01*
X86546381Y-82208571D01*
X86546381Y-82113333D01*
X86594000Y-81970476D01*
X86641619Y-81922857D01*
X86641619Y-81541905D02*
X86594000Y-81494286D01*
X86546381Y-81399048D01*
X86546381Y-81160952D01*
X86594000Y-81065714D01*
X86641619Y-81018095D01*
X86736857Y-80970476D01*
X86832095Y-80970476D01*
X86974952Y-81018095D01*
X87546381Y-81589524D01*
X87546381Y-80970476D01*
X86974952Y-80399048D02*
X86927333Y-80494286D01*
X86879714Y-80541905D01*
X86784476Y-80589524D01*
X86736857Y-80589524D01*
X86641619Y-80541905D01*
X86594000Y-80494286D01*
X86546381Y-80399048D01*
X86546381Y-80208571D01*
X86594000Y-80113333D01*
X86641619Y-80065714D01*
X86736857Y-80018095D01*
X86784476Y-80018095D01*
X86879714Y-80065714D01*
X86927333Y-80113333D01*
X86974952Y-80208571D01*
X86974952Y-80399048D01*
X87022571Y-80494286D01*
X87070190Y-80541905D01*
X87165429Y-80589524D01*
X87355905Y-80589524D01*
X87451143Y-80541905D01*
X87498762Y-80494286D01*
X87546381Y-80399048D01*
X87546381Y-80208571D01*
X87498762Y-80113333D01*
X87451143Y-80065714D01*
X87355905Y-80018095D01*
X87165429Y-80018095D01*
X87070190Y-80065714D01*
X87022571Y-80113333D01*
X86974952Y-80208571D01*
X88015143Y-74810857D02*
X88062762Y-74858476D01*
X88110381Y-75001333D01*
X88110381Y-75096571D01*
X88062762Y-75239429D01*
X87967524Y-75334667D01*
X87872286Y-75382286D01*
X87681810Y-75429905D01*
X87538952Y-75429905D01*
X87348476Y-75382286D01*
X87253238Y-75334667D01*
X87158000Y-75239429D01*
X87110381Y-75096571D01*
X87110381Y-75001333D01*
X87158000Y-74858476D01*
X87205619Y-74810857D01*
X87205619Y-74429905D02*
X87158000Y-74382286D01*
X87110381Y-74287048D01*
X87110381Y-74048952D01*
X87158000Y-73953714D01*
X87205619Y-73906095D01*
X87300857Y-73858476D01*
X87396095Y-73858476D01*
X87538952Y-73906095D01*
X88110381Y-74477524D01*
X88110381Y-73858476D01*
X88110381Y-73382286D02*
X88110381Y-73191810D01*
X88062762Y-73096571D01*
X88015143Y-73048952D01*
X87872286Y-72953714D01*
X87681810Y-72906095D01*
X87300857Y-72906095D01*
X87205619Y-72953714D01*
X87158000Y-73001333D01*
X87110381Y-73096571D01*
X87110381Y-73287048D01*
X87158000Y-73382286D01*
X87205619Y-73429905D01*
X87300857Y-73477524D01*
X87538952Y-73477524D01*
X87634190Y-73429905D01*
X87681810Y-73382286D01*
X87729429Y-73287048D01*
X87729429Y-73096571D01*
X87681810Y-73001333D01*
X87634190Y-72953714D01*
X87538952Y-72906095D01*
X181221143Y-79831143D02*
X181173524Y-79878762D01*
X181030667Y-79926381D01*
X180935429Y-79926381D01*
X180792571Y-79878762D01*
X180697333Y-79783524D01*
X180649714Y-79688286D01*
X180602095Y-79497810D01*
X180602095Y-79354952D01*
X180649714Y-79164476D01*
X180697333Y-79069238D01*
X180792571Y-78974000D01*
X180935429Y-78926381D01*
X181030667Y-78926381D01*
X181173524Y-78974000D01*
X181221143Y-79021619D01*
X181554476Y-78926381D02*
X182173524Y-78926381D01*
X181840190Y-79307333D01*
X181983048Y-79307333D01*
X182078286Y-79354952D01*
X182125905Y-79402571D01*
X182173524Y-79497810D01*
X182173524Y-79735905D01*
X182125905Y-79831143D01*
X182078286Y-79878762D01*
X181983048Y-79926381D01*
X181697333Y-79926381D01*
X181602095Y-79878762D01*
X181554476Y-79831143D01*
X182792571Y-78926381D02*
X182887810Y-78926381D01*
X182983048Y-78974000D01*
X183030667Y-79021619D01*
X183078286Y-79116857D01*
X183125905Y-79307333D01*
X183125905Y-79545429D01*
X183078286Y-79735905D01*
X183030667Y-79831143D01*
X182983048Y-79878762D01*
X182887810Y-79926381D01*
X182792571Y-79926381D01*
X182697333Y-79878762D01*
X182649714Y-79831143D01*
X182602095Y-79735905D01*
X182554476Y-79545429D01*
X182554476Y-79307333D01*
X182602095Y-79116857D01*
X182649714Y-79021619D01*
X182697333Y-78974000D01*
X182792571Y-78926381D01*
X94003905Y-74366381D02*
X94003905Y-73366381D01*
X94242000Y-73366381D01*
X94384858Y-73414000D01*
X94480096Y-73509238D01*
X94527715Y-73604476D01*
X94575334Y-73794952D01*
X94575334Y-73937810D01*
X94527715Y-74128286D01*
X94480096Y-74223524D01*
X94384858Y-74318762D01*
X94242000Y-74366381D01*
X94003905Y-74366381D01*
X95527715Y-74366381D02*
X94956286Y-74366381D01*
X95242000Y-74366381D02*
X95242000Y-73366381D01*
X95146762Y-73509238D01*
X95051524Y-73604476D01*
X94956286Y-73652095D01*
X106414345Y-80502141D02*
X106414345Y-79502141D01*
X106652440Y-79502141D01*
X106795298Y-79549760D01*
X106890536Y-79644998D01*
X106938155Y-79740236D01*
X106985774Y-79930712D01*
X106985774Y-80073570D01*
X106938155Y-80264046D01*
X106890536Y-80359284D01*
X106795298Y-80454522D01*
X106652440Y-80502141D01*
X106414345Y-80502141D01*
X107366726Y-79597379D02*
X107414345Y-79549760D01*
X107509583Y-79502141D01*
X107747679Y-79502141D01*
X107842917Y-79549760D01*
X107890536Y-79597379D01*
X107938155Y-79692617D01*
X107938155Y-79787855D01*
X107890536Y-79930712D01*
X107319107Y-80502141D01*
X107938155Y-80502141D01*
X115666781Y-86971095D02*
X114666781Y-86971095D01*
X114666781Y-86733000D01*
X114714400Y-86590142D01*
X114809638Y-86494904D01*
X114904876Y-86447285D01*
X115095352Y-86399666D01*
X115238210Y-86399666D01*
X115428686Y-86447285D01*
X115523924Y-86494904D01*
X115619162Y-86590142D01*
X115666781Y-86733000D01*
X115666781Y-86971095D01*
X114666781Y-86066333D02*
X114666781Y-85447285D01*
X115047733Y-85780619D01*
X115047733Y-85637761D01*
X115095352Y-85542523D01*
X115142971Y-85494904D01*
X115238210Y-85447285D01*
X115476305Y-85447285D01*
X115571543Y-85494904D01*
X115619162Y-85542523D01*
X115666781Y-85637761D01*
X115666781Y-85923476D01*
X115619162Y-86018714D01*
X115571543Y-86066333D01*
X122223305Y-90177881D02*
X122223305Y-89177881D01*
X122461400Y-89177881D01*
X122604258Y-89225500D01*
X122699496Y-89320738D01*
X122747115Y-89415976D01*
X122794734Y-89606452D01*
X122794734Y-89749310D01*
X122747115Y-89939786D01*
X122699496Y-90035024D01*
X122604258Y-90130262D01*
X122461400Y-90177881D01*
X122223305Y-90177881D01*
X123651877Y-89511214D02*
X123651877Y-90177881D01*
X123413781Y-89130262D02*
X123175686Y-89844548D01*
X123794734Y-89844548D01*
X129652805Y-88780881D02*
X129652805Y-87780881D01*
X129890900Y-87780881D01*
X130033758Y-87828500D01*
X130128996Y-87923738D01*
X130176615Y-88018976D01*
X130224234Y-88209452D01*
X130224234Y-88352310D01*
X130176615Y-88542786D01*
X130128996Y-88638024D01*
X130033758Y-88733262D01*
X129890900Y-88780881D01*
X129652805Y-88780881D01*
X131128996Y-87780881D02*
X130652805Y-87780881D01*
X130605186Y-88257071D01*
X130652805Y-88209452D01*
X130748043Y-88161833D01*
X130986139Y-88161833D01*
X131081377Y-88209452D01*
X131128996Y-88257071D01*
X131176615Y-88352310D01*
X131176615Y-88590405D01*
X131128996Y-88685643D01*
X131081377Y-88733262D01*
X130986139Y-88780881D01*
X130748043Y-88780881D01*
X130652805Y-88733262D01*
X130605186Y-88685643D01*
X102919305Y-119324381D02*
X102919305Y-118324381D01*
X103157400Y-118324381D01*
X103300258Y-118372000D01*
X103395496Y-118467238D01*
X103443115Y-118562476D01*
X103490734Y-118752952D01*
X103490734Y-118895810D01*
X103443115Y-119086286D01*
X103395496Y-119181524D01*
X103300258Y-119276762D01*
X103157400Y-119324381D01*
X102919305Y-119324381D01*
X104347877Y-118324381D02*
X104157400Y-118324381D01*
X104062162Y-118372000D01*
X104014543Y-118419619D01*
X103919305Y-118562476D01*
X103871686Y-118752952D01*
X103871686Y-119133905D01*
X103919305Y-119229143D01*
X103966924Y-119276762D01*
X104062162Y-119324381D01*
X104252639Y-119324381D01*
X104347877Y-119276762D01*
X104395496Y-119229143D01*
X104443115Y-119133905D01*
X104443115Y-118895810D01*
X104395496Y-118800571D01*
X104347877Y-118752952D01*
X104252639Y-118705333D01*
X104062162Y-118705333D01*
X103966924Y-118752952D01*
X103919305Y-118800571D01*
X103871686Y-118895810D01*
X111555305Y-119324381D02*
X111555305Y-118324381D01*
X111793400Y-118324381D01*
X111936258Y-118372000D01*
X112031496Y-118467238D01*
X112079115Y-118562476D01*
X112126734Y-118752952D01*
X112126734Y-118895810D01*
X112079115Y-119086286D01*
X112031496Y-119181524D01*
X111936258Y-119276762D01*
X111793400Y-119324381D01*
X111555305Y-119324381D01*
X112460067Y-118324381D02*
X113126734Y-118324381D01*
X112698162Y-119324381D01*
X134034305Y-88717381D02*
X134034305Y-87717381D01*
X134272400Y-87717381D01*
X134415258Y-87765000D01*
X134510496Y-87860238D01*
X134558115Y-87955476D01*
X134605734Y-88145952D01*
X134605734Y-88288810D01*
X134558115Y-88479286D01*
X134510496Y-88574524D01*
X134415258Y-88669762D01*
X134272400Y-88717381D01*
X134034305Y-88717381D01*
X135177162Y-88145952D02*
X135081924Y-88098333D01*
X135034305Y-88050714D01*
X134986686Y-87955476D01*
X134986686Y-87907857D01*
X135034305Y-87812619D01*
X135081924Y-87765000D01*
X135177162Y-87717381D01*
X135367639Y-87717381D01*
X135462877Y-87765000D01*
X135510496Y-87812619D01*
X135558115Y-87907857D01*
X135558115Y-87955476D01*
X135510496Y-88050714D01*
X135462877Y-88098333D01*
X135367639Y-88145952D01*
X135177162Y-88145952D01*
X135081924Y-88193571D01*
X135034305Y-88241190D01*
X134986686Y-88336429D01*
X134986686Y-88526905D01*
X135034305Y-88622143D01*
X135081924Y-88669762D01*
X135177162Y-88717381D01*
X135367639Y-88717381D01*
X135462877Y-88669762D01*
X135510496Y-88622143D01*
X135558115Y-88526905D01*
X135558115Y-88336429D01*
X135510496Y-88241190D01*
X135462877Y-88193571D01*
X135367639Y-88145952D01*
X138415805Y-88844381D02*
X138415805Y-87844381D01*
X138653900Y-87844381D01*
X138796758Y-87892000D01*
X138891996Y-87987238D01*
X138939615Y-88082476D01*
X138987234Y-88272952D01*
X138987234Y-88415810D01*
X138939615Y-88606286D01*
X138891996Y-88701524D01*
X138796758Y-88796762D01*
X138653900Y-88844381D01*
X138415805Y-88844381D01*
X139463424Y-88844381D02*
X139653900Y-88844381D01*
X139749139Y-88796762D01*
X139796758Y-88749143D01*
X139891996Y-88606286D01*
X139939615Y-88415810D01*
X139939615Y-88034857D01*
X139891996Y-87939619D01*
X139844377Y-87892000D01*
X139749139Y-87844381D01*
X139558662Y-87844381D01*
X139463424Y-87892000D01*
X139415805Y-87939619D01*
X139368186Y-88034857D01*
X139368186Y-88272952D01*
X139415805Y-88368190D01*
X139463424Y-88415810D01*
X139558662Y-88463429D01*
X139749139Y-88463429D01*
X139844377Y-88415810D01*
X139891996Y-88368190D01*
X139939615Y-88272952D01*
X142321114Y-88844381D02*
X142321114Y-87844381D01*
X142559209Y-87844381D01*
X142702067Y-87892000D01*
X142797305Y-87987238D01*
X142844924Y-88082476D01*
X142892543Y-88272952D01*
X142892543Y-88415810D01*
X142844924Y-88606286D01*
X142797305Y-88701524D01*
X142702067Y-88796762D01*
X142559209Y-88844381D01*
X142321114Y-88844381D01*
X143844924Y-88844381D02*
X143273495Y-88844381D01*
X143559209Y-88844381D02*
X143559209Y-87844381D01*
X143463971Y-87987238D01*
X143368733Y-88082476D01*
X143273495Y-88130095D01*
X144463971Y-87844381D02*
X144559210Y-87844381D01*
X144654448Y-87892000D01*
X144702067Y-87939619D01*
X144749686Y-88034857D01*
X144797305Y-88225333D01*
X144797305Y-88463429D01*
X144749686Y-88653905D01*
X144702067Y-88749143D01*
X144654448Y-88796762D01*
X144559210Y-88844381D01*
X144463971Y-88844381D01*
X144368733Y-88796762D01*
X144321114Y-88749143D01*
X144273495Y-88653905D01*
X144225876Y-88463429D01*
X144225876Y-88225333D01*
X144273495Y-88034857D01*
X144321114Y-87939619D01*
X144368733Y-87892000D01*
X144463971Y-87844381D01*
X146512114Y-88780881D02*
X146512114Y-87780881D01*
X146750209Y-87780881D01*
X146893067Y-87828500D01*
X146988305Y-87923738D01*
X147035924Y-88018976D01*
X147083543Y-88209452D01*
X147083543Y-88352310D01*
X147035924Y-88542786D01*
X146988305Y-88638024D01*
X146893067Y-88733262D01*
X146750209Y-88780881D01*
X146512114Y-88780881D01*
X148035924Y-88780881D02*
X147464495Y-88780881D01*
X147750209Y-88780881D02*
X147750209Y-87780881D01*
X147654971Y-87923738D01*
X147559733Y-88018976D01*
X147464495Y-88066595D01*
X148988305Y-88780881D02*
X148416876Y-88780881D01*
X148702590Y-88780881D02*
X148702590Y-87780881D01*
X148607352Y-87923738D01*
X148512114Y-88018976D01*
X148416876Y-88066595D01*
X150766614Y-88780881D02*
X150766614Y-87780881D01*
X151004709Y-87780881D01*
X151147567Y-87828500D01*
X151242805Y-87923738D01*
X151290424Y-88018976D01*
X151338043Y-88209452D01*
X151338043Y-88352310D01*
X151290424Y-88542786D01*
X151242805Y-88638024D01*
X151147567Y-88733262D01*
X151004709Y-88780881D01*
X150766614Y-88780881D01*
X152290424Y-88780881D02*
X151718995Y-88780881D01*
X152004709Y-88780881D02*
X152004709Y-87780881D01*
X151909471Y-87923738D01*
X151814233Y-88018976D01*
X151718995Y-88066595D01*
X152671376Y-87876119D02*
X152718995Y-87828500D01*
X152814233Y-87780881D01*
X153052329Y-87780881D01*
X153147567Y-87828500D01*
X153195186Y-87876119D01*
X153242805Y-87971357D01*
X153242805Y-88066595D01*
X153195186Y-88209452D01*
X152623757Y-88780881D01*
X153242805Y-88780881D01*
X119207114Y-119324381D02*
X119207114Y-118324381D01*
X119445209Y-118324381D01*
X119588067Y-118372000D01*
X119683305Y-118467238D01*
X119730924Y-118562476D01*
X119778543Y-118752952D01*
X119778543Y-118895810D01*
X119730924Y-119086286D01*
X119683305Y-119181524D01*
X119588067Y-119276762D01*
X119445209Y-119324381D01*
X119207114Y-119324381D01*
X120730924Y-119324381D02*
X120159495Y-119324381D01*
X120445209Y-119324381D02*
X120445209Y-118324381D01*
X120349971Y-118467238D01*
X120254733Y-118562476D01*
X120159495Y-118610095D01*
X121064257Y-118324381D02*
X121683305Y-118324381D01*
X121349971Y-118705333D01*
X121492829Y-118705333D01*
X121588067Y-118752952D01*
X121635686Y-118800571D01*
X121683305Y-118895810D01*
X121683305Y-119133905D01*
X121635686Y-119229143D01*
X121588067Y-119276762D01*
X121492829Y-119324381D01*
X121207114Y-119324381D01*
X121111876Y-119276762D01*
X121064257Y-119229143D01*
X127335114Y-119324381D02*
X127335114Y-118324381D01*
X127573209Y-118324381D01*
X127716067Y-118372000D01*
X127811305Y-118467238D01*
X127858924Y-118562476D01*
X127906543Y-118752952D01*
X127906543Y-118895810D01*
X127858924Y-119086286D01*
X127811305Y-119181524D01*
X127716067Y-119276762D01*
X127573209Y-119324381D01*
X127335114Y-119324381D01*
X128858924Y-119324381D02*
X128287495Y-119324381D01*
X128573209Y-119324381D02*
X128573209Y-118324381D01*
X128477971Y-118467238D01*
X128382733Y-118562476D01*
X128287495Y-118610095D01*
X129716067Y-118657714D02*
X129716067Y-119324381D01*
X129477971Y-118276762D02*
X129239876Y-118991048D01*
X129858924Y-118991048D01*
X135463114Y-119324381D02*
X135463114Y-118324381D01*
X135701209Y-118324381D01*
X135844067Y-118372000D01*
X135939305Y-118467238D01*
X135986924Y-118562476D01*
X136034543Y-118752952D01*
X136034543Y-118895810D01*
X135986924Y-119086286D01*
X135939305Y-119181524D01*
X135844067Y-119276762D01*
X135701209Y-119324381D01*
X135463114Y-119324381D01*
X136986924Y-119324381D02*
X136415495Y-119324381D01*
X136701209Y-119324381D02*
X136701209Y-118324381D01*
X136605971Y-118467238D01*
X136510733Y-118562476D01*
X136415495Y-118610095D01*
X137891686Y-118324381D02*
X137415495Y-118324381D01*
X137367876Y-118800571D01*
X137415495Y-118752952D01*
X137510733Y-118705333D01*
X137748829Y-118705333D01*
X137844067Y-118752952D01*
X137891686Y-118800571D01*
X137939305Y-118895810D01*
X137939305Y-119133905D01*
X137891686Y-119229143D01*
X137844067Y-119276762D01*
X137748829Y-119324381D01*
X137510733Y-119324381D01*
X137415495Y-119276762D01*
X137367876Y-119229143D01*
X143591114Y-119324381D02*
X143591114Y-118324381D01*
X143829209Y-118324381D01*
X143972067Y-118372000D01*
X144067305Y-118467238D01*
X144114924Y-118562476D01*
X144162543Y-118752952D01*
X144162543Y-118895810D01*
X144114924Y-119086286D01*
X144067305Y-119181524D01*
X143972067Y-119276762D01*
X143829209Y-119324381D01*
X143591114Y-119324381D01*
X145114924Y-119324381D02*
X144543495Y-119324381D01*
X144829209Y-119324381D02*
X144829209Y-118324381D01*
X144733971Y-118467238D01*
X144638733Y-118562476D01*
X144543495Y-118610095D01*
X145972067Y-118324381D02*
X145781590Y-118324381D01*
X145686352Y-118372000D01*
X145638733Y-118419619D01*
X145543495Y-118562476D01*
X145495876Y-118752952D01*
X145495876Y-119133905D01*
X145543495Y-119229143D01*
X145591114Y-119276762D01*
X145686352Y-119324381D01*
X145876829Y-119324381D01*
X145972067Y-119276762D01*
X146019686Y-119229143D01*
X146067305Y-119133905D01*
X146067305Y-118895810D01*
X146019686Y-118800571D01*
X145972067Y-118752952D01*
X145876829Y-118705333D01*
X145686352Y-118705333D01*
X145591114Y-118752952D01*
X145543495Y-118800571D01*
X145495876Y-118895810D01*
X151719114Y-119324381D02*
X151719114Y-118324381D01*
X151957209Y-118324381D01*
X152100067Y-118372000D01*
X152195305Y-118467238D01*
X152242924Y-118562476D01*
X152290543Y-118752952D01*
X152290543Y-118895810D01*
X152242924Y-119086286D01*
X152195305Y-119181524D01*
X152100067Y-119276762D01*
X151957209Y-119324381D01*
X151719114Y-119324381D01*
X153242924Y-119324381D02*
X152671495Y-119324381D01*
X152957209Y-119324381D02*
X152957209Y-118324381D01*
X152861971Y-118467238D01*
X152766733Y-118562476D01*
X152671495Y-118610095D01*
X153576257Y-118324381D02*
X154242924Y-118324381D01*
X153814352Y-119324381D01*
X154894114Y-88717381D02*
X154894114Y-87717381D01*
X155132209Y-87717381D01*
X155275067Y-87765000D01*
X155370305Y-87860238D01*
X155417924Y-87955476D01*
X155465543Y-88145952D01*
X155465543Y-88288810D01*
X155417924Y-88479286D01*
X155370305Y-88574524D01*
X155275067Y-88669762D01*
X155132209Y-88717381D01*
X154894114Y-88717381D01*
X156417924Y-88717381D02*
X155846495Y-88717381D01*
X156132209Y-88717381D02*
X156132209Y-87717381D01*
X156036971Y-87860238D01*
X155941733Y-87955476D01*
X155846495Y-88003095D01*
X156989352Y-88145952D02*
X156894114Y-88098333D01*
X156846495Y-88050714D01*
X156798876Y-87955476D01*
X156798876Y-87907857D01*
X156846495Y-87812619D01*
X156894114Y-87765000D01*
X156989352Y-87717381D01*
X157179829Y-87717381D01*
X157275067Y-87765000D01*
X157322686Y-87812619D01*
X157370305Y-87907857D01*
X157370305Y-87955476D01*
X157322686Y-88050714D01*
X157275067Y-88098333D01*
X157179829Y-88145952D01*
X156989352Y-88145952D01*
X156894114Y-88193571D01*
X156846495Y-88241190D01*
X156798876Y-88336429D01*
X156798876Y-88526905D01*
X156846495Y-88622143D01*
X156894114Y-88669762D01*
X156989352Y-88717381D01*
X157179829Y-88717381D01*
X157275067Y-88669762D01*
X157322686Y-88622143D01*
X157370305Y-88526905D01*
X157370305Y-88336429D01*
X157322686Y-88241190D01*
X157275067Y-88193571D01*
X157179829Y-88145952D01*
X159212114Y-88717381D02*
X159212114Y-87717381D01*
X159450209Y-87717381D01*
X159593067Y-87765000D01*
X159688305Y-87860238D01*
X159735924Y-87955476D01*
X159783543Y-88145952D01*
X159783543Y-88288810D01*
X159735924Y-88479286D01*
X159688305Y-88574524D01*
X159593067Y-88669762D01*
X159450209Y-88717381D01*
X159212114Y-88717381D01*
X160735924Y-88717381D02*
X160164495Y-88717381D01*
X160450209Y-88717381D02*
X160450209Y-87717381D01*
X160354971Y-87860238D01*
X160259733Y-87955476D01*
X160164495Y-88003095D01*
X161212114Y-88717381D02*
X161402590Y-88717381D01*
X161497829Y-88669762D01*
X161545448Y-88622143D01*
X161640686Y-88479286D01*
X161688305Y-88288810D01*
X161688305Y-87907857D01*
X161640686Y-87812619D01*
X161593067Y-87765000D01*
X161497829Y-87717381D01*
X161307352Y-87717381D01*
X161212114Y-87765000D01*
X161164495Y-87812619D01*
X161116876Y-87907857D01*
X161116876Y-88145952D01*
X161164495Y-88241190D01*
X161212114Y-88288810D01*
X161307352Y-88336429D01*
X161497829Y-88336429D01*
X161593067Y-88288810D01*
X161640686Y-88241190D01*
X161688305Y-88145952D01*
X163593614Y-88780881D02*
X163593614Y-87780881D01*
X163831709Y-87780881D01*
X163974567Y-87828500D01*
X164069805Y-87923738D01*
X164117424Y-88018976D01*
X164165043Y-88209452D01*
X164165043Y-88352310D01*
X164117424Y-88542786D01*
X164069805Y-88638024D01*
X163974567Y-88733262D01*
X163831709Y-88780881D01*
X163593614Y-88780881D01*
X164545995Y-87876119D02*
X164593614Y-87828500D01*
X164688852Y-87780881D01*
X164926948Y-87780881D01*
X165022186Y-87828500D01*
X165069805Y-87876119D01*
X165117424Y-87971357D01*
X165117424Y-88066595D01*
X165069805Y-88209452D01*
X164498376Y-88780881D01*
X165117424Y-88780881D01*
X165736471Y-87780881D02*
X165831710Y-87780881D01*
X165926948Y-87828500D01*
X165974567Y-87876119D01*
X166022186Y-87971357D01*
X166069805Y-88161833D01*
X166069805Y-88399929D01*
X166022186Y-88590405D01*
X165974567Y-88685643D01*
X165926948Y-88733262D01*
X165831710Y-88780881D01*
X165736471Y-88780881D01*
X165641233Y-88733262D01*
X165593614Y-88685643D01*
X165545995Y-88590405D01*
X165498376Y-88399929D01*
X165498376Y-88161833D01*
X165545995Y-87971357D01*
X165593614Y-87876119D01*
X165641233Y-87828500D01*
X165736471Y-87780881D01*
X167848114Y-88780881D02*
X167848114Y-87780881D01*
X168086209Y-87780881D01*
X168229067Y-87828500D01*
X168324305Y-87923738D01*
X168371924Y-88018976D01*
X168419543Y-88209452D01*
X168419543Y-88352310D01*
X168371924Y-88542786D01*
X168324305Y-88638024D01*
X168229067Y-88733262D01*
X168086209Y-88780881D01*
X167848114Y-88780881D01*
X168800495Y-87876119D02*
X168848114Y-87828500D01*
X168943352Y-87780881D01*
X169181448Y-87780881D01*
X169276686Y-87828500D01*
X169324305Y-87876119D01*
X169371924Y-87971357D01*
X169371924Y-88066595D01*
X169324305Y-88209452D01*
X168752876Y-88780881D01*
X169371924Y-88780881D01*
X170324305Y-88780881D02*
X169752876Y-88780881D01*
X170038590Y-88780881D02*
X170038590Y-87780881D01*
X169943352Y-87923738D01*
X169848114Y-88018976D01*
X169752876Y-88066595D01*
X172039114Y-88780881D02*
X172039114Y-87780881D01*
X172277209Y-87780881D01*
X172420067Y-87828500D01*
X172515305Y-87923738D01*
X172562924Y-88018976D01*
X172610543Y-88209452D01*
X172610543Y-88352310D01*
X172562924Y-88542786D01*
X172515305Y-88638024D01*
X172420067Y-88733262D01*
X172277209Y-88780881D01*
X172039114Y-88780881D01*
X172991495Y-87876119D02*
X173039114Y-87828500D01*
X173134352Y-87780881D01*
X173372448Y-87780881D01*
X173467686Y-87828500D01*
X173515305Y-87876119D01*
X173562924Y-87971357D01*
X173562924Y-88066595D01*
X173515305Y-88209452D01*
X172943876Y-88780881D01*
X173562924Y-88780881D01*
X173943876Y-87876119D02*
X173991495Y-87828500D01*
X174086733Y-87780881D01*
X174324829Y-87780881D01*
X174420067Y-87828500D01*
X174467686Y-87876119D01*
X174515305Y-87971357D01*
X174515305Y-88066595D01*
X174467686Y-88209452D01*
X173896257Y-88780881D01*
X174515305Y-88780881D01*
X159847114Y-119324381D02*
X159847114Y-118324381D01*
X160085209Y-118324381D01*
X160228067Y-118372000D01*
X160323305Y-118467238D01*
X160370924Y-118562476D01*
X160418543Y-118752952D01*
X160418543Y-118895810D01*
X160370924Y-119086286D01*
X160323305Y-119181524D01*
X160228067Y-119276762D01*
X160085209Y-119324381D01*
X159847114Y-119324381D01*
X160799495Y-118419619D02*
X160847114Y-118372000D01*
X160942352Y-118324381D01*
X161180448Y-118324381D01*
X161275686Y-118372000D01*
X161323305Y-118419619D01*
X161370924Y-118514857D01*
X161370924Y-118610095D01*
X161323305Y-118752952D01*
X160751876Y-119324381D01*
X161370924Y-119324381D01*
X161704257Y-118324381D02*
X162323305Y-118324381D01*
X161989971Y-118705333D01*
X162132829Y-118705333D01*
X162228067Y-118752952D01*
X162275686Y-118800571D01*
X162323305Y-118895810D01*
X162323305Y-119133905D01*
X162275686Y-119229143D01*
X162228067Y-119276762D01*
X162132829Y-119324381D01*
X161847114Y-119324381D01*
X161751876Y-119276762D01*
X161704257Y-119229143D01*
X167975114Y-119324381D02*
X167975114Y-118324381D01*
X168213209Y-118324381D01*
X168356067Y-118372000D01*
X168451305Y-118467238D01*
X168498924Y-118562476D01*
X168546543Y-118752952D01*
X168546543Y-118895810D01*
X168498924Y-119086286D01*
X168451305Y-119181524D01*
X168356067Y-119276762D01*
X168213209Y-119324381D01*
X167975114Y-119324381D01*
X168927495Y-118419619D02*
X168975114Y-118372000D01*
X169070352Y-118324381D01*
X169308448Y-118324381D01*
X169403686Y-118372000D01*
X169451305Y-118419619D01*
X169498924Y-118514857D01*
X169498924Y-118610095D01*
X169451305Y-118752952D01*
X168879876Y-119324381D01*
X169498924Y-119324381D01*
X170356067Y-118657714D02*
X170356067Y-119324381D01*
X170117971Y-118276762D02*
X169879876Y-118991048D01*
X170498924Y-118991048D01*
X176103114Y-119324381D02*
X176103114Y-118324381D01*
X176341209Y-118324381D01*
X176484067Y-118372000D01*
X176579305Y-118467238D01*
X176626924Y-118562476D01*
X176674543Y-118752952D01*
X176674543Y-118895810D01*
X176626924Y-119086286D01*
X176579305Y-119181524D01*
X176484067Y-119276762D01*
X176341209Y-119324381D01*
X176103114Y-119324381D01*
X177055495Y-118419619D02*
X177103114Y-118372000D01*
X177198352Y-118324381D01*
X177436448Y-118324381D01*
X177531686Y-118372000D01*
X177579305Y-118419619D01*
X177626924Y-118514857D01*
X177626924Y-118610095D01*
X177579305Y-118752952D01*
X177007876Y-119324381D01*
X177626924Y-119324381D01*
X178531686Y-118324381D02*
X178055495Y-118324381D01*
X178007876Y-118800571D01*
X178055495Y-118752952D01*
X178150733Y-118705333D01*
X178388829Y-118705333D01*
X178484067Y-118752952D01*
X178531686Y-118800571D01*
X178579305Y-118895810D01*
X178579305Y-119133905D01*
X178531686Y-119229143D01*
X178484067Y-119276762D01*
X178388829Y-119324381D01*
X178150733Y-119324381D01*
X178055495Y-119276762D01*
X178007876Y-119229143D01*
X184231114Y-119324381D02*
X184231114Y-118324381D01*
X184469209Y-118324381D01*
X184612067Y-118372000D01*
X184707305Y-118467238D01*
X184754924Y-118562476D01*
X184802543Y-118752952D01*
X184802543Y-118895810D01*
X184754924Y-119086286D01*
X184707305Y-119181524D01*
X184612067Y-119276762D01*
X184469209Y-119324381D01*
X184231114Y-119324381D01*
X185183495Y-118419619D02*
X185231114Y-118372000D01*
X185326352Y-118324381D01*
X185564448Y-118324381D01*
X185659686Y-118372000D01*
X185707305Y-118419619D01*
X185754924Y-118514857D01*
X185754924Y-118610095D01*
X185707305Y-118752952D01*
X185135876Y-119324381D01*
X185754924Y-119324381D01*
X186612067Y-118324381D02*
X186421590Y-118324381D01*
X186326352Y-118372000D01*
X186278733Y-118419619D01*
X186183495Y-118562476D01*
X186135876Y-118752952D01*
X186135876Y-119133905D01*
X186183495Y-119229143D01*
X186231114Y-119276762D01*
X186326352Y-119324381D01*
X186516829Y-119324381D01*
X186612067Y-119276762D01*
X186659686Y-119229143D01*
X186707305Y-119133905D01*
X186707305Y-118895810D01*
X186659686Y-118800571D01*
X186612067Y-118752952D01*
X186516829Y-118705333D01*
X186326352Y-118705333D01*
X186231114Y-118752952D01*
X186183495Y-118800571D01*
X186135876Y-118895810D01*
X192359114Y-119324381D02*
X192359114Y-118324381D01*
X192597209Y-118324381D01*
X192740067Y-118372000D01*
X192835305Y-118467238D01*
X192882924Y-118562476D01*
X192930543Y-118752952D01*
X192930543Y-118895810D01*
X192882924Y-119086286D01*
X192835305Y-119181524D01*
X192740067Y-119276762D01*
X192597209Y-119324381D01*
X192359114Y-119324381D01*
X193311495Y-118419619D02*
X193359114Y-118372000D01*
X193454352Y-118324381D01*
X193692448Y-118324381D01*
X193787686Y-118372000D01*
X193835305Y-118419619D01*
X193882924Y-118514857D01*
X193882924Y-118610095D01*
X193835305Y-118752952D01*
X193263876Y-119324381D01*
X193882924Y-119324381D01*
X194216257Y-118324381D02*
X194882924Y-118324381D01*
X194454352Y-119324381D01*
X209930381Y-66238286D02*
X208930381Y-66238286D01*
X208930381Y-66000191D01*
X208978000Y-65857333D01*
X209073238Y-65762095D01*
X209168476Y-65714476D01*
X209358952Y-65666857D01*
X209501810Y-65666857D01*
X209692286Y-65714476D01*
X209787524Y-65762095D01*
X209882762Y-65857333D01*
X209930381Y-66000191D01*
X209930381Y-66238286D01*
X208930381Y-65333524D02*
X208930381Y-64714476D01*
X209311333Y-65047810D01*
X209311333Y-64904952D01*
X209358952Y-64809714D01*
X209406571Y-64762095D01*
X209501810Y-64714476D01*
X209739905Y-64714476D01*
X209835143Y-64762095D01*
X209882762Y-64809714D01*
X209930381Y-64904952D01*
X209930381Y-65190667D01*
X209882762Y-65285905D01*
X209835143Y-65333524D01*
X208930381Y-64095429D02*
X208930381Y-64000190D01*
X208978000Y-63904952D01*
X209025619Y-63857333D01*
X209120857Y-63809714D01*
X209311333Y-63762095D01*
X209549429Y-63762095D01*
X209739905Y-63809714D01*
X209835143Y-63857333D01*
X209882762Y-63904952D01*
X209930381Y-64000190D01*
X209930381Y-64095429D01*
X209882762Y-64190667D01*
X209835143Y-64238286D01*
X209739905Y-64285905D01*
X209549429Y-64333524D01*
X209311333Y-64333524D01*
X209120857Y-64285905D01*
X209025619Y-64238286D01*
X208978000Y-64190667D01*
X208930381Y-64095429D01*
X213994381Y-66238286D02*
X212994381Y-66238286D01*
X212994381Y-66000191D01*
X213042000Y-65857333D01*
X213137238Y-65762095D01*
X213232476Y-65714476D01*
X213422952Y-65666857D01*
X213565810Y-65666857D01*
X213756286Y-65714476D01*
X213851524Y-65762095D01*
X213946762Y-65857333D01*
X213994381Y-66000191D01*
X213994381Y-66238286D01*
X212994381Y-65333524D02*
X212994381Y-64714476D01*
X213375333Y-65047810D01*
X213375333Y-64904952D01*
X213422952Y-64809714D01*
X213470571Y-64762095D01*
X213565810Y-64714476D01*
X213803905Y-64714476D01*
X213899143Y-64762095D01*
X213946762Y-64809714D01*
X213994381Y-64904952D01*
X213994381Y-65190667D01*
X213946762Y-65285905D01*
X213899143Y-65333524D01*
X213994381Y-63762095D02*
X213994381Y-64333524D01*
X213994381Y-64047810D02*
X212994381Y-64047810D01*
X213137238Y-64143048D01*
X213232476Y-64238286D01*
X213280095Y-64333524D01*
X218058381Y-66238286D02*
X217058381Y-66238286D01*
X217058381Y-66000191D01*
X217106000Y-65857333D01*
X217201238Y-65762095D01*
X217296476Y-65714476D01*
X217486952Y-65666857D01*
X217629810Y-65666857D01*
X217820286Y-65714476D01*
X217915524Y-65762095D01*
X218010762Y-65857333D01*
X218058381Y-66000191D01*
X218058381Y-66238286D01*
X217058381Y-65333524D02*
X217058381Y-64714476D01*
X217439333Y-65047810D01*
X217439333Y-64904952D01*
X217486952Y-64809714D01*
X217534571Y-64762095D01*
X217629810Y-64714476D01*
X217867905Y-64714476D01*
X217963143Y-64762095D01*
X218010762Y-64809714D01*
X218058381Y-64904952D01*
X218058381Y-65190667D01*
X218010762Y-65285905D01*
X217963143Y-65333524D01*
X217153619Y-64333524D02*
X217106000Y-64285905D01*
X217058381Y-64190667D01*
X217058381Y-63952571D01*
X217106000Y-63857333D01*
X217153619Y-63809714D01*
X217248857Y-63762095D01*
X217344095Y-63762095D01*
X217486952Y-63809714D01*
X218058381Y-64381143D01*
X218058381Y-63762095D01*
X156872667Y-66460381D02*
X156872667Y-67174667D01*
X156825047Y-67317524D01*
X156729809Y-67412762D01*
X156586952Y-67460381D01*
X156491714Y-67460381D01*
X157301238Y-66555619D02*
X157348857Y-66508000D01*
X157444095Y-66460381D01*
X157682191Y-66460381D01*
X157777429Y-66508000D01*
X157825048Y-66555619D01*
X157872667Y-66650857D01*
X157872667Y-66746095D01*
X157825048Y-66888952D01*
X157253619Y-67460381D01*
X157872667Y-67460381D01*
X106312674Y-64854081D02*
X105836483Y-64854081D01*
X105836483Y-63854081D01*
X107169817Y-64854081D02*
X106598388Y-64854081D01*
X106884102Y-64854081D02*
X106884102Y-63854081D01*
X106788864Y-63996938D01*
X106693626Y-64092176D01*
X106598388Y-64139795D01*
X104597381Y-77763666D02*
X104597381Y-78239857D01*
X103597381Y-78239857D01*
X103692619Y-77477952D02*
X103645000Y-77430333D01*
X103597381Y-77335095D01*
X103597381Y-77096999D01*
X103645000Y-77001761D01*
X103692619Y-76954142D01*
X103787857Y-76906523D01*
X103883095Y-76906523D01*
X104025952Y-76954142D01*
X104597381Y-77525571D01*
X104597381Y-76906523D01*
X118211781Y-78906666D02*
X118211781Y-79382857D01*
X117211781Y-79382857D01*
X117211781Y-78668571D02*
X117211781Y-78049523D01*
X117592733Y-78382857D01*
X117592733Y-78239999D01*
X117640352Y-78144761D01*
X117687971Y-78097142D01*
X117783210Y-78049523D01*
X118021305Y-78049523D01*
X118116543Y-78097142D01*
X118164162Y-78144761D01*
X118211781Y-78239999D01*
X118211781Y-78525714D01*
X118164162Y-78620952D01*
X118116543Y-78668571D01*
X119284762Y-106719619D02*
X119189524Y-106672000D01*
X119094286Y-106576762D01*
X118951429Y-106433905D01*
X118856190Y-106386286D01*
X118760952Y-106386286D01*
X118808571Y-106624381D02*
X118713333Y-106576762D01*
X118618095Y-106481524D01*
X118570476Y-106291048D01*
X118570476Y-105957714D01*
X118618095Y-105767238D01*
X118713333Y-105672000D01*
X118808571Y-105624381D01*
X118999048Y-105624381D01*
X119094286Y-105672000D01*
X119189524Y-105767238D01*
X119237143Y-105957714D01*
X119237143Y-106291048D01*
X119189524Y-106481524D01*
X119094286Y-106576762D01*
X118999048Y-106624381D01*
X118808571Y-106624381D01*
X120189524Y-106624381D02*
X119618095Y-106624381D01*
X119903809Y-106624381D02*
X119903809Y-105624381D01*
X119808571Y-105767238D01*
X119713333Y-105862476D01*
X119618095Y-105910095D01*
X124872762Y-106719619D02*
X124777524Y-106672000D01*
X124682286Y-106576762D01*
X124539429Y-106433905D01*
X124444190Y-106386286D01*
X124348952Y-106386286D01*
X124396571Y-106624381D02*
X124301333Y-106576762D01*
X124206095Y-106481524D01*
X124158476Y-106291048D01*
X124158476Y-105957714D01*
X124206095Y-105767238D01*
X124301333Y-105672000D01*
X124396571Y-105624381D01*
X124587048Y-105624381D01*
X124682286Y-105672000D01*
X124777524Y-105767238D01*
X124825143Y-105957714D01*
X124825143Y-106291048D01*
X124777524Y-106481524D01*
X124682286Y-106576762D01*
X124587048Y-106624381D01*
X124396571Y-106624381D01*
X125206095Y-105719619D02*
X125253714Y-105672000D01*
X125348952Y-105624381D01*
X125587048Y-105624381D01*
X125682286Y-105672000D01*
X125729905Y-105719619D01*
X125777524Y-105814857D01*
X125777524Y-105910095D01*
X125729905Y-106052952D01*
X125158476Y-106624381D01*
X125777524Y-106624381D01*
X130460762Y-106719619D02*
X130365524Y-106672000D01*
X130270286Y-106576762D01*
X130127429Y-106433905D01*
X130032190Y-106386286D01*
X129936952Y-106386286D01*
X129984571Y-106624381D02*
X129889333Y-106576762D01*
X129794095Y-106481524D01*
X129746476Y-106291048D01*
X129746476Y-105957714D01*
X129794095Y-105767238D01*
X129889333Y-105672000D01*
X129984571Y-105624381D01*
X130175048Y-105624381D01*
X130270286Y-105672000D01*
X130365524Y-105767238D01*
X130413143Y-105957714D01*
X130413143Y-106291048D01*
X130365524Y-106481524D01*
X130270286Y-106576762D01*
X130175048Y-106624381D01*
X129984571Y-106624381D01*
X130746476Y-105624381D02*
X131365524Y-105624381D01*
X131032190Y-106005333D01*
X131175048Y-106005333D01*
X131270286Y-106052952D01*
X131317905Y-106100571D01*
X131365524Y-106195810D01*
X131365524Y-106433905D01*
X131317905Y-106529143D01*
X131270286Y-106576762D01*
X131175048Y-106624381D01*
X130889333Y-106624381D01*
X130794095Y-106576762D01*
X130746476Y-106529143D01*
X136048762Y-106719619D02*
X135953524Y-106672000D01*
X135858286Y-106576762D01*
X135715429Y-106433905D01*
X135620190Y-106386286D01*
X135524952Y-106386286D01*
X135572571Y-106624381D02*
X135477333Y-106576762D01*
X135382095Y-106481524D01*
X135334476Y-106291048D01*
X135334476Y-105957714D01*
X135382095Y-105767238D01*
X135477333Y-105672000D01*
X135572571Y-105624381D01*
X135763048Y-105624381D01*
X135858286Y-105672000D01*
X135953524Y-105767238D01*
X136001143Y-105957714D01*
X136001143Y-106291048D01*
X135953524Y-106481524D01*
X135858286Y-106576762D01*
X135763048Y-106624381D01*
X135572571Y-106624381D01*
X136858286Y-105957714D02*
X136858286Y-106624381D01*
X136620190Y-105576762D02*
X136382095Y-106291048D01*
X137001143Y-106291048D01*
X141636762Y-106719619D02*
X141541524Y-106672000D01*
X141446286Y-106576762D01*
X141303429Y-106433905D01*
X141208190Y-106386286D01*
X141112952Y-106386286D01*
X141160571Y-106624381D02*
X141065333Y-106576762D01*
X140970095Y-106481524D01*
X140922476Y-106291048D01*
X140922476Y-105957714D01*
X140970095Y-105767238D01*
X141065333Y-105672000D01*
X141160571Y-105624381D01*
X141351048Y-105624381D01*
X141446286Y-105672000D01*
X141541524Y-105767238D01*
X141589143Y-105957714D01*
X141589143Y-106291048D01*
X141541524Y-106481524D01*
X141446286Y-106576762D01*
X141351048Y-106624381D01*
X141160571Y-106624381D01*
X142493905Y-105624381D02*
X142017714Y-105624381D01*
X141970095Y-106100571D01*
X142017714Y-106052952D01*
X142112952Y-106005333D01*
X142351048Y-106005333D01*
X142446286Y-106052952D01*
X142493905Y-106100571D01*
X142541524Y-106195810D01*
X142541524Y-106433905D01*
X142493905Y-106529143D01*
X142446286Y-106576762D01*
X142351048Y-106624381D01*
X142112952Y-106624381D01*
X142017714Y-106576762D01*
X141970095Y-106529143D01*
X147224762Y-106719619D02*
X147129524Y-106672000D01*
X147034286Y-106576762D01*
X146891429Y-106433905D01*
X146796190Y-106386286D01*
X146700952Y-106386286D01*
X146748571Y-106624381D02*
X146653333Y-106576762D01*
X146558095Y-106481524D01*
X146510476Y-106291048D01*
X146510476Y-105957714D01*
X146558095Y-105767238D01*
X146653333Y-105672000D01*
X146748571Y-105624381D01*
X146939048Y-105624381D01*
X147034286Y-105672000D01*
X147129524Y-105767238D01*
X147177143Y-105957714D01*
X147177143Y-106291048D01*
X147129524Y-106481524D01*
X147034286Y-106576762D01*
X146939048Y-106624381D01*
X146748571Y-106624381D01*
X148034286Y-105624381D02*
X147843809Y-105624381D01*
X147748571Y-105672000D01*
X147700952Y-105719619D01*
X147605714Y-105862476D01*
X147558095Y-106052952D01*
X147558095Y-106433905D01*
X147605714Y-106529143D01*
X147653333Y-106576762D01*
X147748571Y-106624381D01*
X147939048Y-106624381D01*
X148034286Y-106576762D01*
X148081905Y-106529143D01*
X148129524Y-106433905D01*
X148129524Y-106195810D01*
X148081905Y-106100571D01*
X148034286Y-106052952D01*
X147939048Y-106005333D01*
X147748571Y-106005333D01*
X147653333Y-106052952D01*
X147605714Y-106100571D01*
X147558095Y-106195810D01*
X152812762Y-106719619D02*
X152717524Y-106672000D01*
X152622286Y-106576762D01*
X152479429Y-106433905D01*
X152384190Y-106386286D01*
X152288952Y-106386286D01*
X152336571Y-106624381D02*
X152241333Y-106576762D01*
X152146095Y-106481524D01*
X152098476Y-106291048D01*
X152098476Y-105957714D01*
X152146095Y-105767238D01*
X152241333Y-105672000D01*
X152336571Y-105624381D01*
X152527048Y-105624381D01*
X152622286Y-105672000D01*
X152717524Y-105767238D01*
X152765143Y-105957714D01*
X152765143Y-106291048D01*
X152717524Y-106481524D01*
X152622286Y-106576762D01*
X152527048Y-106624381D01*
X152336571Y-106624381D01*
X153098476Y-105624381D02*
X153765143Y-105624381D01*
X153336571Y-106624381D01*
X158436322Y-106711999D02*
X158341084Y-106664380D01*
X158245846Y-106569142D01*
X158102989Y-106426285D01*
X158007750Y-106378666D01*
X157912512Y-106378666D01*
X157960131Y-106616761D02*
X157864893Y-106569142D01*
X157769655Y-106473904D01*
X157722036Y-106283428D01*
X157722036Y-105950094D01*
X157769655Y-105759618D01*
X157864893Y-105664380D01*
X157960131Y-105616761D01*
X158150608Y-105616761D01*
X158245846Y-105664380D01*
X158341084Y-105759618D01*
X158388703Y-105950094D01*
X158388703Y-106283428D01*
X158341084Y-106473904D01*
X158245846Y-106569142D01*
X158150608Y-106616761D01*
X157960131Y-106616761D01*
X158960131Y-106045332D02*
X158864893Y-105997713D01*
X158817274Y-105950094D01*
X158769655Y-105854856D01*
X158769655Y-105807237D01*
X158817274Y-105711999D01*
X158864893Y-105664380D01*
X158960131Y-105616761D01*
X159150608Y-105616761D01*
X159245846Y-105664380D01*
X159293465Y-105711999D01*
X159341084Y-105807237D01*
X159341084Y-105854856D01*
X159293465Y-105950094D01*
X159245846Y-105997713D01*
X159150608Y-106045332D01*
X158960131Y-106045332D01*
X158864893Y-106092951D01*
X158817274Y-106140570D01*
X158769655Y-106235809D01*
X158769655Y-106426285D01*
X158817274Y-106521523D01*
X158864893Y-106569142D01*
X158960131Y-106616761D01*
X159150608Y-106616761D01*
X159245846Y-106569142D01*
X159293465Y-106521523D01*
X159341084Y-106426285D01*
X159341084Y-106235809D01*
X159293465Y-106140570D01*
X159245846Y-106092951D01*
X159150608Y-106045332D01*
X163988762Y-106719619D02*
X163893524Y-106672000D01*
X163798286Y-106576762D01*
X163655429Y-106433905D01*
X163560190Y-106386286D01*
X163464952Y-106386286D01*
X163512571Y-106624381D02*
X163417333Y-106576762D01*
X163322095Y-106481524D01*
X163274476Y-106291048D01*
X163274476Y-105957714D01*
X163322095Y-105767238D01*
X163417333Y-105672000D01*
X163512571Y-105624381D01*
X163703048Y-105624381D01*
X163798286Y-105672000D01*
X163893524Y-105767238D01*
X163941143Y-105957714D01*
X163941143Y-106291048D01*
X163893524Y-106481524D01*
X163798286Y-106576762D01*
X163703048Y-106624381D01*
X163512571Y-106624381D01*
X164417333Y-106624381D02*
X164607809Y-106624381D01*
X164703048Y-106576762D01*
X164750667Y-106529143D01*
X164845905Y-106386286D01*
X164893524Y-106195810D01*
X164893524Y-105814857D01*
X164845905Y-105719619D01*
X164798286Y-105672000D01*
X164703048Y-105624381D01*
X164512571Y-105624381D01*
X164417333Y-105672000D01*
X164369714Y-105719619D01*
X164322095Y-105814857D01*
X164322095Y-106052952D01*
X164369714Y-106148190D01*
X164417333Y-106195810D01*
X164512571Y-106243429D01*
X164703048Y-106243429D01*
X164798286Y-106195810D01*
X164845905Y-106148190D01*
X164893524Y-106052952D01*
X169100572Y-106719619D02*
X169005334Y-106672000D01*
X168910096Y-106576762D01*
X168767239Y-106433905D01*
X168672000Y-106386286D01*
X168576762Y-106386286D01*
X168624381Y-106624381D02*
X168529143Y-106576762D01*
X168433905Y-106481524D01*
X168386286Y-106291048D01*
X168386286Y-105957714D01*
X168433905Y-105767238D01*
X168529143Y-105672000D01*
X168624381Y-105624381D01*
X168814858Y-105624381D01*
X168910096Y-105672000D01*
X169005334Y-105767238D01*
X169052953Y-105957714D01*
X169052953Y-106291048D01*
X169005334Y-106481524D01*
X168910096Y-106576762D01*
X168814858Y-106624381D01*
X168624381Y-106624381D01*
X170005334Y-106624381D02*
X169433905Y-106624381D01*
X169719619Y-106624381D02*
X169719619Y-105624381D01*
X169624381Y-105767238D01*
X169529143Y-105862476D01*
X169433905Y-105910095D01*
X170624381Y-105624381D02*
X170719620Y-105624381D01*
X170814858Y-105672000D01*
X170862477Y-105719619D01*
X170910096Y-105814857D01*
X170957715Y-106005333D01*
X170957715Y-106243429D01*
X170910096Y-106433905D01*
X170862477Y-106529143D01*
X170814858Y-106576762D01*
X170719620Y-106624381D01*
X170624381Y-106624381D01*
X170529143Y-106576762D01*
X170481524Y-106529143D01*
X170433905Y-106433905D01*
X170386286Y-106243429D01*
X170386286Y-106005333D01*
X170433905Y-105814857D01*
X170481524Y-105719619D01*
X170529143Y-105672000D01*
X170624381Y-105624381D01*
X174688572Y-106719619D02*
X174593334Y-106672000D01*
X174498096Y-106576762D01*
X174355239Y-106433905D01*
X174260000Y-106386286D01*
X174164762Y-106386286D01*
X174212381Y-106624381D02*
X174117143Y-106576762D01*
X174021905Y-106481524D01*
X173974286Y-106291048D01*
X173974286Y-105957714D01*
X174021905Y-105767238D01*
X174117143Y-105672000D01*
X174212381Y-105624381D01*
X174402858Y-105624381D01*
X174498096Y-105672000D01*
X174593334Y-105767238D01*
X174640953Y-105957714D01*
X174640953Y-106291048D01*
X174593334Y-106481524D01*
X174498096Y-106576762D01*
X174402858Y-106624381D01*
X174212381Y-106624381D01*
X175593334Y-106624381D02*
X175021905Y-106624381D01*
X175307619Y-106624381D02*
X175307619Y-105624381D01*
X175212381Y-105767238D01*
X175117143Y-105862476D01*
X175021905Y-105910095D01*
X176545715Y-106624381D02*
X175974286Y-106624381D01*
X176260000Y-106624381D02*
X176260000Y-105624381D01*
X176164762Y-105767238D01*
X176069524Y-105862476D01*
X175974286Y-105910095D01*
X180276572Y-106719619D02*
X180181334Y-106672000D01*
X180086096Y-106576762D01*
X179943239Y-106433905D01*
X179848000Y-106386286D01*
X179752762Y-106386286D01*
X179800381Y-106624381D02*
X179705143Y-106576762D01*
X179609905Y-106481524D01*
X179562286Y-106291048D01*
X179562286Y-105957714D01*
X179609905Y-105767238D01*
X179705143Y-105672000D01*
X179800381Y-105624381D01*
X179990858Y-105624381D01*
X180086096Y-105672000D01*
X180181334Y-105767238D01*
X180228953Y-105957714D01*
X180228953Y-106291048D01*
X180181334Y-106481524D01*
X180086096Y-106576762D01*
X179990858Y-106624381D01*
X179800381Y-106624381D01*
X181181334Y-106624381D02*
X180609905Y-106624381D01*
X180895619Y-106624381D02*
X180895619Y-105624381D01*
X180800381Y-105767238D01*
X180705143Y-105862476D01*
X180609905Y-105910095D01*
X181562286Y-105719619D02*
X181609905Y-105672000D01*
X181705143Y-105624381D01*
X181943239Y-105624381D01*
X182038477Y-105672000D01*
X182086096Y-105719619D01*
X182133715Y-105814857D01*
X182133715Y-105910095D01*
X182086096Y-106052952D01*
X181514667Y-106624381D01*
X182133715Y-106624381D01*
X77403819Y-114465028D02*
X77356200Y-114560266D01*
X77260962Y-114655504D01*
X77118105Y-114798361D01*
X77070486Y-114893600D01*
X77070486Y-114988838D01*
X77308581Y-114941219D02*
X77260962Y-115036457D01*
X77165724Y-115131695D01*
X76975248Y-115179314D01*
X76641914Y-115179314D01*
X76451438Y-115131695D01*
X76356200Y-115036457D01*
X76308581Y-114941219D01*
X76308581Y-114750742D01*
X76356200Y-114655504D01*
X76451438Y-114560266D01*
X76641914Y-114512647D01*
X76975248Y-114512647D01*
X77165724Y-114560266D01*
X77260962Y-114655504D01*
X77308581Y-114750742D01*
X77308581Y-114941219D01*
X77308581Y-113560266D02*
X77308581Y-114131695D01*
X77308581Y-113845981D02*
X76308581Y-113845981D01*
X76451438Y-113941219D01*
X76546676Y-114036457D01*
X76594295Y-114131695D01*
X76308581Y-112655504D02*
X76308581Y-113131695D01*
X76784771Y-113179314D01*
X76737152Y-113131695D01*
X76689533Y-113036457D01*
X76689533Y-112798361D01*
X76737152Y-112703123D01*
X76784771Y-112655504D01*
X76880010Y-112607885D01*
X77118105Y-112607885D01*
X77213343Y-112655504D01*
X77260962Y-112703123D01*
X77308581Y-112798361D01*
X77308581Y-113036457D01*
X77260962Y-113131695D01*
X77213343Y-113179314D01*
X128650381Y-68238666D02*
X128174190Y-68572000D01*
X128650381Y-68810095D02*
X127650381Y-68810095D01*
X127650381Y-68429142D01*
X127698000Y-68333904D01*
X127745619Y-68286285D01*
X127840857Y-68238666D01*
X127983714Y-68238666D01*
X128078952Y-68286285D01*
X128126571Y-68333904D01*
X128174190Y-68429142D01*
X128174190Y-68810095D01*
X128650381Y-67286285D02*
X128650381Y-67857714D01*
X128650381Y-67572000D02*
X127650381Y-67572000D01*
X127793238Y-67667238D01*
X127888476Y-67762476D01*
X127936095Y-67857714D01*
X140448681Y-69813466D02*
X139972490Y-70146800D01*
X140448681Y-70384895D02*
X139448681Y-70384895D01*
X139448681Y-70003942D01*
X139496300Y-69908704D01*
X139543919Y-69861085D01*
X139639157Y-69813466D01*
X139782014Y-69813466D01*
X139877252Y-69861085D01*
X139924871Y-69908704D01*
X139972490Y-70003942D01*
X139972490Y-70384895D01*
X139543919Y-69432514D02*
X139496300Y-69384895D01*
X139448681Y-69289657D01*
X139448681Y-69051561D01*
X139496300Y-68956323D01*
X139543919Y-68908704D01*
X139639157Y-68861085D01*
X139734395Y-68861085D01*
X139877252Y-68908704D01*
X140448681Y-69480133D01*
X140448681Y-68861085D01*
X124586381Y-68238666D02*
X124110190Y-68572000D01*
X124586381Y-68810095D02*
X123586381Y-68810095D01*
X123586381Y-68429142D01*
X123634000Y-68333904D01*
X123681619Y-68286285D01*
X123776857Y-68238666D01*
X123919714Y-68238666D01*
X124014952Y-68286285D01*
X124062571Y-68333904D01*
X124110190Y-68429142D01*
X124110190Y-68810095D01*
X123586381Y-67905333D02*
X123586381Y-67286285D01*
X123967333Y-67619619D01*
X123967333Y-67476761D01*
X124014952Y-67381523D01*
X124062571Y-67333904D01*
X124157810Y-67286285D01*
X124395905Y-67286285D01*
X124491143Y-67333904D01*
X124538762Y-67381523D01*
X124586381Y-67476761D01*
X124586381Y-67762476D01*
X124538762Y-67857714D01*
X124491143Y-67905333D01*
X120522381Y-68238666D02*
X120046190Y-68572000D01*
X120522381Y-68810095D02*
X119522381Y-68810095D01*
X119522381Y-68429142D01*
X119570000Y-68333904D01*
X119617619Y-68286285D01*
X119712857Y-68238666D01*
X119855714Y-68238666D01*
X119950952Y-68286285D01*
X119998571Y-68333904D01*
X120046190Y-68429142D01*
X120046190Y-68810095D01*
X119855714Y-67381523D02*
X120522381Y-67381523D01*
X119474762Y-67619619D02*
X120189048Y-67857714D01*
X120189048Y-67238666D01*
X116458381Y-68238666D02*
X115982190Y-68572000D01*
X116458381Y-68810095D02*
X115458381Y-68810095D01*
X115458381Y-68429142D01*
X115506000Y-68333904D01*
X115553619Y-68286285D01*
X115648857Y-68238666D01*
X115791714Y-68238666D01*
X115886952Y-68286285D01*
X115934571Y-68333904D01*
X115982190Y-68429142D01*
X115982190Y-68810095D01*
X115458381Y-67333904D02*
X115458381Y-67810095D01*
X115934571Y-67857714D01*
X115886952Y-67810095D01*
X115839333Y-67714857D01*
X115839333Y-67476761D01*
X115886952Y-67381523D01*
X115934571Y-67333904D01*
X116029810Y-67286285D01*
X116267905Y-67286285D01*
X116363143Y-67333904D01*
X116410762Y-67381523D01*
X116458381Y-67476761D01*
X116458381Y-67714857D01*
X116410762Y-67810095D01*
X116363143Y-67857714D01*
X120254734Y-79882381D02*
X119921400Y-79406190D01*
X119683305Y-79882381D02*
X119683305Y-78882381D01*
X120064258Y-78882381D01*
X120159496Y-78930000D01*
X120207115Y-78977619D01*
X120254734Y-79072857D01*
X120254734Y-79215714D01*
X120207115Y-79310952D01*
X120159496Y-79358571D01*
X120064258Y-79406190D01*
X119683305Y-79406190D01*
X121111877Y-78882381D02*
X120921400Y-78882381D01*
X120826162Y-78930000D01*
X120778543Y-78977619D01*
X120683305Y-79120476D01*
X120635686Y-79310952D01*
X120635686Y-79691905D01*
X120683305Y-79787143D01*
X120730924Y-79834762D01*
X120826162Y-79882381D01*
X121016639Y-79882381D01*
X121111877Y-79834762D01*
X121159496Y-79787143D01*
X121207115Y-79691905D01*
X121207115Y-79453810D01*
X121159496Y-79358571D01*
X121111877Y-79310952D01*
X121016639Y-79263333D01*
X120826162Y-79263333D01*
X120730924Y-79310952D01*
X120683305Y-79358571D01*
X120635686Y-79453810D01*
X134961334Y-66310381D02*
X134628000Y-65834190D01*
X134389905Y-66310381D02*
X134389905Y-65310381D01*
X134770858Y-65310381D01*
X134866096Y-65358000D01*
X134913715Y-65405619D01*
X134961334Y-65500857D01*
X134961334Y-65643714D01*
X134913715Y-65738952D01*
X134866096Y-65786571D01*
X134770858Y-65834190D01*
X134389905Y-65834190D01*
X135294667Y-65310381D02*
X135961334Y-65310381D01*
X135532762Y-66310381D01*
X134961334Y-69866381D02*
X134628000Y-69390190D01*
X134389905Y-69866381D02*
X134389905Y-68866381D01*
X134770858Y-68866381D01*
X134866096Y-68914000D01*
X134913715Y-68961619D01*
X134961334Y-69056857D01*
X134961334Y-69199714D01*
X134913715Y-69294952D01*
X134866096Y-69342571D01*
X134770858Y-69390190D01*
X134389905Y-69390190D01*
X135532762Y-69294952D02*
X135437524Y-69247333D01*
X135389905Y-69199714D01*
X135342286Y-69104476D01*
X135342286Y-69056857D01*
X135389905Y-68961619D01*
X135437524Y-68914000D01*
X135532762Y-68866381D01*
X135723239Y-68866381D01*
X135818477Y-68914000D01*
X135866096Y-68961619D01*
X135913715Y-69056857D01*
X135913715Y-69104476D01*
X135866096Y-69199714D01*
X135818477Y-69247333D01*
X135723239Y-69294952D01*
X135532762Y-69294952D01*
X135437524Y-69342571D01*
X135389905Y-69390190D01*
X135342286Y-69485429D01*
X135342286Y-69675905D01*
X135389905Y-69771143D01*
X135437524Y-69818762D01*
X135532762Y-69866381D01*
X135723239Y-69866381D01*
X135818477Y-69818762D01*
X135866096Y-69771143D01*
X135913715Y-69675905D01*
X135913715Y-69485429D01*
X135866096Y-69390190D01*
X135818477Y-69342571D01*
X135723239Y-69294952D01*
X134961334Y-62754381D02*
X134628000Y-62278190D01*
X134389905Y-62754381D02*
X134389905Y-61754381D01*
X134770858Y-61754381D01*
X134866096Y-61802000D01*
X134913715Y-61849619D01*
X134961334Y-61944857D01*
X134961334Y-62087714D01*
X134913715Y-62182952D01*
X134866096Y-62230571D01*
X134770858Y-62278190D01*
X134389905Y-62278190D01*
X135437524Y-62754381D02*
X135628000Y-62754381D01*
X135723239Y-62706762D01*
X135770858Y-62659143D01*
X135866096Y-62516286D01*
X135913715Y-62325810D01*
X135913715Y-61944857D01*
X135866096Y-61849619D01*
X135818477Y-61802000D01*
X135723239Y-61754381D01*
X135532762Y-61754381D01*
X135437524Y-61802000D01*
X135389905Y-61849619D01*
X135342286Y-61944857D01*
X135342286Y-62182952D01*
X135389905Y-62278190D01*
X135437524Y-62325810D01*
X135532762Y-62373429D01*
X135723239Y-62373429D01*
X135818477Y-62325810D01*
X135866096Y-62278190D01*
X135913715Y-62182952D01*
X174903781Y-96654857D02*
X174427590Y-96988191D01*
X174903781Y-97226286D02*
X173903781Y-97226286D01*
X173903781Y-96845333D01*
X173951400Y-96750095D01*
X173999019Y-96702476D01*
X174094257Y-96654857D01*
X174237114Y-96654857D01*
X174332352Y-96702476D01*
X174379971Y-96750095D01*
X174427590Y-96845333D01*
X174427590Y-97226286D01*
X174903781Y-95702476D02*
X174903781Y-96273905D01*
X174903781Y-95988191D02*
X173903781Y-95988191D01*
X174046638Y-96083429D01*
X174141876Y-96178667D01*
X174189495Y-96273905D01*
X173903781Y-95083429D02*
X173903781Y-94988190D01*
X173951400Y-94892952D01*
X173999019Y-94845333D01*
X174094257Y-94797714D01*
X174284733Y-94750095D01*
X174522829Y-94750095D01*
X174713305Y-94797714D01*
X174808543Y-94845333D01*
X174856162Y-94892952D01*
X174903781Y-94988190D01*
X174903781Y-95083429D01*
X174856162Y-95178667D01*
X174808543Y-95226286D01*
X174713305Y-95273905D01*
X174522829Y-95321524D01*
X174284733Y-95321524D01*
X174094257Y-95273905D01*
X173999019Y-95226286D01*
X173951400Y-95178667D01*
X173903781Y-95083429D01*
X122579781Y-96654857D02*
X122103590Y-96988191D01*
X122579781Y-97226286D02*
X121579781Y-97226286D01*
X121579781Y-96845333D01*
X121627400Y-96750095D01*
X121675019Y-96702476D01*
X121770257Y-96654857D01*
X121913114Y-96654857D01*
X122008352Y-96702476D01*
X122055971Y-96750095D01*
X122103590Y-96845333D01*
X122103590Y-97226286D01*
X122579781Y-95702476D02*
X122579781Y-96273905D01*
X122579781Y-95988191D02*
X121579781Y-95988191D01*
X121722638Y-96083429D01*
X121817876Y-96178667D01*
X121865495Y-96273905D01*
X122579781Y-94750095D02*
X122579781Y-95321524D01*
X122579781Y-95035810D02*
X121579781Y-95035810D01*
X121722638Y-95131048D01*
X121817876Y-95226286D01*
X121865495Y-95321524D01*
X126643781Y-96654857D02*
X126167590Y-96988191D01*
X126643781Y-97226286D02*
X125643781Y-97226286D01*
X125643781Y-96845333D01*
X125691400Y-96750095D01*
X125739019Y-96702476D01*
X125834257Y-96654857D01*
X125977114Y-96654857D01*
X126072352Y-96702476D01*
X126119971Y-96750095D01*
X126167590Y-96845333D01*
X126167590Y-97226286D01*
X126643781Y-95702476D02*
X126643781Y-96273905D01*
X126643781Y-95988191D02*
X125643781Y-95988191D01*
X125786638Y-96083429D01*
X125881876Y-96178667D01*
X125929495Y-96273905D01*
X125739019Y-95321524D02*
X125691400Y-95273905D01*
X125643781Y-95178667D01*
X125643781Y-94940571D01*
X125691400Y-94845333D01*
X125739019Y-94797714D01*
X125834257Y-94750095D01*
X125929495Y-94750095D01*
X126072352Y-94797714D01*
X126643781Y-95369143D01*
X126643781Y-94750095D01*
X104885781Y-112402857D02*
X104409590Y-112736191D01*
X104885781Y-112974286D02*
X103885781Y-112974286D01*
X103885781Y-112593333D01*
X103933400Y-112498095D01*
X103981019Y-112450476D01*
X104076257Y-112402857D01*
X104219114Y-112402857D01*
X104314352Y-112450476D01*
X104361971Y-112498095D01*
X104409590Y-112593333D01*
X104409590Y-112974286D01*
X104885781Y-111450476D02*
X104885781Y-112021905D01*
X104885781Y-111736191D02*
X103885781Y-111736191D01*
X104028638Y-111831429D01*
X104123876Y-111926667D01*
X104171495Y-112021905D01*
X103885781Y-111117143D02*
X103885781Y-110498095D01*
X104266733Y-110831429D01*
X104266733Y-110688571D01*
X104314352Y-110593333D01*
X104361971Y-110545714D01*
X104457210Y-110498095D01*
X104695305Y-110498095D01*
X104790543Y-110545714D01*
X104838162Y-110593333D01*
X104885781Y-110688571D01*
X104885781Y-110974286D01*
X104838162Y-111069524D01*
X104790543Y-111117143D01*
X113013781Y-112402857D02*
X112537590Y-112736191D01*
X113013781Y-112974286D02*
X112013781Y-112974286D01*
X112013781Y-112593333D01*
X112061400Y-112498095D01*
X112109019Y-112450476D01*
X112204257Y-112402857D01*
X112347114Y-112402857D01*
X112442352Y-112450476D01*
X112489971Y-112498095D01*
X112537590Y-112593333D01*
X112537590Y-112974286D01*
X113013781Y-111450476D02*
X113013781Y-112021905D01*
X113013781Y-111736191D02*
X112013781Y-111736191D01*
X112156638Y-111831429D01*
X112251876Y-111926667D01*
X112299495Y-112021905D01*
X112347114Y-110593333D02*
X113013781Y-110593333D01*
X111966162Y-110831429D02*
X112680448Y-111069524D01*
X112680448Y-110450476D01*
X108499781Y-112402857D02*
X108023590Y-112736191D01*
X108499781Y-112974286D02*
X107499781Y-112974286D01*
X107499781Y-112593333D01*
X107547400Y-112498095D01*
X107595019Y-112450476D01*
X107690257Y-112402857D01*
X107833114Y-112402857D01*
X107928352Y-112450476D01*
X107975971Y-112498095D01*
X108023590Y-112593333D01*
X108023590Y-112974286D01*
X108499781Y-111450476D02*
X108499781Y-112021905D01*
X108499781Y-111736191D02*
X107499781Y-111736191D01*
X107642638Y-111831429D01*
X107737876Y-111926667D01*
X107785495Y-112021905D01*
X107499781Y-110545714D02*
X107499781Y-111021905D01*
X107975971Y-111069524D01*
X107928352Y-111021905D01*
X107880733Y-110926667D01*
X107880733Y-110688571D01*
X107928352Y-110593333D01*
X107975971Y-110545714D01*
X108071210Y-110498095D01*
X108309305Y-110498095D01*
X108404543Y-110545714D01*
X108452162Y-110593333D01*
X108499781Y-110688571D01*
X108499781Y-110926667D01*
X108452162Y-111021905D01*
X108404543Y-111069524D01*
X116627781Y-112402857D02*
X116151590Y-112736191D01*
X116627781Y-112974286D02*
X115627781Y-112974286D01*
X115627781Y-112593333D01*
X115675400Y-112498095D01*
X115723019Y-112450476D01*
X115818257Y-112402857D01*
X115961114Y-112402857D01*
X116056352Y-112450476D01*
X116103971Y-112498095D01*
X116151590Y-112593333D01*
X116151590Y-112974286D01*
X116627781Y-111450476D02*
X116627781Y-112021905D01*
X116627781Y-111736191D02*
X115627781Y-111736191D01*
X115770638Y-111831429D01*
X115865876Y-111926667D01*
X115913495Y-112021905D01*
X115627781Y-110593333D02*
X115627781Y-110783810D01*
X115675400Y-110879048D01*
X115723019Y-110926667D01*
X115865876Y-111021905D01*
X116056352Y-111069524D01*
X116437305Y-111069524D01*
X116532543Y-111021905D01*
X116580162Y-110974286D01*
X116627781Y-110879048D01*
X116627781Y-110688571D01*
X116580162Y-110593333D01*
X116532543Y-110545714D01*
X116437305Y-110498095D01*
X116199210Y-110498095D01*
X116103971Y-110545714D01*
X116056352Y-110593333D01*
X116008733Y-110688571D01*
X116008733Y-110879048D01*
X116056352Y-110974286D01*
X116103971Y-111021905D01*
X116199210Y-111069524D01*
X131215781Y-96654857D02*
X130739590Y-96988191D01*
X131215781Y-97226286D02*
X130215781Y-97226286D01*
X130215781Y-96845333D01*
X130263400Y-96750095D01*
X130311019Y-96702476D01*
X130406257Y-96654857D01*
X130549114Y-96654857D01*
X130644352Y-96702476D01*
X130691971Y-96750095D01*
X130739590Y-96845333D01*
X130739590Y-97226286D01*
X131215781Y-95702476D02*
X131215781Y-96273905D01*
X131215781Y-95988191D02*
X130215781Y-95988191D01*
X130358638Y-96083429D01*
X130453876Y-96178667D01*
X130501495Y-96273905D01*
X130215781Y-95369143D02*
X130215781Y-94702476D01*
X131215781Y-95131048D01*
X135787781Y-96654857D02*
X135311590Y-96988191D01*
X135787781Y-97226286D02*
X134787781Y-97226286D01*
X134787781Y-96845333D01*
X134835400Y-96750095D01*
X134883019Y-96702476D01*
X134978257Y-96654857D01*
X135121114Y-96654857D01*
X135216352Y-96702476D01*
X135263971Y-96750095D01*
X135311590Y-96845333D01*
X135311590Y-97226286D01*
X135787781Y-95702476D02*
X135787781Y-96273905D01*
X135787781Y-95988191D02*
X134787781Y-95988191D01*
X134930638Y-96083429D01*
X135025876Y-96178667D01*
X135073495Y-96273905D01*
X135216352Y-95131048D02*
X135168733Y-95226286D01*
X135121114Y-95273905D01*
X135025876Y-95321524D01*
X134978257Y-95321524D01*
X134883019Y-95273905D01*
X134835400Y-95226286D01*
X134787781Y-95131048D01*
X134787781Y-94940571D01*
X134835400Y-94845333D01*
X134883019Y-94797714D01*
X134978257Y-94750095D01*
X135025876Y-94750095D01*
X135121114Y-94797714D01*
X135168733Y-94845333D01*
X135216352Y-94940571D01*
X135216352Y-95131048D01*
X135263971Y-95226286D01*
X135311590Y-95273905D01*
X135406829Y-95321524D01*
X135597305Y-95321524D01*
X135692543Y-95273905D01*
X135740162Y-95226286D01*
X135787781Y-95131048D01*
X135787781Y-94940571D01*
X135740162Y-94845333D01*
X135692543Y-94797714D01*
X135597305Y-94750095D01*
X135406829Y-94750095D01*
X135311590Y-94797714D01*
X135263971Y-94845333D01*
X135216352Y-94940571D01*
X139851781Y-96654857D02*
X139375590Y-96988191D01*
X139851781Y-97226286D02*
X138851781Y-97226286D01*
X138851781Y-96845333D01*
X138899400Y-96750095D01*
X138947019Y-96702476D01*
X139042257Y-96654857D01*
X139185114Y-96654857D01*
X139280352Y-96702476D01*
X139327971Y-96750095D01*
X139375590Y-96845333D01*
X139375590Y-97226286D01*
X139851781Y-95702476D02*
X139851781Y-96273905D01*
X139851781Y-95988191D02*
X138851781Y-95988191D01*
X138994638Y-96083429D01*
X139089876Y-96178667D01*
X139137495Y-96273905D01*
X139851781Y-95226286D02*
X139851781Y-95035810D01*
X139804162Y-94940571D01*
X139756543Y-94892952D01*
X139613686Y-94797714D01*
X139423210Y-94750095D01*
X139042257Y-94750095D01*
X138947019Y-94797714D01*
X138899400Y-94845333D01*
X138851781Y-94940571D01*
X138851781Y-95131048D01*
X138899400Y-95226286D01*
X138947019Y-95273905D01*
X139042257Y-95321524D01*
X139280352Y-95321524D01*
X139375590Y-95273905D01*
X139423210Y-95226286D01*
X139470829Y-95131048D01*
X139470829Y-94940571D01*
X139423210Y-94845333D01*
X139375590Y-94797714D01*
X139280352Y-94750095D01*
X144423781Y-96654857D02*
X143947590Y-96988191D01*
X144423781Y-97226286D02*
X143423781Y-97226286D01*
X143423781Y-96845333D01*
X143471400Y-96750095D01*
X143519019Y-96702476D01*
X143614257Y-96654857D01*
X143757114Y-96654857D01*
X143852352Y-96702476D01*
X143899971Y-96750095D01*
X143947590Y-96845333D01*
X143947590Y-97226286D01*
X143519019Y-96273905D02*
X143471400Y-96226286D01*
X143423781Y-96131048D01*
X143423781Y-95892952D01*
X143471400Y-95797714D01*
X143519019Y-95750095D01*
X143614257Y-95702476D01*
X143709495Y-95702476D01*
X143852352Y-95750095D01*
X144423781Y-96321524D01*
X144423781Y-95702476D01*
X143423781Y-95083429D02*
X143423781Y-94988190D01*
X143471400Y-94892952D01*
X143519019Y-94845333D01*
X143614257Y-94797714D01*
X143804733Y-94750095D01*
X144042829Y-94750095D01*
X144233305Y-94797714D01*
X144328543Y-94845333D01*
X144376162Y-94892952D01*
X144423781Y-94988190D01*
X144423781Y-95083429D01*
X144376162Y-95178667D01*
X144328543Y-95226286D01*
X144233305Y-95273905D01*
X144042829Y-95321524D01*
X143804733Y-95321524D01*
X143614257Y-95273905D01*
X143519019Y-95226286D01*
X143471400Y-95178667D01*
X143423781Y-95083429D01*
X148487781Y-96654857D02*
X148011590Y-96988191D01*
X148487781Y-97226286D02*
X147487781Y-97226286D01*
X147487781Y-96845333D01*
X147535400Y-96750095D01*
X147583019Y-96702476D01*
X147678257Y-96654857D01*
X147821114Y-96654857D01*
X147916352Y-96702476D01*
X147963971Y-96750095D01*
X148011590Y-96845333D01*
X148011590Y-97226286D01*
X147583019Y-96273905D02*
X147535400Y-96226286D01*
X147487781Y-96131048D01*
X147487781Y-95892952D01*
X147535400Y-95797714D01*
X147583019Y-95750095D01*
X147678257Y-95702476D01*
X147773495Y-95702476D01*
X147916352Y-95750095D01*
X148487781Y-96321524D01*
X148487781Y-95702476D01*
X148487781Y-94750095D02*
X148487781Y-95321524D01*
X148487781Y-95035810D02*
X147487781Y-95035810D01*
X147630638Y-95131048D01*
X147725876Y-95226286D01*
X147773495Y-95321524D01*
X121141781Y-112402857D02*
X120665590Y-112736191D01*
X121141781Y-112974286D02*
X120141781Y-112974286D01*
X120141781Y-112593333D01*
X120189400Y-112498095D01*
X120237019Y-112450476D01*
X120332257Y-112402857D01*
X120475114Y-112402857D01*
X120570352Y-112450476D01*
X120617971Y-112498095D01*
X120665590Y-112593333D01*
X120665590Y-112974286D01*
X120237019Y-112021905D02*
X120189400Y-111974286D01*
X120141781Y-111879048D01*
X120141781Y-111640952D01*
X120189400Y-111545714D01*
X120237019Y-111498095D01*
X120332257Y-111450476D01*
X120427495Y-111450476D01*
X120570352Y-111498095D01*
X121141781Y-112069524D01*
X121141781Y-111450476D01*
X120237019Y-111069524D02*
X120189400Y-111021905D01*
X120141781Y-110926667D01*
X120141781Y-110688571D01*
X120189400Y-110593333D01*
X120237019Y-110545714D01*
X120332257Y-110498095D01*
X120427495Y-110498095D01*
X120570352Y-110545714D01*
X121141781Y-111117143D01*
X121141781Y-110498095D01*
X129269781Y-112402857D02*
X128793590Y-112736191D01*
X129269781Y-112974286D02*
X128269781Y-112974286D01*
X128269781Y-112593333D01*
X128317400Y-112498095D01*
X128365019Y-112450476D01*
X128460257Y-112402857D01*
X128603114Y-112402857D01*
X128698352Y-112450476D01*
X128745971Y-112498095D01*
X128793590Y-112593333D01*
X128793590Y-112974286D01*
X128365019Y-112021905D02*
X128317400Y-111974286D01*
X128269781Y-111879048D01*
X128269781Y-111640952D01*
X128317400Y-111545714D01*
X128365019Y-111498095D01*
X128460257Y-111450476D01*
X128555495Y-111450476D01*
X128698352Y-111498095D01*
X129269781Y-112069524D01*
X129269781Y-111450476D01*
X128269781Y-111117143D02*
X128269781Y-110498095D01*
X128650733Y-110831429D01*
X128650733Y-110688571D01*
X128698352Y-110593333D01*
X128745971Y-110545714D01*
X128841210Y-110498095D01*
X129079305Y-110498095D01*
X129174543Y-110545714D01*
X129222162Y-110593333D01*
X129269781Y-110688571D01*
X129269781Y-110974286D01*
X129222162Y-111069524D01*
X129174543Y-111117143D01*
X137397781Y-112402857D02*
X136921590Y-112736191D01*
X137397781Y-112974286D02*
X136397781Y-112974286D01*
X136397781Y-112593333D01*
X136445400Y-112498095D01*
X136493019Y-112450476D01*
X136588257Y-112402857D01*
X136731114Y-112402857D01*
X136826352Y-112450476D01*
X136873971Y-112498095D01*
X136921590Y-112593333D01*
X136921590Y-112974286D01*
X136493019Y-112021905D02*
X136445400Y-111974286D01*
X136397781Y-111879048D01*
X136397781Y-111640952D01*
X136445400Y-111545714D01*
X136493019Y-111498095D01*
X136588257Y-111450476D01*
X136683495Y-111450476D01*
X136826352Y-111498095D01*
X137397781Y-112069524D01*
X137397781Y-111450476D01*
X136731114Y-110593333D02*
X137397781Y-110593333D01*
X136350162Y-110831429D02*
X137064448Y-111069524D01*
X137064448Y-110450476D01*
X145525781Y-112402857D02*
X145049590Y-112736191D01*
X145525781Y-112974286D02*
X144525781Y-112974286D01*
X144525781Y-112593333D01*
X144573400Y-112498095D01*
X144621019Y-112450476D01*
X144716257Y-112402857D01*
X144859114Y-112402857D01*
X144954352Y-112450476D01*
X145001971Y-112498095D01*
X145049590Y-112593333D01*
X145049590Y-112974286D01*
X144621019Y-112021905D02*
X144573400Y-111974286D01*
X144525781Y-111879048D01*
X144525781Y-111640952D01*
X144573400Y-111545714D01*
X144621019Y-111498095D01*
X144716257Y-111450476D01*
X144811495Y-111450476D01*
X144954352Y-111498095D01*
X145525781Y-112069524D01*
X145525781Y-111450476D01*
X144525781Y-110545714D02*
X144525781Y-111021905D01*
X145001971Y-111069524D01*
X144954352Y-111021905D01*
X144906733Y-110926667D01*
X144906733Y-110688571D01*
X144954352Y-110593333D01*
X145001971Y-110545714D01*
X145097210Y-110498095D01*
X145335305Y-110498095D01*
X145430543Y-110545714D01*
X145478162Y-110593333D01*
X145525781Y-110688571D01*
X145525781Y-110926667D01*
X145478162Y-111021905D01*
X145430543Y-111069524D01*
X153653781Y-112402857D02*
X153177590Y-112736191D01*
X153653781Y-112974286D02*
X152653781Y-112974286D01*
X152653781Y-112593333D01*
X152701400Y-112498095D01*
X152749019Y-112450476D01*
X152844257Y-112402857D01*
X152987114Y-112402857D01*
X153082352Y-112450476D01*
X153129971Y-112498095D01*
X153177590Y-112593333D01*
X153177590Y-112974286D01*
X152749019Y-112021905D02*
X152701400Y-111974286D01*
X152653781Y-111879048D01*
X152653781Y-111640952D01*
X152701400Y-111545714D01*
X152749019Y-111498095D01*
X152844257Y-111450476D01*
X152939495Y-111450476D01*
X153082352Y-111498095D01*
X153653781Y-112069524D01*
X153653781Y-111450476D01*
X152653781Y-110593333D02*
X152653781Y-110783810D01*
X152701400Y-110879048D01*
X152749019Y-110926667D01*
X152891876Y-111021905D01*
X153082352Y-111069524D01*
X153463305Y-111069524D01*
X153558543Y-111021905D01*
X153606162Y-110974286D01*
X153653781Y-110879048D01*
X153653781Y-110688571D01*
X153606162Y-110593333D01*
X153558543Y-110545714D01*
X153463305Y-110498095D01*
X153225210Y-110498095D01*
X153129971Y-110545714D01*
X153082352Y-110593333D01*
X153034733Y-110688571D01*
X153034733Y-110879048D01*
X153082352Y-110974286D01*
X153129971Y-111021905D01*
X153225210Y-111069524D01*
X124755781Y-112402857D02*
X124279590Y-112736191D01*
X124755781Y-112974286D02*
X123755781Y-112974286D01*
X123755781Y-112593333D01*
X123803400Y-112498095D01*
X123851019Y-112450476D01*
X123946257Y-112402857D01*
X124089114Y-112402857D01*
X124184352Y-112450476D01*
X124231971Y-112498095D01*
X124279590Y-112593333D01*
X124279590Y-112974286D01*
X123851019Y-112021905D02*
X123803400Y-111974286D01*
X123755781Y-111879048D01*
X123755781Y-111640952D01*
X123803400Y-111545714D01*
X123851019Y-111498095D01*
X123946257Y-111450476D01*
X124041495Y-111450476D01*
X124184352Y-111498095D01*
X124755781Y-112069524D01*
X124755781Y-111450476D01*
X123755781Y-111117143D02*
X123755781Y-110450476D01*
X124755781Y-110879048D01*
X132883781Y-112402857D02*
X132407590Y-112736191D01*
X132883781Y-112974286D02*
X131883781Y-112974286D01*
X131883781Y-112593333D01*
X131931400Y-112498095D01*
X131979019Y-112450476D01*
X132074257Y-112402857D01*
X132217114Y-112402857D01*
X132312352Y-112450476D01*
X132359971Y-112498095D01*
X132407590Y-112593333D01*
X132407590Y-112974286D01*
X131979019Y-112021905D02*
X131931400Y-111974286D01*
X131883781Y-111879048D01*
X131883781Y-111640952D01*
X131931400Y-111545714D01*
X131979019Y-111498095D01*
X132074257Y-111450476D01*
X132169495Y-111450476D01*
X132312352Y-111498095D01*
X132883781Y-112069524D01*
X132883781Y-111450476D01*
X132312352Y-110879048D02*
X132264733Y-110974286D01*
X132217114Y-111021905D01*
X132121876Y-111069524D01*
X132074257Y-111069524D01*
X131979019Y-111021905D01*
X131931400Y-110974286D01*
X131883781Y-110879048D01*
X131883781Y-110688571D01*
X131931400Y-110593333D01*
X131979019Y-110545714D01*
X132074257Y-110498095D01*
X132121876Y-110498095D01*
X132217114Y-110545714D01*
X132264733Y-110593333D01*
X132312352Y-110688571D01*
X132312352Y-110879048D01*
X132359971Y-110974286D01*
X132407590Y-111021905D01*
X132502829Y-111069524D01*
X132693305Y-111069524D01*
X132788543Y-111021905D01*
X132836162Y-110974286D01*
X132883781Y-110879048D01*
X132883781Y-110688571D01*
X132836162Y-110593333D01*
X132788543Y-110545714D01*
X132693305Y-110498095D01*
X132502829Y-110498095D01*
X132407590Y-110545714D01*
X132359971Y-110593333D01*
X132312352Y-110688571D01*
X141011781Y-112402857D02*
X140535590Y-112736191D01*
X141011781Y-112974286D02*
X140011781Y-112974286D01*
X140011781Y-112593333D01*
X140059400Y-112498095D01*
X140107019Y-112450476D01*
X140202257Y-112402857D01*
X140345114Y-112402857D01*
X140440352Y-112450476D01*
X140487971Y-112498095D01*
X140535590Y-112593333D01*
X140535590Y-112974286D01*
X140107019Y-112021905D02*
X140059400Y-111974286D01*
X140011781Y-111879048D01*
X140011781Y-111640952D01*
X140059400Y-111545714D01*
X140107019Y-111498095D01*
X140202257Y-111450476D01*
X140297495Y-111450476D01*
X140440352Y-111498095D01*
X141011781Y-112069524D01*
X141011781Y-111450476D01*
X141011781Y-110974286D02*
X141011781Y-110783810D01*
X140964162Y-110688571D01*
X140916543Y-110640952D01*
X140773686Y-110545714D01*
X140583210Y-110498095D01*
X140202257Y-110498095D01*
X140107019Y-110545714D01*
X140059400Y-110593333D01*
X140011781Y-110688571D01*
X140011781Y-110879048D01*
X140059400Y-110974286D01*
X140107019Y-111021905D01*
X140202257Y-111069524D01*
X140440352Y-111069524D01*
X140535590Y-111021905D01*
X140583210Y-110974286D01*
X140630829Y-110879048D01*
X140630829Y-110688571D01*
X140583210Y-110593333D01*
X140535590Y-110545714D01*
X140440352Y-110498095D01*
X149139781Y-112402857D02*
X148663590Y-112736191D01*
X149139781Y-112974286D02*
X148139781Y-112974286D01*
X148139781Y-112593333D01*
X148187400Y-112498095D01*
X148235019Y-112450476D01*
X148330257Y-112402857D01*
X148473114Y-112402857D01*
X148568352Y-112450476D01*
X148615971Y-112498095D01*
X148663590Y-112593333D01*
X148663590Y-112974286D01*
X148139781Y-112069524D02*
X148139781Y-111450476D01*
X148520733Y-111783810D01*
X148520733Y-111640952D01*
X148568352Y-111545714D01*
X148615971Y-111498095D01*
X148711210Y-111450476D01*
X148949305Y-111450476D01*
X149044543Y-111498095D01*
X149092162Y-111545714D01*
X149139781Y-111640952D01*
X149139781Y-111926667D01*
X149092162Y-112021905D01*
X149044543Y-112069524D01*
X148139781Y-110831429D02*
X148139781Y-110736190D01*
X148187400Y-110640952D01*
X148235019Y-110593333D01*
X148330257Y-110545714D01*
X148520733Y-110498095D01*
X148758829Y-110498095D01*
X148949305Y-110545714D01*
X149044543Y-110593333D01*
X149092162Y-110640952D01*
X149139781Y-110736190D01*
X149139781Y-110831429D01*
X149092162Y-110926667D01*
X149044543Y-110974286D01*
X148949305Y-111021905D01*
X148758829Y-111069524D01*
X148520733Y-111069524D01*
X148330257Y-111021905D01*
X148235019Y-110974286D01*
X148187400Y-110926667D01*
X148139781Y-110831429D01*
X157267781Y-112402857D02*
X156791590Y-112736191D01*
X157267781Y-112974286D02*
X156267781Y-112974286D01*
X156267781Y-112593333D01*
X156315400Y-112498095D01*
X156363019Y-112450476D01*
X156458257Y-112402857D01*
X156601114Y-112402857D01*
X156696352Y-112450476D01*
X156743971Y-112498095D01*
X156791590Y-112593333D01*
X156791590Y-112974286D01*
X156267781Y-112069524D02*
X156267781Y-111450476D01*
X156648733Y-111783810D01*
X156648733Y-111640952D01*
X156696352Y-111545714D01*
X156743971Y-111498095D01*
X156839210Y-111450476D01*
X157077305Y-111450476D01*
X157172543Y-111498095D01*
X157220162Y-111545714D01*
X157267781Y-111640952D01*
X157267781Y-111926667D01*
X157220162Y-112021905D01*
X157172543Y-112069524D01*
X157267781Y-110498095D02*
X157267781Y-111069524D01*
X157267781Y-110783810D02*
X156267781Y-110783810D01*
X156410638Y-110879048D01*
X156505876Y-110974286D01*
X156553495Y-111069524D01*
X153059781Y-96654857D02*
X152583590Y-96988191D01*
X153059781Y-97226286D02*
X152059781Y-97226286D01*
X152059781Y-96845333D01*
X152107400Y-96750095D01*
X152155019Y-96702476D01*
X152250257Y-96654857D01*
X152393114Y-96654857D01*
X152488352Y-96702476D01*
X152535971Y-96750095D01*
X152583590Y-96845333D01*
X152583590Y-97226286D01*
X152059781Y-96321524D02*
X152059781Y-95702476D01*
X152440733Y-96035810D01*
X152440733Y-95892952D01*
X152488352Y-95797714D01*
X152535971Y-95750095D01*
X152631210Y-95702476D01*
X152869305Y-95702476D01*
X152964543Y-95750095D01*
X153012162Y-95797714D01*
X153059781Y-95892952D01*
X153059781Y-96178667D01*
X153012162Y-96273905D01*
X152964543Y-96321524D01*
X152155019Y-95321524D02*
X152107400Y-95273905D01*
X152059781Y-95178667D01*
X152059781Y-94940571D01*
X152107400Y-94845333D01*
X152155019Y-94797714D01*
X152250257Y-94750095D01*
X152345495Y-94750095D01*
X152488352Y-94797714D01*
X153059781Y-95369143D01*
X153059781Y-94750095D01*
X157123781Y-96654857D02*
X156647590Y-96988191D01*
X157123781Y-97226286D02*
X156123781Y-97226286D01*
X156123781Y-96845333D01*
X156171400Y-96750095D01*
X156219019Y-96702476D01*
X156314257Y-96654857D01*
X156457114Y-96654857D01*
X156552352Y-96702476D01*
X156599971Y-96750095D01*
X156647590Y-96845333D01*
X156647590Y-97226286D01*
X156123781Y-96321524D02*
X156123781Y-95702476D01*
X156504733Y-96035810D01*
X156504733Y-95892952D01*
X156552352Y-95797714D01*
X156599971Y-95750095D01*
X156695210Y-95702476D01*
X156933305Y-95702476D01*
X157028543Y-95750095D01*
X157076162Y-95797714D01*
X157123781Y-95892952D01*
X157123781Y-96178667D01*
X157076162Y-96273905D01*
X157028543Y-96321524D01*
X156123781Y-95369143D02*
X156123781Y-94750095D01*
X156504733Y-95083429D01*
X156504733Y-94940571D01*
X156552352Y-94845333D01*
X156599971Y-94797714D01*
X156695210Y-94750095D01*
X156933305Y-94750095D01*
X157028543Y-94797714D01*
X157076162Y-94845333D01*
X157123781Y-94940571D01*
X157123781Y-95226286D01*
X157076162Y-95321524D01*
X157028543Y-95369143D01*
X161187781Y-96654857D02*
X160711590Y-96988191D01*
X161187781Y-97226286D02*
X160187781Y-97226286D01*
X160187781Y-96845333D01*
X160235400Y-96750095D01*
X160283019Y-96702476D01*
X160378257Y-96654857D01*
X160521114Y-96654857D01*
X160616352Y-96702476D01*
X160663971Y-96750095D01*
X160711590Y-96845333D01*
X160711590Y-97226286D01*
X160187781Y-96321524D02*
X160187781Y-95702476D01*
X160568733Y-96035810D01*
X160568733Y-95892952D01*
X160616352Y-95797714D01*
X160663971Y-95750095D01*
X160759210Y-95702476D01*
X160997305Y-95702476D01*
X161092543Y-95750095D01*
X161140162Y-95797714D01*
X161187781Y-95892952D01*
X161187781Y-96178667D01*
X161140162Y-96273905D01*
X161092543Y-96321524D01*
X160521114Y-94845333D02*
X161187781Y-94845333D01*
X160140162Y-95083429D02*
X160854448Y-95321524D01*
X160854448Y-94702476D01*
X165251781Y-96654857D02*
X164775590Y-96988191D01*
X165251781Y-97226286D02*
X164251781Y-97226286D01*
X164251781Y-96845333D01*
X164299400Y-96750095D01*
X164347019Y-96702476D01*
X164442257Y-96654857D01*
X164585114Y-96654857D01*
X164680352Y-96702476D01*
X164727971Y-96750095D01*
X164775590Y-96845333D01*
X164775590Y-97226286D01*
X164251781Y-96321524D02*
X164251781Y-95702476D01*
X164632733Y-96035810D01*
X164632733Y-95892952D01*
X164680352Y-95797714D01*
X164727971Y-95750095D01*
X164823210Y-95702476D01*
X165061305Y-95702476D01*
X165156543Y-95750095D01*
X165204162Y-95797714D01*
X165251781Y-95892952D01*
X165251781Y-96178667D01*
X165204162Y-96273905D01*
X165156543Y-96321524D01*
X164251781Y-94797714D02*
X164251781Y-95273905D01*
X164727971Y-95321524D01*
X164680352Y-95273905D01*
X164632733Y-95178667D01*
X164632733Y-94940571D01*
X164680352Y-94845333D01*
X164727971Y-94797714D01*
X164823210Y-94750095D01*
X165061305Y-94750095D01*
X165156543Y-94797714D01*
X165204162Y-94845333D01*
X165251781Y-94940571D01*
X165251781Y-95178667D01*
X165204162Y-95273905D01*
X165156543Y-95321524D01*
X170331781Y-96654857D02*
X169855590Y-96988191D01*
X170331781Y-97226286D02*
X169331781Y-97226286D01*
X169331781Y-96845333D01*
X169379400Y-96750095D01*
X169427019Y-96702476D01*
X169522257Y-96654857D01*
X169665114Y-96654857D01*
X169760352Y-96702476D01*
X169807971Y-96750095D01*
X169855590Y-96845333D01*
X169855590Y-97226286D01*
X169331781Y-96321524D02*
X169331781Y-95702476D01*
X169712733Y-96035810D01*
X169712733Y-95892952D01*
X169760352Y-95797714D01*
X169807971Y-95750095D01*
X169903210Y-95702476D01*
X170141305Y-95702476D01*
X170236543Y-95750095D01*
X170284162Y-95797714D01*
X170331781Y-95892952D01*
X170331781Y-96178667D01*
X170284162Y-96273905D01*
X170236543Y-96321524D01*
X169331781Y-94845333D02*
X169331781Y-95035810D01*
X169379400Y-95131048D01*
X169427019Y-95178667D01*
X169569876Y-95273905D01*
X169760352Y-95321524D01*
X170141305Y-95321524D01*
X170236543Y-95273905D01*
X170284162Y-95226286D01*
X170331781Y-95131048D01*
X170331781Y-94940571D01*
X170284162Y-94845333D01*
X170236543Y-94797714D01*
X170141305Y-94750095D01*
X169903210Y-94750095D01*
X169807971Y-94797714D01*
X169760352Y-94845333D01*
X169712733Y-94940571D01*
X169712733Y-95131048D01*
X169760352Y-95226286D01*
X169807971Y-95273905D01*
X169903210Y-95321524D01*
X161781781Y-112402857D02*
X161305590Y-112736191D01*
X161781781Y-112974286D02*
X160781781Y-112974286D01*
X160781781Y-112593333D01*
X160829400Y-112498095D01*
X160877019Y-112450476D01*
X160972257Y-112402857D01*
X161115114Y-112402857D01*
X161210352Y-112450476D01*
X161257971Y-112498095D01*
X161305590Y-112593333D01*
X161305590Y-112974286D01*
X160781781Y-112069524D02*
X160781781Y-111450476D01*
X161162733Y-111783810D01*
X161162733Y-111640952D01*
X161210352Y-111545714D01*
X161257971Y-111498095D01*
X161353210Y-111450476D01*
X161591305Y-111450476D01*
X161686543Y-111498095D01*
X161734162Y-111545714D01*
X161781781Y-111640952D01*
X161781781Y-111926667D01*
X161734162Y-112021905D01*
X161686543Y-112069524D01*
X160781781Y-111117143D02*
X160781781Y-110450476D01*
X161781781Y-110879048D01*
X169909781Y-112402857D02*
X169433590Y-112736191D01*
X169909781Y-112974286D02*
X168909781Y-112974286D01*
X168909781Y-112593333D01*
X168957400Y-112498095D01*
X169005019Y-112450476D01*
X169100257Y-112402857D01*
X169243114Y-112402857D01*
X169338352Y-112450476D01*
X169385971Y-112498095D01*
X169433590Y-112593333D01*
X169433590Y-112974286D01*
X168909781Y-112069524D02*
X168909781Y-111450476D01*
X169290733Y-111783810D01*
X169290733Y-111640952D01*
X169338352Y-111545714D01*
X169385971Y-111498095D01*
X169481210Y-111450476D01*
X169719305Y-111450476D01*
X169814543Y-111498095D01*
X169862162Y-111545714D01*
X169909781Y-111640952D01*
X169909781Y-111926667D01*
X169862162Y-112021905D01*
X169814543Y-112069524D01*
X169338352Y-110879048D02*
X169290733Y-110974286D01*
X169243114Y-111021905D01*
X169147876Y-111069524D01*
X169100257Y-111069524D01*
X169005019Y-111021905D01*
X168957400Y-110974286D01*
X168909781Y-110879048D01*
X168909781Y-110688571D01*
X168957400Y-110593333D01*
X169005019Y-110545714D01*
X169100257Y-110498095D01*
X169147876Y-110498095D01*
X169243114Y-110545714D01*
X169290733Y-110593333D01*
X169338352Y-110688571D01*
X169338352Y-110879048D01*
X169385971Y-110974286D01*
X169433590Y-111021905D01*
X169528829Y-111069524D01*
X169719305Y-111069524D01*
X169814543Y-111021905D01*
X169862162Y-110974286D01*
X169909781Y-110879048D01*
X169909781Y-110688571D01*
X169862162Y-110593333D01*
X169814543Y-110545714D01*
X169719305Y-110498095D01*
X169528829Y-110498095D01*
X169433590Y-110545714D01*
X169385971Y-110593333D01*
X169338352Y-110688571D01*
X178037781Y-112402857D02*
X177561590Y-112736191D01*
X178037781Y-112974286D02*
X177037781Y-112974286D01*
X177037781Y-112593333D01*
X177085400Y-112498095D01*
X177133019Y-112450476D01*
X177228257Y-112402857D01*
X177371114Y-112402857D01*
X177466352Y-112450476D01*
X177513971Y-112498095D01*
X177561590Y-112593333D01*
X177561590Y-112974286D01*
X177037781Y-112069524D02*
X177037781Y-111450476D01*
X177418733Y-111783810D01*
X177418733Y-111640952D01*
X177466352Y-111545714D01*
X177513971Y-111498095D01*
X177609210Y-111450476D01*
X177847305Y-111450476D01*
X177942543Y-111498095D01*
X177990162Y-111545714D01*
X178037781Y-111640952D01*
X178037781Y-111926667D01*
X177990162Y-112021905D01*
X177942543Y-112069524D01*
X178037781Y-110974286D02*
X178037781Y-110783810D01*
X177990162Y-110688571D01*
X177942543Y-110640952D01*
X177799686Y-110545714D01*
X177609210Y-110498095D01*
X177228257Y-110498095D01*
X177133019Y-110545714D01*
X177085400Y-110593333D01*
X177037781Y-110688571D01*
X177037781Y-110879048D01*
X177085400Y-110974286D01*
X177133019Y-111021905D01*
X177228257Y-111069524D01*
X177466352Y-111069524D01*
X177561590Y-111021905D01*
X177609210Y-110974286D01*
X177656829Y-110879048D01*
X177656829Y-110688571D01*
X177609210Y-110593333D01*
X177561590Y-110545714D01*
X177466352Y-110498095D01*
X186165781Y-112402857D02*
X185689590Y-112736191D01*
X186165781Y-112974286D02*
X185165781Y-112974286D01*
X185165781Y-112593333D01*
X185213400Y-112498095D01*
X185261019Y-112450476D01*
X185356257Y-112402857D01*
X185499114Y-112402857D01*
X185594352Y-112450476D01*
X185641971Y-112498095D01*
X185689590Y-112593333D01*
X185689590Y-112974286D01*
X185499114Y-111545714D02*
X186165781Y-111545714D01*
X185118162Y-111783810D02*
X185832448Y-112021905D01*
X185832448Y-111402857D01*
X185165781Y-110831429D02*
X185165781Y-110736190D01*
X185213400Y-110640952D01*
X185261019Y-110593333D01*
X185356257Y-110545714D01*
X185546733Y-110498095D01*
X185784829Y-110498095D01*
X185975305Y-110545714D01*
X186070543Y-110593333D01*
X186118162Y-110640952D01*
X186165781Y-110736190D01*
X186165781Y-110831429D01*
X186118162Y-110926667D01*
X186070543Y-110974286D01*
X185975305Y-111021905D01*
X185784829Y-111069524D01*
X185546733Y-111069524D01*
X185356257Y-111021905D01*
X185261019Y-110974286D01*
X185213400Y-110926667D01*
X185165781Y-110831429D01*
X194293781Y-112402857D02*
X193817590Y-112736191D01*
X194293781Y-112974286D02*
X193293781Y-112974286D01*
X193293781Y-112593333D01*
X193341400Y-112498095D01*
X193389019Y-112450476D01*
X193484257Y-112402857D01*
X193627114Y-112402857D01*
X193722352Y-112450476D01*
X193769971Y-112498095D01*
X193817590Y-112593333D01*
X193817590Y-112974286D01*
X193627114Y-111545714D02*
X194293781Y-111545714D01*
X193246162Y-111783810D02*
X193960448Y-112021905D01*
X193960448Y-111402857D01*
X194293781Y-110498095D02*
X194293781Y-111069524D01*
X194293781Y-110783810D02*
X193293781Y-110783810D01*
X193436638Y-110879048D01*
X193531876Y-110974286D01*
X193579495Y-111069524D01*
X165395781Y-112402857D02*
X164919590Y-112736191D01*
X165395781Y-112974286D02*
X164395781Y-112974286D01*
X164395781Y-112593333D01*
X164443400Y-112498095D01*
X164491019Y-112450476D01*
X164586257Y-112402857D01*
X164729114Y-112402857D01*
X164824352Y-112450476D01*
X164871971Y-112498095D01*
X164919590Y-112593333D01*
X164919590Y-112974286D01*
X164729114Y-111545714D02*
X165395781Y-111545714D01*
X164348162Y-111783810D02*
X165062448Y-112021905D01*
X165062448Y-111402857D01*
X164491019Y-111069524D02*
X164443400Y-111021905D01*
X164395781Y-110926667D01*
X164395781Y-110688571D01*
X164443400Y-110593333D01*
X164491019Y-110545714D01*
X164586257Y-110498095D01*
X164681495Y-110498095D01*
X164824352Y-110545714D01*
X165395781Y-111117143D01*
X165395781Y-110498095D01*
X173523781Y-112402857D02*
X173047590Y-112736191D01*
X173523781Y-112974286D02*
X172523781Y-112974286D01*
X172523781Y-112593333D01*
X172571400Y-112498095D01*
X172619019Y-112450476D01*
X172714257Y-112402857D01*
X172857114Y-112402857D01*
X172952352Y-112450476D01*
X172999971Y-112498095D01*
X173047590Y-112593333D01*
X173047590Y-112974286D01*
X172857114Y-111545714D02*
X173523781Y-111545714D01*
X172476162Y-111783810D02*
X173190448Y-112021905D01*
X173190448Y-111402857D01*
X172523781Y-111117143D02*
X172523781Y-110498095D01*
X172904733Y-110831429D01*
X172904733Y-110688571D01*
X172952352Y-110593333D01*
X172999971Y-110545714D01*
X173095210Y-110498095D01*
X173333305Y-110498095D01*
X173428543Y-110545714D01*
X173476162Y-110593333D01*
X173523781Y-110688571D01*
X173523781Y-110974286D01*
X173476162Y-111069524D01*
X173428543Y-111117143D01*
X181651781Y-112402857D02*
X181175590Y-112736191D01*
X181651781Y-112974286D02*
X180651781Y-112974286D01*
X180651781Y-112593333D01*
X180699400Y-112498095D01*
X180747019Y-112450476D01*
X180842257Y-112402857D01*
X180985114Y-112402857D01*
X181080352Y-112450476D01*
X181127971Y-112498095D01*
X181175590Y-112593333D01*
X181175590Y-112974286D01*
X180985114Y-111545714D02*
X181651781Y-111545714D01*
X180604162Y-111783810D02*
X181318448Y-112021905D01*
X181318448Y-111402857D01*
X180985114Y-110593333D02*
X181651781Y-110593333D01*
X180604162Y-110831429D02*
X181318448Y-111069524D01*
X181318448Y-110450476D01*
X189779781Y-112402857D02*
X189303590Y-112736191D01*
X189779781Y-112974286D02*
X188779781Y-112974286D01*
X188779781Y-112593333D01*
X188827400Y-112498095D01*
X188875019Y-112450476D01*
X188970257Y-112402857D01*
X189113114Y-112402857D01*
X189208352Y-112450476D01*
X189255971Y-112498095D01*
X189303590Y-112593333D01*
X189303590Y-112974286D01*
X189113114Y-111545714D02*
X189779781Y-111545714D01*
X188732162Y-111783810D02*
X189446448Y-112021905D01*
X189446448Y-111402857D01*
X188779781Y-110545714D02*
X188779781Y-111021905D01*
X189255971Y-111069524D01*
X189208352Y-111021905D01*
X189160733Y-110926667D01*
X189160733Y-110688571D01*
X189208352Y-110593333D01*
X189255971Y-110545714D01*
X189351210Y-110498095D01*
X189589305Y-110498095D01*
X189684543Y-110545714D01*
X189732162Y-110593333D01*
X189779781Y-110688571D01*
X189779781Y-110926667D01*
X189732162Y-111021905D01*
X189684543Y-111069524D01*
X197907781Y-112402857D02*
X197431590Y-112736191D01*
X197907781Y-112974286D02*
X196907781Y-112974286D01*
X196907781Y-112593333D01*
X196955400Y-112498095D01*
X197003019Y-112450476D01*
X197098257Y-112402857D01*
X197241114Y-112402857D01*
X197336352Y-112450476D01*
X197383971Y-112498095D01*
X197431590Y-112593333D01*
X197431590Y-112974286D01*
X197241114Y-111545714D02*
X197907781Y-111545714D01*
X196860162Y-111783810D02*
X197574448Y-112021905D01*
X197574448Y-111402857D01*
X196907781Y-110593333D02*
X196907781Y-110783810D01*
X196955400Y-110879048D01*
X197003019Y-110926667D01*
X197145876Y-111021905D01*
X197336352Y-111069524D01*
X197717305Y-111069524D01*
X197812543Y-111021905D01*
X197860162Y-110974286D01*
X197907781Y-110879048D01*
X197907781Y-110688571D01*
X197860162Y-110593333D01*
X197812543Y-110545714D01*
X197717305Y-110498095D01*
X197479210Y-110498095D01*
X197383971Y-110545714D01*
X197336352Y-110593333D01*
X197288733Y-110688571D01*
X197288733Y-110879048D01*
X197336352Y-110974286D01*
X197383971Y-111021905D01*
X197479210Y-111069524D01*
X176649143Y-62428381D02*
X176315809Y-61952190D01*
X176077714Y-62428381D02*
X176077714Y-61428381D01*
X176458667Y-61428381D01*
X176553905Y-61476000D01*
X176601524Y-61523619D01*
X176649143Y-61618857D01*
X176649143Y-61761714D01*
X176601524Y-61856952D01*
X176553905Y-61904571D01*
X176458667Y-61952190D01*
X176077714Y-61952190D01*
X177506286Y-61761714D02*
X177506286Y-62428381D01*
X177268190Y-61380762D02*
X177030095Y-62095048D01*
X177649143Y-62095048D01*
X177934857Y-61428381D02*
X178601524Y-61428381D01*
X178172952Y-62428381D01*
X211500981Y-87637857D02*
X211024790Y-87971191D01*
X211500981Y-88209286D02*
X210500981Y-88209286D01*
X210500981Y-87828333D01*
X210548600Y-87733095D01*
X210596219Y-87685476D01*
X210691457Y-87637857D01*
X210834314Y-87637857D01*
X210929552Y-87685476D01*
X210977171Y-87733095D01*
X211024790Y-87828333D01*
X211024790Y-88209286D01*
X210834314Y-86780714D02*
X211500981Y-86780714D01*
X210453362Y-87018810D02*
X211167648Y-87256905D01*
X211167648Y-86637857D01*
X210929552Y-86114048D02*
X210881933Y-86209286D01*
X210834314Y-86256905D01*
X210739076Y-86304524D01*
X210691457Y-86304524D01*
X210596219Y-86256905D01*
X210548600Y-86209286D01*
X210500981Y-86114048D01*
X210500981Y-85923571D01*
X210548600Y-85828333D01*
X210596219Y-85780714D01*
X210691457Y-85733095D01*
X210739076Y-85733095D01*
X210834314Y-85780714D01*
X210881933Y-85828333D01*
X210929552Y-85923571D01*
X210929552Y-86114048D01*
X210977171Y-86209286D01*
X211024790Y-86256905D01*
X211120029Y-86304524D01*
X211310505Y-86304524D01*
X211405743Y-86256905D01*
X211453362Y-86209286D01*
X211500981Y-86114048D01*
X211500981Y-85923571D01*
X211453362Y-85828333D01*
X211405743Y-85780714D01*
X211310505Y-85733095D01*
X211120029Y-85733095D01*
X211024790Y-85780714D01*
X210977171Y-85828333D01*
X210929552Y-85923571D01*
X205097143Y-65294381D02*
X204763809Y-64818190D01*
X204525714Y-65294381D02*
X204525714Y-64294381D01*
X204906667Y-64294381D01*
X205001905Y-64342000D01*
X205049524Y-64389619D01*
X205097143Y-64484857D01*
X205097143Y-64627714D01*
X205049524Y-64722952D01*
X205001905Y-64770571D01*
X204906667Y-64818190D01*
X204525714Y-64818190D01*
X206001905Y-64294381D02*
X205525714Y-64294381D01*
X205478095Y-64770571D01*
X205525714Y-64722952D01*
X205620952Y-64675333D01*
X205859048Y-64675333D01*
X205954286Y-64722952D01*
X206001905Y-64770571D01*
X206049524Y-64865810D01*
X206049524Y-65103905D01*
X206001905Y-65199143D01*
X205954286Y-65246762D01*
X205859048Y-65294381D01*
X205620952Y-65294381D01*
X205525714Y-65246762D01*
X205478095Y-65199143D01*
X207001905Y-65294381D02*
X206430476Y-65294381D01*
X206716190Y-65294381D02*
X206716190Y-64294381D01*
X206620952Y-64437238D01*
X206525714Y-64532476D01*
X206430476Y-64580095D01*
X205097143Y-61230381D02*
X204763809Y-60754190D01*
X204525714Y-61230381D02*
X204525714Y-60230381D01*
X204906667Y-60230381D01*
X205001905Y-60278000D01*
X205049524Y-60325619D01*
X205097143Y-60420857D01*
X205097143Y-60563714D01*
X205049524Y-60658952D01*
X205001905Y-60706571D01*
X204906667Y-60754190D01*
X204525714Y-60754190D01*
X206001905Y-60230381D02*
X205525714Y-60230381D01*
X205478095Y-60706571D01*
X205525714Y-60658952D01*
X205620952Y-60611333D01*
X205859048Y-60611333D01*
X205954286Y-60658952D01*
X206001905Y-60706571D01*
X206049524Y-60801810D01*
X206049524Y-61039905D01*
X206001905Y-61135143D01*
X205954286Y-61182762D01*
X205859048Y-61230381D01*
X205620952Y-61230381D01*
X205525714Y-61182762D01*
X205478095Y-61135143D01*
X206430476Y-60325619D02*
X206478095Y-60278000D01*
X206573333Y-60230381D01*
X206811429Y-60230381D01*
X206906667Y-60278000D01*
X206954286Y-60325619D01*
X207001905Y-60420857D01*
X207001905Y-60516095D01*
X206954286Y-60658952D01*
X206382857Y-61230381D01*
X207001905Y-61230381D01*
X205097143Y-57166381D02*
X204763809Y-56690190D01*
X204525714Y-57166381D02*
X204525714Y-56166381D01*
X204906667Y-56166381D01*
X205001905Y-56214000D01*
X205049524Y-56261619D01*
X205097143Y-56356857D01*
X205097143Y-56499714D01*
X205049524Y-56594952D01*
X205001905Y-56642571D01*
X204906667Y-56690190D01*
X204525714Y-56690190D01*
X206001905Y-56166381D02*
X205525714Y-56166381D01*
X205478095Y-56642571D01*
X205525714Y-56594952D01*
X205620952Y-56547333D01*
X205859048Y-56547333D01*
X205954286Y-56594952D01*
X206001905Y-56642571D01*
X206049524Y-56737810D01*
X206049524Y-56975905D01*
X206001905Y-57071143D01*
X205954286Y-57118762D01*
X205859048Y-57166381D01*
X205620952Y-57166381D01*
X205525714Y-57118762D01*
X205478095Y-57071143D01*
X206382857Y-56166381D02*
X207001905Y-56166381D01*
X206668571Y-56547333D01*
X206811429Y-56547333D01*
X206906667Y-56594952D01*
X206954286Y-56642571D01*
X207001905Y-56737810D01*
X207001905Y-56975905D01*
X206954286Y-57071143D01*
X206906667Y-57118762D01*
X206811429Y-57166381D01*
X206525714Y-57166381D01*
X206430476Y-57118762D01*
X206382857Y-57071143D01*
X106426095Y-75126381D02*
X106426095Y-75935905D01*
X106473714Y-76031143D01*
X106521333Y-76078762D01*
X106616571Y-76126381D01*
X106807048Y-76126381D01*
X106902286Y-76078762D01*
X106949905Y-76031143D01*
X106997524Y-75935905D01*
X106997524Y-75126381D01*
X107997524Y-76126381D02*
X107426095Y-76126381D01*
X107711809Y-76126381D02*
X107711809Y-75126381D01*
X107616571Y-75269238D01*
X107521333Y-75364476D01*
X107426095Y-75412095D01*
X93218095Y-61393381D02*
X93218095Y-62202905D01*
X93265714Y-62298143D01*
X93313333Y-62345762D01*
X93408571Y-62393381D01*
X93599048Y-62393381D01*
X93694286Y-62345762D01*
X93741905Y-62298143D01*
X93789524Y-62202905D01*
X93789524Y-61393381D01*
X94218095Y-61488619D02*
X94265714Y-61441000D01*
X94360952Y-61393381D01*
X94599048Y-61393381D01*
X94694286Y-61441000D01*
X94741905Y-61488619D01*
X94789524Y-61583857D01*
X94789524Y-61679095D01*
X94741905Y-61821952D01*
X94170476Y-62393381D01*
X94789524Y-62393381D01*
X128336781Y-81978405D02*
X129146305Y-81978405D01*
X129241543Y-81930786D01*
X129289162Y-81883167D01*
X129336781Y-81787929D01*
X129336781Y-81597452D01*
X129289162Y-81502214D01*
X129241543Y-81454595D01*
X129146305Y-81406976D01*
X128336781Y-81406976D01*
X128336781Y-81026024D02*
X128336781Y-80406976D01*
X128717733Y-80740310D01*
X128717733Y-80597452D01*
X128765352Y-80502214D01*
X128812971Y-80454595D01*
X128908210Y-80406976D01*
X129146305Y-80406976D01*
X129241543Y-80454595D01*
X129289162Y-80502214D01*
X129336781Y-80597452D01*
X129336781Y-80883167D01*
X129289162Y-80978405D01*
X129241543Y-81026024D01*
X191008095Y-97219381D02*
X191008095Y-98028905D01*
X191055714Y-98124143D01*
X191103333Y-98171762D01*
X191198571Y-98219381D01*
X191389048Y-98219381D01*
X191484286Y-98171762D01*
X191531905Y-98124143D01*
X191579524Y-98028905D01*
X191579524Y-97219381D01*
X192484286Y-97552714D02*
X192484286Y-98219381D01*
X192246190Y-97171762D02*
X192008095Y-97886048D01*
X192627143Y-97886048D01*
X204713935Y-88514301D02*
X204713935Y-89323825D01*
X204761554Y-89419063D01*
X204809173Y-89466682D01*
X204904411Y-89514301D01*
X205094888Y-89514301D01*
X205190126Y-89466682D01*
X205237745Y-89419063D01*
X205285364Y-89323825D01*
X205285364Y-88514301D01*
X206190126Y-88514301D02*
X205999649Y-88514301D01*
X205904411Y-88561920D01*
X205856792Y-88609539D01*
X205761554Y-88752396D01*
X205713935Y-88942872D01*
X205713935Y-89323825D01*
X205761554Y-89419063D01*
X205809173Y-89466682D01*
X205904411Y-89514301D01*
X206094888Y-89514301D01*
X206190126Y-89466682D01*
X206237745Y-89419063D01*
X206285364Y-89323825D01*
X206285364Y-89085730D01*
X206237745Y-88990491D01*
X206190126Y-88942872D01*
X206094888Y-88895253D01*
X205904411Y-88895253D01*
X205809173Y-88942872D01*
X205761554Y-88990491D01*
X205713935Y-89085730D01*
X204796190Y-73655191D02*
X205272381Y-73655191D01*
X204272381Y-73988524D02*
X204796190Y-73655191D01*
X204272381Y-73321857D01*
X205272381Y-72464714D02*
X205272381Y-73036143D01*
X205272381Y-72750429D02*
X204272381Y-72750429D01*
X204415238Y-72845667D01*
X204510476Y-72940905D01*
X204558095Y-73036143D01*
X86530819Y-101765028D02*
X86483200Y-101860266D01*
X86387962Y-101955504D01*
X86245105Y-102098361D01*
X86197486Y-102193600D01*
X86197486Y-102288838D01*
X86435581Y-102241219D02*
X86387962Y-102336457D01*
X86292724Y-102431695D01*
X86102248Y-102479314D01*
X85768914Y-102479314D01*
X85578438Y-102431695D01*
X85483200Y-102336457D01*
X85435581Y-102241219D01*
X85435581Y-102050742D01*
X85483200Y-101955504D01*
X85578438Y-101860266D01*
X85768914Y-101812647D01*
X86102248Y-101812647D01*
X86292724Y-101860266D01*
X86387962Y-101955504D01*
X86435581Y-102050742D01*
X86435581Y-102241219D01*
X86435581Y-100860266D02*
X86435581Y-101431695D01*
X86435581Y-101145981D02*
X85435581Y-101145981D01*
X85578438Y-101241219D01*
X85673676Y-101336457D01*
X85721295Y-101431695D01*
X85864152Y-100288838D02*
X85816533Y-100384076D01*
X85768914Y-100431695D01*
X85673676Y-100479314D01*
X85626057Y-100479314D01*
X85530819Y-100431695D01*
X85483200Y-100384076D01*
X85435581Y-100288838D01*
X85435581Y-100098361D01*
X85483200Y-100003123D01*
X85530819Y-99955504D01*
X85626057Y-99907885D01*
X85673676Y-99907885D01*
X85768914Y-99955504D01*
X85816533Y-100003123D01*
X85864152Y-100098361D01*
X85864152Y-100288838D01*
X85911771Y-100384076D01*
X85959390Y-100431695D01*
X86054629Y-100479314D01*
X86245105Y-100479314D01*
X86340343Y-100431695D01*
X86387962Y-100384076D01*
X86435581Y-100288838D01*
X86435581Y-100098361D01*
X86387962Y-100003123D01*
X86340343Y-99955504D01*
X86245105Y-99907885D01*
X86054629Y-99907885D01*
X85959390Y-99955504D01*
X85911771Y-100003123D01*
X85864152Y-100098361D01*
X78486095Y-69612381D02*
X78486095Y-70421905D01*
X78533714Y-70517143D01*
X78581333Y-70564762D01*
X78676571Y-70612381D01*
X78867048Y-70612381D01*
X78962286Y-70564762D01*
X79009905Y-70517143D01*
X79057524Y-70421905D01*
X79057524Y-69612381D01*
X79438476Y-69612381D02*
X80105143Y-69612381D01*
X79676571Y-70612381D01*
X144242167Y-121712481D02*
X144242167Y-122426767D01*
X144194547Y-122569624D01*
X144099309Y-122664862D01*
X143956452Y-122712481D01*
X143861214Y-122712481D01*
X145242167Y-122712481D02*
X144670738Y-122712481D01*
X144956452Y-122712481D02*
X144956452Y-121712481D01*
X144861214Y-121855338D01*
X144765976Y-121950576D01*
X144670738Y-121998195D01*
X211844381Y-92007333D02*
X212558667Y-92007333D01*
X212701524Y-92054953D01*
X212796762Y-92150191D01*
X212844381Y-92293048D01*
X212844381Y-92388286D01*
X211844381Y-91626381D02*
X211844381Y-91007333D01*
X212225333Y-91340667D01*
X212225333Y-91197809D01*
X212272952Y-91102571D01*
X212320571Y-91054952D01*
X212415810Y-91007333D01*
X212653905Y-91007333D01*
X212749143Y-91054952D01*
X212796762Y-91102571D01*
X212844381Y-91197809D01*
X212844381Y-91483524D01*
X212796762Y-91578762D01*
X212749143Y-91626381D01*
X81155267Y-129807981D02*
X81155267Y-130522267D01*
X81107647Y-130665124D01*
X81012409Y-130760362D01*
X80869552Y-130807981D01*
X80774314Y-130807981D01*
X82060029Y-130141314D02*
X82060029Y-130807981D01*
X81821933Y-129760362D02*
X81583838Y-130474648D01*
X82202886Y-130474648D01*
X78640667Y-66460381D02*
X78640667Y-67174667D01*
X78593047Y-67317524D01*
X78497809Y-67412762D01*
X78354952Y-67460381D01*
X78259714Y-67460381D01*
X79545429Y-66460381D02*
X79354952Y-66460381D01*
X79259714Y-66508000D01*
X79212095Y-66555619D01*
X79116857Y-66698476D01*
X79069238Y-66888952D01*
X79069238Y-67269905D01*
X79116857Y-67365143D01*
X79164476Y-67412762D01*
X79259714Y-67460381D01*
X79450191Y-67460381D01*
X79545429Y-67412762D01*
X79593048Y-67365143D01*
X79640667Y-67269905D01*
X79640667Y-67031810D01*
X79593048Y-66936571D01*
X79545429Y-66888952D01*
X79450191Y-66841333D01*
X79259714Y-66841333D01*
X79164476Y-66888952D01*
X79116857Y-66936571D01*
X79069238Y-67031810D01*
X174132335Y-64486661D02*
X174132335Y-65296185D01*
X174179954Y-65391423D01*
X174227573Y-65439042D01*
X174322811Y-65486661D01*
X174513288Y-65486661D01*
X174608526Y-65439042D01*
X174656145Y-65391423D01*
X174703764Y-65296185D01*
X174703764Y-64486661D01*
X175656145Y-64486661D02*
X175179954Y-64486661D01*
X175132335Y-64962851D01*
X175179954Y-64915232D01*
X175275192Y-64867613D01*
X175513288Y-64867613D01*
X175608526Y-64915232D01*
X175656145Y-64962851D01*
X175703764Y-65058090D01*
X175703764Y-65296185D01*
X175656145Y-65391423D01*
X175608526Y-65439042D01*
X175513288Y-65486661D01*
X175275192Y-65486661D01*
X175179954Y-65439042D01*
X175132335Y-65391423D01*
X100166181Y-104566886D02*
X99166181Y-104566886D01*
X99166181Y-104328791D01*
X99213800Y-104185933D01*
X99309038Y-104090695D01*
X99404276Y-104043076D01*
X99594752Y-103995457D01*
X99737610Y-103995457D01*
X99928086Y-104043076D01*
X100023324Y-104090695D01*
X100118562Y-104185933D01*
X100166181Y-104328791D01*
X100166181Y-104566886D01*
X99261419Y-103614505D02*
X99213800Y-103566886D01*
X99166181Y-103471648D01*
X99166181Y-103233552D01*
X99213800Y-103138314D01*
X99261419Y-103090695D01*
X99356657Y-103043076D01*
X99451895Y-103043076D01*
X99594752Y-103090695D01*
X100166181Y-103662124D01*
X100166181Y-103043076D01*
X99594752Y-102471648D02*
X99547133Y-102566886D01*
X99499514Y-102614505D01*
X99404276Y-102662124D01*
X99356657Y-102662124D01*
X99261419Y-102614505D01*
X99213800Y-102566886D01*
X99166181Y-102471648D01*
X99166181Y-102281171D01*
X99213800Y-102185933D01*
X99261419Y-102138314D01*
X99356657Y-102090695D01*
X99404276Y-102090695D01*
X99499514Y-102138314D01*
X99547133Y-102185933D01*
X99594752Y-102281171D01*
X99594752Y-102471648D01*
X99642371Y-102566886D01*
X99689990Y-102614505D01*
X99785229Y-102662124D01*
X99975705Y-102662124D01*
X100070943Y-102614505D01*
X100118562Y-102566886D01*
X100166181Y-102471648D01*
X100166181Y-102281171D01*
X100118562Y-102185933D01*
X100070943Y-102138314D01*
X99975705Y-102090695D01*
X99785229Y-102090695D01*
X99689990Y-102138314D01*
X99642371Y-102185933D01*
X99594752Y-102281171D01*
X91236895Y-96764981D02*
X91236895Y-97574505D01*
X91284514Y-97669743D01*
X91332133Y-97717362D01*
X91427371Y-97764981D01*
X91617848Y-97764981D01*
X91713086Y-97717362D01*
X91760705Y-97669743D01*
X91808324Y-97574505D01*
X91808324Y-96764981D01*
X92427371Y-97193552D02*
X92332133Y-97145933D01*
X92284514Y-97098314D01*
X92236895Y-97003076D01*
X92236895Y-96955457D01*
X92284514Y-96860219D01*
X92332133Y-96812600D01*
X92427371Y-96764981D01*
X92617848Y-96764981D01*
X92713086Y-96812600D01*
X92760705Y-96860219D01*
X92808324Y-96955457D01*
X92808324Y-97003076D01*
X92760705Y-97098314D01*
X92713086Y-97145933D01*
X92617848Y-97193552D01*
X92427371Y-97193552D01*
X92332133Y-97241171D01*
X92284514Y-97288790D01*
X92236895Y-97384029D01*
X92236895Y-97574505D01*
X92284514Y-97669743D01*
X92332133Y-97717362D01*
X92427371Y-97764981D01*
X92617848Y-97764981D01*
X92713086Y-97717362D01*
X92760705Y-97669743D01*
X92808324Y-97574505D01*
X92808324Y-97384029D01*
X92760705Y-97288790D01*
X92713086Y-97241171D01*
X92617848Y-97193552D01*
X207891143Y-84983581D02*
X207557809Y-84507390D01*
X207319714Y-84983581D02*
X207319714Y-83983581D01*
X207700667Y-83983581D01*
X207795905Y-84031200D01*
X207843524Y-84078819D01*
X207891143Y-84174057D01*
X207891143Y-84316914D01*
X207843524Y-84412152D01*
X207795905Y-84459771D01*
X207700667Y-84507390D01*
X207319714Y-84507390D01*
X208748286Y-84316914D02*
X208748286Y-84983581D01*
X208510190Y-83935962D02*
X208272095Y-84650248D01*
X208891143Y-84650248D01*
X209319714Y-84983581D02*
X209510190Y-84983581D01*
X209605429Y-84935962D01*
X209653048Y-84888343D01*
X209748286Y-84745486D01*
X209795905Y-84555010D01*
X209795905Y-84174057D01*
X209748286Y-84078819D01*
X209700667Y-84031200D01*
X209605429Y-83983581D01*
X209414952Y-83983581D01*
X209319714Y-84031200D01*
X209272095Y-84078819D01*
X209224476Y-84174057D01*
X209224476Y-84412152D01*
X209272095Y-84507390D01*
X209319714Y-84555010D01*
X209414952Y-84602629D01*
X209605429Y-84602629D01*
X209700667Y-84555010D01*
X209748286Y-84507390D01*
X209795905Y-84412152D01*
M02*
