M48
;DRILL file {KiCad 4.0.6} date 09/22/17 22:57:57
;FORMAT={-:-/ absolute / metric / decimal}
FMAT,2
METRIC,TZ
T1C0.400
T2C0.800
T3C0.900
%
G90
G05
M71
T1
X79.07Y-120.955
X88.963Y-82.029
X90.78Y-120.802
X90.932Y-68.326
X91.059Y-65.151
X91.567Y-61.595
X95.021Y-128.448
X97.028Y-62.992
X98.73Y-100.178
X104.394Y-113.812
X104.402Y-80.353
X104.775Y-99.187
X106.87Y-68.428
X109.347Y-102.855
X111.45Y-103.373
X112.448Y-113.787
X112.875Y-104.889
X113.767Y-63.817
X116.662Y-58.064
X117.683Y-62.558
X117.897Y-100.198
X118.902Y-72.664
X120.625Y-113.759
X123.977Y-91.44
X124.033Y-72.217
X127.716Y-72.375
X127.765Y-101.27
X128.041Y-91.948
X128.049Y-70.046
X128.58Y-61.775
X128.77Y-113.741
X130.485Y-93.985
X131.067Y-59.345
X131.552Y-82.707
X131.567Y-73.624
X132.044Y-100.973
X132.359Y-87.744
X132.613Y-91.948
X134.762Y-91.643
X134.828Y-73.632
X134.988Y-87.005
X136.901Y-113.751
X136.954Y-88.047
X136.977Y-71.61
X137.168Y-99.845
X137.185Y-91.948
X138.295Y-80.307
X138.486Y-74.582
X139.05Y-93.614
X141.046Y-88.224
X141.244Y-100.409
X141.249Y-91.948
X141.747Y-62.484
X142.098Y-64.465
X142.166Y-59.723
X143.284Y-92.057
X145.031Y-113.744
X145.458Y-88.549
X145.821Y-91.948
X145.824Y-100.393
X147.665Y-93.045
X147.927Y-84.079
X148.605Y-80.482
X149.733Y-88.346
X149.87Y-100.002
X149.885Y-91.948
X151.501Y-79.751
X151.524Y-66.827
X152.057Y-93.116
X152.217Y-83.109
X152.42Y-84.651
X153.129Y-113.741
X153.538Y-72.441
X154.457Y-91.948
X154.656Y-86.914
X155.004Y-101.018
X156.352Y-93.431
X156.439Y-82.09
X156.924Y-113.718
X157.267Y-100.231
X157.505Y-91.948
X158.913Y-82.045
X160.223Y-91.542
X160.523Y-101.887
X161.338Y-102.573
X162.077Y-91.948
X164.882Y-101.778
X166.649Y-91.948
X168.087Y-80.998
X168.562Y-83.121
X169.009Y-93.823
X169.042Y-99.487
X169.484Y-113.767
X170.419Y-67.488
X171.717Y-61.036
X171.729Y-91.948
X172.029Y-102.123
X173.812Y-93.459
X173.965Y-59.741
X176.042Y-102.113
X176.301Y-91.948
X177.5Y-113.751
X177.983Y-101.702
X178.384Y-58.217
X181.417Y-64.943
X181.493Y-69.525
X181.922Y-102.011
X182.461Y-91.364
X182.56Y-68.181
X184.18Y-75.159
X184.607Y-66.528
X185.176Y-68.804
X185.6Y-113.754
X189.319Y-108.28
X198.285Y-96.086
X200.665Y-99.997
X203.65Y-95.471
T2
X187.96Y-62.357
X187.96Y-64.897
X187.96Y-67.437
X187.96Y-69.977
X187.96Y-72.517
X187.96Y-75.057
X187.96Y-77.597
X187.96Y-80.137
X187.96Y-82.677
X187.96Y-85.217
X187.96Y-87.757
X187.96Y-90.297
X187.96Y-92.837
X187.96Y-95.377
X195.58Y-62.357
X195.58Y-64.897
X195.58Y-67.437
X195.58Y-69.977
X195.58Y-72.517
X195.58Y-75.057
X195.58Y-77.597
X195.58Y-80.137
X195.58Y-82.677
X195.58Y-85.217
X195.58Y-87.757
X195.58Y-90.297
X195.58Y-92.837
X195.58Y-95.377
X201.295Y-70.739
X201.295Y-75.619
T3
X77.724Y-64.008
X80.224Y-64.008
X80.239Y-127.356
X82.739Y-127.356
X129.576Y-125.26
X132.076Y-125.26
X134.576Y-125.26
X137.076Y-125.26
X139.576Y-125.26
X142.076Y-125.26
X144.576Y-125.26
X147.076Y-125.26
X149.576Y-125.26
X152.076Y-125.26
X154.576Y-125.26
X155.956Y-64.008
X157.076Y-125.26
X158.456Y-64.008
X159.576Y-125.26
X215.392Y-90.424
X215.392Y-92.924
T0
M30
