G04 #@! TF.FileFunction,Copper,L2,Bot,Signal*
%FSLAX46Y46*%
G04 Gerber Fmt 4.6, Leading zero omitted, Abs format (unit mm)*
G04 Created by KiCad (PCBNEW 4.0.6) date 09/27/17 00:39:41*
%MOMM*%
%LPD*%
G01*
G04 APERTURE LIST*
%ADD10C,0.100000*%
%ADD11R,1.600000X2.000000*%
%ADD12R,1.850000X1.850000*%
%ADD13C,1.850000*%
%ADD14R,2.400000X1.600000*%
%ADD15O,2.400000X1.600000*%
%ADD16C,1.500000*%
%ADD17C,0.600000*%
%ADD18C,0.250000*%
%ADD19C,0.300000*%
%ADD20C,0.500000*%
G04 APERTURE END LIST*
D10*
D11*
X176301400Y-94012000D03*
X176301400Y-98012000D03*
X123977400Y-94012000D03*
X123977400Y-98012000D03*
X128041400Y-94012000D03*
X128041400Y-98012000D03*
X132613400Y-94012000D03*
X132613400Y-98012000D03*
X137185400Y-94012000D03*
X137185400Y-98012000D03*
X141249400Y-94012000D03*
X141249400Y-98012000D03*
X145821400Y-94012000D03*
X145821400Y-98012000D03*
X149885400Y-94012000D03*
X149885400Y-98012000D03*
X154457400Y-94012000D03*
X154457400Y-98012000D03*
X158521400Y-94012000D03*
X158521400Y-98012000D03*
X162585400Y-94012000D03*
X162585400Y-98012000D03*
X166649400Y-94012000D03*
X166649400Y-98012000D03*
X171729400Y-94012000D03*
X171729400Y-98012000D03*
D12*
X155956000Y-64008000D03*
D13*
X158456000Y-64008000D03*
D14*
X195580000Y-95377000D03*
D15*
X187960000Y-62357000D03*
X195580000Y-92837000D03*
X187960000Y-64897000D03*
X195580000Y-90297000D03*
X187960000Y-67437000D03*
X195580000Y-87757000D03*
X187960000Y-69977000D03*
X195580000Y-85217000D03*
X187960000Y-72517000D03*
X195580000Y-82677000D03*
X187960000Y-75057000D03*
X195580000Y-80137000D03*
X187960000Y-77597000D03*
X195580000Y-77597000D03*
X187960000Y-80137000D03*
X195580000Y-75057000D03*
X187960000Y-82677000D03*
X195580000Y-72517000D03*
X187960000Y-85217000D03*
X195580000Y-69977000D03*
X187960000Y-87757000D03*
X195580000Y-67437000D03*
X187960000Y-90297000D03*
X195580000Y-64897000D03*
X187960000Y-92837000D03*
X195580000Y-62357000D03*
X187960000Y-95377000D03*
D16*
X201295000Y-70739000D03*
X201295000Y-75619000D03*
D12*
X159575500Y-125260100D03*
D13*
X157075500Y-125260100D03*
X154575500Y-125260100D03*
X152075500Y-125260100D03*
X149575500Y-125260100D03*
X147075500Y-125260100D03*
X144575500Y-125260100D03*
X142075500Y-125260100D03*
X139575500Y-125260100D03*
X137075500Y-125260100D03*
X134575500Y-125260100D03*
X132075500Y-125260100D03*
X129575500Y-125260100D03*
D12*
X215392000Y-90424000D03*
D13*
X215392000Y-92924000D03*
D12*
X80238600Y-127355600D03*
D13*
X82738600Y-127355600D03*
D12*
X77724000Y-64008000D03*
D13*
X80224000Y-64008000D03*
D17*
X88963500Y-82029300D03*
X106870500Y-68427600D03*
X91567000Y-61595000D03*
X97028000Y-62992000D03*
X90932000Y-68326000D03*
X91059000Y-65151000D03*
X117896640Y-100197920D03*
X153537920Y-72440800D03*
X138485880Y-74582020D03*
X117683280Y-62557660D03*
X116662200Y-58064400D03*
X178384200Y-58216800D03*
X200665080Y-99997260D03*
X184180480Y-75158600D03*
X104401620Y-80352900D03*
X113766600Y-63817500D03*
X142097760Y-64465200D03*
X136977120Y-71610220D03*
X134828280Y-73632060D03*
X131566920Y-73624440D03*
X176301400Y-91948000D03*
X123977400Y-91440000D03*
X128041400Y-91948000D03*
X132613400Y-91948000D03*
X137185400Y-91948000D03*
X141249400Y-91948000D03*
X145821400Y-91948000D03*
X149885400Y-91948000D03*
X154457400Y-91948000D03*
X154655520Y-86913720D03*
X152420320Y-84650580D03*
X157505400Y-91948000D03*
X162077400Y-91948000D03*
X166649400Y-91948000D03*
X171729400Y-91948000D03*
X104775000Y-99187000D03*
X127764540Y-101269800D03*
X104394000Y-113812320D03*
X132044440Y-100972620D03*
X112448340Y-113786920D03*
X137167620Y-99844860D03*
X120624600Y-113758980D03*
X141244320Y-100408740D03*
X128770380Y-113741200D03*
X145823940Y-100393500D03*
X136900920Y-113751360D03*
X149870160Y-100002340D03*
X145031460Y-113743740D03*
X155003500Y-101018340D03*
X153128980Y-113741200D03*
X160522920Y-101887020D03*
X156923740Y-113718340D03*
X164881560Y-101777800D03*
X169484040Y-113766600D03*
X176042320Y-102113080D03*
X177500280Y-113751360D03*
X181922420Y-102011480D03*
X185600340Y-113753900D03*
X173812200Y-93459300D03*
X168562020Y-83121500D03*
X182460900Y-91363800D03*
X189318900Y-108280200D03*
X141747240Y-62484000D03*
X131551680Y-82707480D03*
X109347000Y-102854760D03*
X111450120Y-103372920D03*
X112875060Y-104889300D03*
X130484880Y-93985080D03*
X132359400Y-87744300D03*
X134988300Y-87005160D03*
X134762240Y-91643200D03*
X139049760Y-93614240D03*
X136954260Y-88046560D03*
X143283940Y-92057220D03*
X141046200Y-88224360D03*
X147665440Y-93045280D03*
X145458180Y-88549480D03*
X152057100Y-93116400D03*
X149733000Y-88346280D03*
X161338260Y-102572820D03*
X157266640Y-100230940D03*
X156352240Y-93431360D03*
X152217120Y-83108800D03*
X147927060Y-84079080D03*
X160223200Y-91541600D03*
X172029120Y-102123240D03*
X169042080Y-99486720D03*
X169009060Y-93822520D03*
X151500840Y-79750920D03*
X148605240Y-80482440D03*
X156438600Y-82090260D03*
X158912560Y-82044540D03*
X177982880Y-101701600D03*
X138295380Y-80307180D03*
X168087040Y-80998060D03*
X91109800Y-120726200D03*
X103911400Y-127406400D03*
X181416960Y-64942720D03*
X131066540Y-59344560D03*
X128579880Y-61775340D03*
X128049020Y-70045580D03*
X181493160Y-69524880D03*
X170418760Y-67487800D03*
X184607200Y-66527680D03*
X185176160Y-68803520D03*
X124033280Y-72217280D03*
X118902480Y-72664320D03*
X142166340Y-59723020D03*
X173964600Y-59740800D03*
X171716700Y-61036200D03*
X203649580Y-95470980D03*
X198285100Y-96085660D03*
X127716280Y-72374760D03*
X151523700Y-66827400D03*
X182559960Y-68181220D03*
X98729800Y-100177600D03*
X79070200Y-120954800D03*
D18*
X87630000Y-74358500D02*
X77724000Y-64452500D01*
X87630000Y-80695800D02*
X87630000Y-74358500D01*
X88963500Y-82029300D02*
X87630000Y-80695800D01*
X77724000Y-64452500D02*
X77724000Y-64008000D01*
X77724000Y-62059820D02*
X77724000Y-64008000D01*
X80159860Y-59623960D02*
X77724000Y-62059820D01*
X104620060Y-59623960D02*
X80159860Y-59623960D01*
X106718100Y-61722000D02*
X104620060Y-59623960D01*
X106718100Y-68275200D02*
X106718100Y-61722000D01*
X106870500Y-68427600D02*
X106718100Y-68275200D01*
X91059000Y-62103000D02*
X91059000Y-65151000D01*
X91821000Y-61341000D02*
X91567000Y-61595000D01*
X91567000Y-61595000D02*
X91059000Y-62103000D01*
X95377000Y-61341000D02*
X91821000Y-61341000D01*
X97028000Y-62992000D02*
X95377000Y-61341000D01*
X90932000Y-65278000D02*
X90932000Y-68326000D01*
X91059000Y-65151000D02*
X90932000Y-65278000D01*
X171729400Y-98012000D02*
X176301400Y-98012000D01*
X166649400Y-98012000D02*
X171729400Y-98012000D01*
X162585400Y-98012000D02*
X166649400Y-98012000D01*
X158521400Y-98012000D02*
X162585400Y-98012000D01*
X154457400Y-98012000D02*
X158521400Y-98012000D01*
X149885400Y-98012000D02*
X154457400Y-98012000D01*
X145821400Y-98012000D02*
X149885400Y-98012000D01*
X141249400Y-98012000D02*
X145821400Y-98012000D01*
X137185400Y-98012000D02*
X141249400Y-98012000D01*
X132613400Y-98012000D02*
X137185400Y-98012000D01*
X128041400Y-98012000D02*
X132613400Y-98012000D01*
X123977400Y-98012000D02*
X128041400Y-98012000D01*
X123977400Y-98012000D02*
X120956320Y-98012000D01*
X119542560Y-98552000D02*
X117896640Y-100197920D01*
X120416320Y-98552000D02*
X119542560Y-98552000D01*
X120956320Y-98012000D02*
X120416320Y-98552000D01*
X151490680Y-74488040D02*
X153537920Y-72440800D01*
X138579860Y-74488040D02*
X151490680Y-74488040D01*
X138485880Y-74582020D02*
X138579860Y-74488040D01*
D19*
X176301400Y-98012000D02*
X123977400Y-98012000D01*
D18*
X187960000Y-75057000D02*
X188785500Y-75057000D01*
X188785500Y-75057000D02*
X190881000Y-72961500D01*
X116586000Y-61460380D02*
X117683280Y-62557660D01*
X116586000Y-58140600D02*
X116586000Y-61460380D01*
X116662200Y-58064400D02*
X116586000Y-58140600D01*
X187604400Y-58216800D02*
X178384200Y-58216800D01*
X190881000Y-61493400D02*
X187604400Y-58216800D01*
X190881000Y-72961500D02*
X190881000Y-61493400D01*
X187960000Y-75057000D02*
X189179200Y-75057000D01*
X194259200Y-80137000D02*
X195580000Y-80137000D01*
X189179200Y-75057000D02*
X194259200Y-80137000D01*
X199100440Y-101561900D02*
X200665080Y-99997260D01*
X187505340Y-101561900D02*
X199100440Y-101561900D01*
X184851040Y-98907600D02*
X187505340Y-101561900D01*
X184851040Y-75829160D02*
X184851040Y-98907600D01*
X184180480Y-75158600D02*
X184851040Y-75829160D01*
X104597200Y-80157320D02*
X104401620Y-80352900D01*
X104597200Y-72986900D02*
X104597200Y-80157320D01*
X113766600Y-63817500D02*
X104597200Y-72986900D01*
X140888720Y-64465200D02*
X142097760Y-64465200D01*
X139514580Y-65839340D02*
X140888720Y-64465200D01*
X139514580Y-69072760D02*
X139514580Y-65839340D01*
X136977120Y-71610220D02*
X139514580Y-69072760D01*
X134828280Y-73243440D02*
X134828280Y-73632060D01*
X134020560Y-72435720D02*
X134828280Y-73243440D01*
X132100320Y-72435720D02*
X134020560Y-72435720D01*
X131566920Y-72969120D02*
X132100320Y-72435720D01*
X131566920Y-73624440D02*
X131566920Y-72969120D01*
D19*
X176301400Y-94012000D02*
X176301400Y-91948000D01*
X123977400Y-94012000D02*
X123977400Y-91440000D01*
X128041400Y-94012000D02*
X128041400Y-91948000D01*
X132613400Y-94012000D02*
X132613400Y-91948000D01*
X137185400Y-94012000D02*
X137185400Y-91948000D01*
X141249400Y-94012000D02*
X141249400Y-91948000D01*
X145821400Y-94012000D02*
X145821400Y-91948000D01*
X149885400Y-94012000D02*
X149885400Y-91948000D01*
X154457400Y-94012000D02*
X154457400Y-91948000D01*
D18*
X154655520Y-86885780D02*
X154655520Y-86913720D01*
X152420320Y-84650580D02*
X154655520Y-86885780D01*
D19*
X158521400Y-94012000D02*
X158521400Y-92964000D01*
X158521400Y-92964000D02*
X157505400Y-91948000D01*
X162585400Y-94012000D02*
X162585400Y-92456000D01*
X162585400Y-92456000D02*
X162077400Y-91948000D01*
X166649400Y-94012000D02*
X166649400Y-91948000D01*
X171729400Y-94012000D02*
X171729400Y-91948000D01*
D20*
X201295000Y-75619000D02*
X198301000Y-75619000D01*
X197739000Y-75057000D02*
X195580000Y-75057000D01*
X198301000Y-75619000D02*
X197739000Y-75057000D01*
X201295000Y-70739000D02*
X199644000Y-70739000D01*
X197866000Y-72517000D02*
X195580000Y-72517000D01*
X199644000Y-70739000D02*
X197866000Y-72517000D01*
D18*
X191262000Y-98679000D02*
X187960000Y-95377000D01*
X201803000Y-98679000D02*
X191262000Y-98679000D01*
X202946000Y-99822000D02*
X201803000Y-98679000D01*
X202946000Y-101092000D02*
X202946000Y-99822000D01*
X198882000Y-105156000D02*
X202946000Y-101092000D01*
X198882000Y-117983000D02*
X198882000Y-105156000D01*
X196088000Y-120777000D02*
X198882000Y-117983000D01*
X104013000Y-120777000D02*
X196088000Y-120777000D01*
X102489000Y-119253000D02*
X104013000Y-120777000D01*
X102489000Y-105283000D02*
X102489000Y-119253000D01*
X104775000Y-102997000D02*
X102489000Y-105283000D01*
X104775000Y-99187000D02*
X104775000Y-102997000D01*
X112547400Y-101269800D02*
X127764540Y-101269800D01*
X105110280Y-108706920D02*
X112547400Y-101269800D01*
X105110280Y-113096040D02*
X105110280Y-108706920D01*
X104394000Y-113812320D02*
X105110280Y-113096040D01*
X130807460Y-102209600D02*
X132044440Y-100972620D01*
X116941600Y-102209600D02*
X130807460Y-102209600D01*
X113842800Y-105308400D02*
X116941600Y-102209600D01*
X113842800Y-112392460D02*
X113842800Y-105308400D01*
X112448340Y-113786920D02*
X113842800Y-112392460D01*
X137167620Y-100934520D02*
X137167620Y-99844860D01*
X135343900Y-102758240D02*
X137167620Y-100934520D01*
X129661920Y-102758240D02*
X135343900Y-102758240D01*
X121594880Y-110825280D02*
X129661920Y-102758240D01*
X121594880Y-112788700D02*
X121594880Y-110825280D01*
X120624600Y-113758980D02*
X121594880Y-112788700D01*
X141244320Y-101391720D02*
X141244320Y-100408740D01*
X140756640Y-101879400D02*
X141244320Y-101391720D01*
X137426700Y-101879400D02*
X140756640Y-101879400D01*
X129377440Y-109928660D02*
X137426700Y-101879400D01*
X129377440Y-113134140D02*
X129377440Y-109928660D01*
X128770380Y-113741200D02*
X129377440Y-113134140D01*
X145823940Y-101475540D02*
X145823940Y-100393500D01*
X145455640Y-101843840D02*
X145823940Y-101475540D01*
X141996160Y-101843840D02*
X145455640Y-101843840D01*
X137769600Y-106070400D02*
X141996160Y-101843840D01*
X137769600Y-112882680D02*
X137769600Y-106070400D01*
X136900920Y-113751360D02*
X137769600Y-112882680D01*
X149870160Y-101772720D02*
X149870160Y-100002340D01*
X146405600Y-105237280D02*
X149870160Y-101772720D01*
X146405600Y-112369600D02*
X146405600Y-105237280D01*
X145031460Y-113743740D02*
X146405600Y-112369600D01*
X156392880Y-102407720D02*
X155003500Y-101018340D01*
X156392880Y-110477300D02*
X156392880Y-102407720D01*
X153128980Y-113741200D02*
X156392880Y-110477300D01*
X158343600Y-101887020D02*
X160522920Y-101887020D01*
X157553660Y-102676960D02*
X158343600Y-101887020D01*
X157553660Y-110324900D02*
X157553660Y-102676960D01*
X156466540Y-111412020D02*
X157553660Y-110324900D01*
X156466540Y-113261140D02*
X156466540Y-111412020D01*
X156923740Y-113718340D02*
X156466540Y-113261140D01*
X165437820Y-102334060D02*
X164881560Y-101777800D01*
X165437820Y-102489000D02*
X165437820Y-102334060D01*
X170154600Y-107205780D02*
X165437820Y-102489000D01*
X170154600Y-113096040D02*
X170154600Y-107205780D01*
X169484040Y-113766600D02*
X170154600Y-113096040D01*
X179019200Y-105089960D02*
X176042320Y-102113080D01*
X179019200Y-106890820D02*
X179019200Y-105089960D01*
X178368960Y-107541060D02*
X179019200Y-106890820D01*
X178368960Y-112882680D02*
X178368960Y-107541060D01*
X177500280Y-113751360D02*
X178368960Y-112882680D01*
X182567580Y-102656640D02*
X181922420Y-102011480D01*
X182722520Y-102656640D02*
X182567580Y-102656640D01*
X186019440Y-105953560D02*
X182722520Y-102656640D01*
X186019440Y-113334800D02*
X186019440Y-105953560D01*
X185600340Y-113753900D02*
X186019440Y-113334800D01*
X173812200Y-88371680D02*
X173812200Y-93459300D01*
X168562020Y-83121500D02*
X173812200Y-88371680D01*
X182460900Y-97688400D02*
X182460900Y-91363800D01*
X189318900Y-104546400D02*
X182460900Y-97688400D01*
X189318900Y-108280200D02*
X189318900Y-104546400D01*
X152257760Y-64008000D02*
X155956000Y-64008000D01*
X149900640Y-61650880D02*
X152257760Y-64008000D01*
X142580360Y-61650880D02*
X149900640Y-61650880D01*
X141747240Y-62484000D02*
X142580360Y-61650880D01*
X131536440Y-82692240D02*
X131551680Y-82707480D01*
X128645920Y-82692240D02*
X131536440Y-82692240D01*
X109179360Y-102158800D02*
X128645920Y-82692240D01*
X109179360Y-102687120D02*
X109179360Y-102158800D01*
X109347000Y-102854760D02*
X109179360Y-102687120D01*
X111450120Y-103464360D02*
X111450120Y-103372920D01*
X112875060Y-104889300D02*
X111450120Y-103464360D01*
X130492500Y-93977460D02*
X130484880Y-93985080D01*
X130492500Y-89611200D02*
X130492500Y-93977460D01*
X132359400Y-87744300D02*
X130492500Y-89611200D01*
X134988300Y-91417140D02*
X134988300Y-87005160D01*
X134762240Y-91643200D02*
X134988300Y-91417140D01*
X139049760Y-90142060D02*
X139049760Y-93614240D01*
X136954260Y-88046560D02*
X139049760Y-90142060D01*
X142621000Y-91394280D02*
X143283940Y-92057220D01*
X142621000Y-89799160D02*
X142621000Y-91394280D01*
X141046200Y-88224360D02*
X142621000Y-89799160D01*
X147665440Y-90756740D02*
X147665440Y-93045280D01*
X145458180Y-88549480D02*
X147665440Y-90756740D01*
X152057100Y-90670380D02*
X152057100Y-93116400D01*
X149733000Y-88346280D02*
X152057100Y-90670380D01*
X161338260Y-101140260D02*
X161338260Y-102572820D01*
X160507680Y-100309680D02*
X161338260Y-101140260D01*
X157345380Y-100309680D02*
X160507680Y-100309680D01*
X157266640Y-100230940D02*
X157345380Y-100309680D01*
X156352240Y-87243920D02*
X156352240Y-93431360D01*
X152217120Y-83108800D02*
X156352240Y-87243920D01*
X148968460Y-84079080D02*
X147927060Y-84079080D01*
X150820120Y-82227420D02*
X148968460Y-84079080D01*
X153250900Y-82227420D02*
X150820120Y-82227420D01*
X158112460Y-87088980D02*
X153250900Y-82227420D01*
X158112460Y-89430860D02*
X158112460Y-87088980D01*
X160223200Y-91541600D02*
X158112460Y-89430860D01*
X171678600Y-102123240D02*
X172029120Y-102123240D01*
X169042080Y-99486720D02*
X171678600Y-102123240D01*
X169009060Y-92593160D02*
X169009060Y-93822520D01*
X167192960Y-90777060D02*
X169009060Y-92593160D01*
X166354760Y-90777060D02*
X167192960Y-90777060D01*
X155298140Y-79720440D02*
X166354760Y-90777060D01*
X151531320Y-79720440D02*
X155298140Y-79720440D01*
X151500840Y-79750920D02*
X151531320Y-79720440D01*
X154830780Y-80482440D02*
X148605240Y-80482440D01*
X156438600Y-82090260D02*
X154830780Y-80482440D01*
X158935420Y-82067400D02*
X158912560Y-82044540D01*
X170116500Y-82067400D02*
X158935420Y-82067400D01*
X177962560Y-89913460D02*
X170116500Y-82067400D01*
X177962560Y-101681280D02*
X177962560Y-89913460D01*
X177982880Y-101701600D02*
X177962560Y-101681280D01*
X139080240Y-81092040D02*
X138295380Y-80307180D01*
X146276060Y-81092040D02*
X139080240Y-81092040D01*
X146281140Y-81097120D02*
X146276060Y-81092040D01*
X146748500Y-81097120D02*
X146281140Y-81097120D01*
X148998940Y-78846680D02*
X146748500Y-81097120D01*
X165935660Y-78846680D02*
X148998940Y-78846680D01*
X168087040Y-80998060D02*
X165935660Y-78846680D01*
X195580000Y-82677000D02*
X204724000Y-82677000D01*
X99568000Y-129184400D02*
X91109800Y-120726200D01*
X196113400Y-129184400D02*
X99568000Y-129184400D01*
X207797400Y-117500400D02*
X196113400Y-129184400D01*
X207797400Y-85750400D02*
X207797400Y-117500400D01*
X204724000Y-82677000D02*
X207797400Y-85750400D01*
X201422000Y-85217000D02*
X195580000Y-85217000D01*
X205257400Y-89052400D02*
X201422000Y-85217000D01*
X205257400Y-117729000D02*
X205257400Y-89052400D01*
X195351400Y-127635000D02*
X205257400Y-117729000D01*
X104140000Y-127635000D02*
X195351400Y-127635000D01*
X103911400Y-127406400D02*
X104140000Y-127635000D01*
X179872640Y-63398400D02*
X181416960Y-64942720D01*
X169849800Y-63398400D02*
X179872640Y-63398400D01*
X165087300Y-58635900D02*
X169849800Y-63398400D01*
X131775200Y-58635900D02*
X165087300Y-58635900D01*
X131066540Y-59344560D02*
X131775200Y-58635900D01*
X128496060Y-61775340D02*
X128579880Y-61775340D01*
X127210820Y-63060580D02*
X128496060Y-61775340D01*
X127210820Y-69207380D02*
X127210820Y-63060580D01*
X128049020Y-70045580D02*
X127210820Y-69207380D01*
X187960000Y-72517000D02*
X185750200Y-72517000D01*
X185750200Y-72517000D02*
X182758080Y-69524880D01*
X182758080Y-69524880D02*
X181493160Y-69524880D01*
X187960000Y-69977000D02*
X186349640Y-69977000D01*
X172943520Y-67330320D02*
X172943520Y-67970400D01*
X174355760Y-65918080D02*
X172943520Y-67330320D01*
X183997600Y-65918080D02*
X174355760Y-65918080D01*
X184607200Y-66527680D02*
X183997600Y-65918080D01*
X186349640Y-69977000D02*
X185176160Y-68803520D01*
X172943520Y-67970400D02*
X170901360Y-67970400D01*
X163728400Y-60797440D02*
X170418760Y-67487800D01*
X170418760Y-67487800D02*
X170901360Y-67970400D01*
X125397260Y-60797440D02*
X163728400Y-60797440D01*
X124012960Y-62181740D02*
X125397260Y-60797440D01*
X124012960Y-72196960D02*
X124012960Y-62181740D01*
X124012960Y-72196960D02*
X124033280Y-72217280D01*
X187960000Y-64897000D02*
X185788300Y-64897000D01*
X119948960Y-71617840D02*
X118902480Y-72664320D01*
X119948960Y-63693040D02*
X119948960Y-71617840D01*
X123504960Y-60137040D02*
X119948960Y-63693040D01*
X141752320Y-60137040D02*
X123504960Y-60137040D01*
X142166340Y-59723020D02*
X141752320Y-60137040D01*
X180632100Y-59740800D02*
X173964600Y-59740800D01*
X185788300Y-64897000D02*
X180632100Y-59740800D01*
X195580000Y-62357000D02*
X195580000Y-61020960D01*
X171716700Y-59969400D02*
X171716700Y-61036200D01*
X174726600Y-56959500D02*
X171716700Y-59969400D01*
X191518540Y-56959500D02*
X174726600Y-56959500D01*
X195580000Y-61020960D02*
X191518540Y-56959500D01*
X203649580Y-96532700D02*
X203649580Y-95470980D01*
X202671680Y-97510600D02*
X203649580Y-96532700D01*
X199710040Y-97510600D02*
X202671680Y-97510600D01*
X198285100Y-96085660D02*
X199710040Y-97510600D01*
X128808480Y-71826120D02*
X127716280Y-72374760D01*
X130291840Y-70342760D02*
X128808480Y-71826120D01*
X130291840Y-67076320D02*
X130291840Y-70342760D01*
X133929120Y-63439040D02*
X130291840Y-67076320D01*
X143113760Y-63439040D02*
X133929120Y-63439040D01*
X146616420Y-66941700D02*
X143113760Y-63439040D01*
X151409400Y-66941700D02*
X146616420Y-66941700D01*
X151523700Y-66827400D02*
X151409400Y-66941700D01*
X183304180Y-67437000D02*
X187960000Y-67437000D01*
X182559960Y-68181220D02*
X183304180Y-67437000D01*
X99263200Y-100711000D02*
X98729800Y-100177600D01*
X99263200Y-109753400D02*
X99263200Y-100711000D01*
X87045800Y-121970800D02*
X99263200Y-109753400D01*
X80086200Y-121970800D02*
X87045800Y-121970800D01*
X79070200Y-120954800D02*
X80086200Y-121970800D01*
M02*
